M48
; DRILL file KiCad 10.0.6 date 2026-09-26T09:40:10
; FORMAT={-:-/ absolute / metric / decimal}
; #@! TF.CreationDate,2026-09-26T09:40:10-05:00
; #@! TF.GenerationSoftware,Kicad,Pcbnew,10.0.6
; #@! TF.FileFunction,Plated,1,2,PTH
FMAT,2
METRIC
; #@! TA.AperFunction,Plated,PTH,ViaDrill
T1C0.300
; #@! TA.AperFunction,Plated,PTH,ComponentDrill
T2C0.900
; #@! TA.AperFunction,Plated,PTH,ComponentDrill
T3C1.000
%
G90
G05
T1
X2.457Y-51.161
X2.685Y-51.943
X3.158Y-15.708
X4.201Y-51.003
X4.45Y-54.963
X6.355Y-44.353
X6.681Y-22.669
X6.725Y-37.024
X7.177Y-13.573
X7.818Y-57.535
X7.821Y-52.356
X8.507Y-29.484
X8.722Y-45.518
X9.157Y-55.778
X9.406Y-39.482
X10.509Y-59.853
X10.882Y-13.473
X11.665Y-47.365
X15.218Y-4.912
X15.273Y-42.84
X15.6Y-50.973
X15.828Y-55.742
X16.574Y-51.726
X16.692Y-55.648
X17.29Y-42.83
X18.225Y-37.07
X18.549Y-61.382
X18.65Y-58.875
X18.683Y-56.415
X19.095Y-27.688
X19.226Y-51.878
X19.307Y-57.792
X19.556Y-33.462
X19.825Y-39.568
X20.371Y-56.077
X20.665Y-51.6
X20.773Y-24.762
X20.784Y-15.987
X21.475Y-41.616
X21.945Y-48.703
X26.741Y-41.757
X27.733Y-55.736
X27.75Y-24.388
X28.015Y-15.15
X28.525Y-42.807
X28.568Y-54.12
X28.683Y-49.893
X29.198Y-36.033
X29.402Y-51.466
X29.757Y-44.231
X31.106Y-55.945
X31.312Y-57.492
X31.32Y-52.428
X31.825Y-47.335
X32.438Y-31.172
X32.544Y-41.219
X33.276Y-4.508
X33.312Y-42.701
X34.225Y-32.688
X34.802Y-45.608
X35.326Y-56.745
X37.062Y-40.843
X38.022Y-42.999
X38.229Y-56.556
X38.298Y-57.724
X38.599Y-54.84
X38.736Y-44.258
X39.269Y-18.233
X40.461Y-9.455
X40.499Y-59.447
X40.633Y-56.096
X41.675Y-21.341
X41.676Y-11.76
X41.725Y-39.025
X41.725Y-48.3
X42.58Y-41.166
X42.586Y-55.939
X42.605Y-60.526
X42.737Y-46.909
X42.762Y-57.319
X43.33Y-23.554
X44.975Y-42.834
X45.881Y-14.873
T2
X25.0Y-32.0
X27.54Y-32.0
T3
X12.0Y-62.96
X12.0Y-65.5
X14.54Y-62.96
X14.54Y-65.5
X17.08Y-62.96
X17.08Y-65.5
X19.62Y-62.96
X19.62Y-65.5
X22.16Y-62.96
X22.16Y-65.5
X26.5Y-65.5
X29.04Y-65.5
X31.58Y-65.5
X34.12Y-65.5
X36.66Y-65.5
X39.2Y-65.5
M30
