%TF.GenerationSoftware,KiCad,Pcbnew,10.0.6*%
%TF.CreationDate,2026-09-26T17:14:54-05:00*%
%TF.ProjectId,neuromorphic-ir-event-sensor,6e657572-6f6d-46f7-9270-6869632d6972,rev?*%
%TF.SameCoordinates,Original*%
%TF.FileFunction,Copper,L2,Bot*%
%TF.FilePolarity,Positive*%
%FSLAX46Y46*%
G04 Gerber Fmt 4.6, Leading zero omitted, Abs format (unit mm)*
G04 Created by KiCad (PCBNEW 10.0.6) date 2026-09-26 17:14:54*
%MOMM*%
%LPD*%
G01*
G04 APERTURE LIST*
%TA.AperFunction,Conductor*%
%ADD10C,0.200000*%
%TD*%
%TA.AperFunction,ComponentPad*%
%ADD11R,1.800000X1.800000*%
%TD*%
%TA.AperFunction,ComponentPad*%
%ADD12C,1.800000*%
%TD*%
%TA.AperFunction,ComponentPad*%
%ADD13R,1.700000X1.700000*%
%TD*%
%TA.AperFunction,ComponentPad*%
%ADD14C,1.700000*%
%TD*%
%TA.AperFunction,ViaPad*%
%ADD15C,0.600000*%
%TD*%
%TA.AperFunction,Conductor*%
%ADD16C,0.300000*%
%TD*%
%TA.AperFunction,Conductor*%
%ADD17C,0.250000*%
%TD*%
G04 APERTURE END LIST*
%TO.N,LED_K*%
D10*
X24250000Y-33500000D02*
X25000000Y-32750000D01*
%TD*%
D11*
%TO.P,LED1,1*%
%TO.N,LED_K*%
X25000000Y-32000000D03*
D12*
%TO.P,LED1,2*%
%TO.N,3V3*%
X27540000Y-32000000D03*
%TD*%
D13*
%TO.P,J_FPGA,1*%
%TO.N,GND*%
X12000000Y-65500000D03*
D14*
%TO.P,J_FPGA,2*%
%TO.N,3V3*%
X12000000Y-62960000D03*
%TO.P,J_FPGA,3*%
%TO.N,SPIKE_ON_TL*%
X14540000Y-65500000D03*
%TO.P,J_FPGA,4*%
%TO.N,SPIKE_OFF_TL*%
X14540000Y-62960000D03*
%TO.P,J_FPGA,5*%
%TO.N,SPIKE_ON_TR*%
X17080000Y-65500000D03*
%TO.P,J_FPGA,6*%
%TO.N,SPIKE_OFF_TR*%
X17080000Y-62960000D03*
%TO.P,J_FPGA,7*%
%TO.N,SPIKE_ON_BL*%
X19620000Y-65500000D03*
%TO.P,J_FPGA,8*%
%TO.N,SPIKE_OFF_BL*%
X19620000Y-62960000D03*
%TO.P,J_FPGA,9*%
%TO.N,SPIKE_ON_BR*%
X22160000Y-65500000D03*
%TO.P,J_FPGA,10*%
%TO.N,SPIKE_OFF_BR*%
X22160000Y-62960000D03*
%TD*%
D13*
%TO.P,J_DEBUG,1*%
%TO.N,GND*%
X26500000Y-65500000D03*
D14*
%TO.P,J_DEBUG,2*%
%TO.N,VREF*%
X29040000Y-65500000D03*
%TO.P,J_DEBUG,3*%
%TO.N,VPHOTO_TL*%
X31580000Y-65500000D03*
%TO.P,J_DEBUG,4*%
%TO.N,VPHOTO_TR*%
X34120000Y-65500000D03*
%TO.P,J_DEBUG,5*%
%TO.N,VPHOTO_BL*%
X36660000Y-65500000D03*
%TO.P,J_DEBUG,6*%
%TO.N,VPHOTO_BR*%
X39200000Y-65500000D03*
%TD*%
D15*
%TO.N,GND*%
X18682900Y-56415200D03*
X28682800Y-49893200D03*
X40633000Y-56095900D03*
X40499400Y-59446800D03*
%TO.N,3V3*%
X38297900Y-57723900D03*
X38599100Y-54840500D03*
X4450000Y-54962900D03*
X35326000Y-56745000D03*
%TO.N,3V3_ANALOG*%
X44975000Y-42833600D03*
X33312400Y-42700900D03*
X3158300Y-15708000D03*
X10881800Y-13472700D03*
X41725000Y-48299600D03*
X33275700Y-4508500D03*
X40461000Y-9454700D03*
X15217900Y-4912500D03*
X21475000Y-41615700D03*
%TO.N,VREF*%
X32544400Y-41219400D03*
X45881100Y-14873400D03*
X19825000Y-39568000D03*
X42579600Y-41165800D03*
X9406100Y-39482300D03*
X34224900Y-32687500D03*
%TO.N,LED_K*%
X19556000Y-33462500D03*
%TO.N,NET_Q1_DRAIN*%
X32437500Y-31172000D03*
X19094500Y-27687500D03*
%TO.N,NET_REXT_OFF_BL*%
X27733400Y-55736000D03*
X31311900Y-57492200D03*
%TO.N,NET_REXT_OFF_BR*%
X38228700Y-56555800D03*
X42762000Y-57318700D03*
%TO.N,NET_REXT_OFF_TL*%
X2456600Y-51161200D03*
X7818500Y-57534700D03*
%TO.N,NET_REXT_OFF_TR*%
X19307100Y-57791800D03*
X15828200Y-55741600D03*
%TO.N,NET_REXT_ON_BL*%
X31320500Y-52427800D03*
X29402500Y-51465600D03*
%TO.N,NET_REXT_ON_TL*%
X4201300Y-51003100D03*
X7821100Y-52356300D03*
%TO.N,NET_REXT_ON_TR*%
X15600000Y-50973300D03*
X19226200Y-51877600D03*
%TO.N,NET_TIA_IN_BL*%
X20772700Y-24762500D03*
X6680800Y-22669100D03*
%TO.N,NET_TIA_IN_BR*%
X27750000Y-24387900D03*
X43329900Y-23554400D03*
X41675000Y-21340800D03*
%TO.N,NET_TIA_IN_TL*%
X7177100Y-13572900D03*
X20784300Y-15987500D03*
%TO.N,NET_TIA_IN_TR*%
X41676400Y-11760400D03*
X28015000Y-15149600D03*
%TO.N,RAW_OFF_BL*%
X28568100Y-54120300D03*
X34802000Y-45607700D03*
%TO.N,RAW_OFF_TL*%
X2685000Y-51943000D03*
X8722200Y-45518100D03*
%TO.N,RAW_OFF_TR*%
X20665400Y-51600300D03*
X16692300Y-55648300D03*
%TO.N,RAW_ON_BL*%
X28525000Y-42807100D03*
X26741000Y-41757400D03*
%TO.N,RAW_ON_TR*%
X17290000Y-42830000D03*
X16574400Y-51725600D03*
%TO.N,SPIKE_OFF_BR*%
X42605500Y-60526500D03*
%TO.N,SPIKE_OFF_TL*%
X10509000Y-59853200D03*
%TO.N,SPIKE_ON_BL*%
X31105800Y-55944700D03*
X18548600Y-61382000D03*
%TO.N,SPIKE_ON_BR*%
X42586300Y-55938700D03*
%TO.N,SPIKE_ON_TL*%
X9156800Y-55778000D03*
%TO.N,SPIKE_ON_TR*%
X20371300Y-56077000D03*
X18649800Y-58875300D03*
%TO.N,VPHOTO_BL*%
X8506600Y-29483900D03*
X29197600Y-36032600D03*
%TO.N,VPHOTO_BR*%
X41725000Y-39025000D03*
%TO.N,VPHOTO_TL*%
X6725000Y-37023700D03*
%TO.N,VPHOTO_TR*%
X37062400Y-40843400D03*
X18225000Y-37069700D03*
X39269300Y-18233000D03*
%TO.N,VTH_OFF*%
X11665200Y-47364600D03*
X31824600Y-47335500D03*
X21944600Y-48702800D03*
X38022400Y-42998700D03*
X42737100Y-46909000D03*
%TO.N,VTH_ON*%
X29757300Y-44231100D03*
X15272700Y-42840400D03*
X6355300Y-44353200D03*
X38735800Y-44257700D03*
%TD*%
%TO.N,GND*%
D16*
X18038900Y-59499600D02*
X19076400Y-59499600D01*
X18038900Y-57059200D02*
X18038900Y-59499600D01*
X18266600Y-62024200D02*
X17946900Y-61704500D01*
X40499400Y-59446800D02*
X40632900Y-59313300D01*
X19076400Y-59499600D02*
X28682800Y-49893200D01*
X14129300Y-64234400D02*
X13151700Y-65212000D01*
X18842200Y-62024200D02*
X21419600Y-59446800D01*
X18266600Y-62024200D02*
X18842200Y-62024200D01*
X18682900Y-56415200D02*
X18038900Y-57059200D01*
X18266600Y-64234400D02*
X14129300Y-64234400D01*
X40632900Y-56095900D02*
X40633000Y-56095900D01*
X18266600Y-64234400D02*
X18266600Y-62024200D01*
X13151700Y-65212000D02*
X13151700Y-65500000D01*
X12000000Y-65500000D02*
X13151700Y-65500000D01*
X21419600Y-59446800D02*
X40499400Y-59446800D01*
X17946900Y-61704500D02*
X17946900Y-59591600D01*
X40632900Y-59313300D02*
X40632900Y-56095900D01*
X24082700Y-64234400D02*
X18266600Y-64234400D01*
X26500000Y-65500000D02*
X25348300Y-65500000D01*
X25348300Y-65500000D02*
X24082700Y-64234400D01*
X17946900Y-59591600D02*
X18038900Y-59499600D01*
%TO.N,3V3*%
X9899200Y-55616600D02*
X9899200Y-60859200D01*
X8511800Y-57692300D02*
X8511800Y-55571000D01*
X7569400Y-58136400D02*
X8067700Y-58136400D01*
X37042100Y-56397500D02*
X37042100Y-56745000D01*
X8067700Y-58136400D02*
X8511800Y-57692300D01*
X8511800Y-55571000D02*
X8918700Y-55164100D01*
X4450000Y-55017000D02*
X7569400Y-58136400D01*
X9899200Y-60859200D02*
X12000000Y-62960000D01*
X38021000Y-57723900D02*
X38297900Y-57723900D01*
X9446700Y-55164100D02*
X9899200Y-55616600D01*
X37042100Y-56745000D02*
X38021000Y-57723900D01*
X38599100Y-54840500D02*
X37042100Y-56397500D01*
X37042100Y-56745000D02*
X35326000Y-56745000D01*
X4450000Y-54962900D02*
X4450000Y-55017000D01*
X8918700Y-55164100D02*
X9446700Y-55164100D01*
%TO.N,3V3_ANALOG*%
X44975000Y-42833600D02*
X44975000Y-45553600D01*
X29493700Y-42700900D02*
X27933700Y-41140900D01*
X44975000Y-45553600D02*
X42229000Y-48299600D01*
X33275700Y-4508500D02*
X35514800Y-4508500D01*
X42229000Y-48299600D02*
X41725000Y-48299600D01*
X10330200Y-9800200D02*
X15217900Y-4912500D01*
X10330200Y-12921100D02*
X10330200Y-9800200D01*
X33312400Y-42700900D02*
X29493700Y-42700900D01*
X10330200Y-12921100D02*
X10881800Y-13472700D01*
X5945200Y-12921100D02*
X10330200Y-12921100D01*
X3158300Y-15708000D02*
X5945200Y-12921100D01*
X21949800Y-41140900D02*
X21475000Y-41615700D01*
X33631000Y-42382300D02*
X44523700Y-42382300D01*
X44523700Y-42382300D02*
X44975000Y-42833600D01*
X15217900Y-4912500D02*
X32871700Y-4912500D01*
X32871700Y-4912500D02*
X33275700Y-4508500D01*
X27933700Y-41140900D02*
X21949800Y-41140900D01*
X33312400Y-42700900D02*
X33631000Y-42382300D01*
X35514800Y-4508500D02*
X40461000Y-9454700D01*
%TO.N,VREF*%
X32544400Y-41219400D02*
X32782300Y-41457300D01*
X45881100Y-22434300D02*
X45881100Y-14873400D01*
X30893000Y-39568000D02*
X19825000Y-39568000D01*
X32782300Y-41457300D02*
X37395200Y-41457300D01*
X19825000Y-39568000D02*
X19739300Y-39482300D01*
X37395200Y-41457300D02*
X37686700Y-41165800D01*
X34224900Y-32687500D02*
X35627900Y-32687500D01*
X37686700Y-36149300D02*
X34224900Y-32687500D01*
X37686700Y-41165800D02*
X42579600Y-41165800D01*
X35627900Y-32687500D02*
X45881100Y-22434300D01*
X32544400Y-41219400D02*
X30893000Y-39568000D01*
X37686700Y-41165800D02*
X37686700Y-36149300D01*
X19739300Y-39482300D02*
X9406100Y-39482300D01*
%TO.N,LED_K*%
D17*
X24250000Y-33500000D02*
X24212500Y-33462500D01*
X24212500Y-33462500D02*
X19556000Y-33462500D01*
%TO.N,NET_Q1_DRAIN*%
D10*
X28953000Y-27687500D02*
X32437500Y-31172000D01*
X19094500Y-27687500D02*
X28953000Y-27687500D01*
%TO.N,NET_REXT_OFF_BL*%
X27733400Y-55736000D02*
X29489600Y-57492200D01*
X29489600Y-57492200D02*
X31311900Y-57492200D01*
%TO.N,NET_REXT_OFF_BR*%
X39245000Y-55539500D02*
X38228700Y-56555800D01*
X40982800Y-55539500D02*
X39245000Y-55539500D01*
X42762000Y-57318700D02*
X40982800Y-55539500D01*
%TO.N,NET_REXT_OFF_TL*%
X2456600Y-51161200D02*
X2133300Y-51484500D01*
X4695000Y-54411200D02*
X7818500Y-57534700D01*
X4373100Y-54411200D02*
X4695000Y-54411200D01*
X2133300Y-51484500D02*
X2133300Y-52171400D01*
X2133300Y-52171400D02*
X4373100Y-54411200D01*
%TO.N,NET_REXT_OFF_TR*%
X17197900Y-56220600D02*
X16307200Y-56220600D01*
X19307100Y-56201500D02*
X18955100Y-55849500D01*
X16307200Y-56220600D02*
X15828200Y-55741600D01*
X18955100Y-55849500D02*
X17569000Y-55849500D01*
X17569000Y-55849500D02*
X17197900Y-56220600D01*
X19307100Y-57791800D02*
X19307100Y-56201500D01*
%TO.N,NET_REXT_ON_BL*%
X29402500Y-51465600D02*
X30358300Y-51465600D01*
X30358300Y-51465600D02*
X31320500Y-52427800D01*
%TO.N,NET_REXT_ON_TL*%
X4201300Y-51003100D02*
X6467900Y-51003100D01*
X6467900Y-51003100D02*
X7821100Y-52356300D01*
%TO.N,NET_REXT_ON_TR*%
X18321900Y-50973300D02*
X15600000Y-50973300D01*
X19226200Y-51877600D02*
X18321900Y-50973300D01*
%TO.N,NET_TIA_IN_BL*%
D17*
X20772700Y-24762500D02*
X18679300Y-22669100D01*
X18679300Y-22669100D02*
X6680800Y-22669100D01*
%TO.N,NET_TIA_IN_BR*%
X39516000Y-24387900D02*
X41675000Y-22228900D01*
X41675000Y-22228900D02*
X41675000Y-21340800D01*
X43000500Y-23554400D02*
X41675000Y-22228900D01*
X27750000Y-24387900D02*
X39516000Y-24387900D01*
X43329900Y-23554400D02*
X43000500Y-23554400D01*
%TO.N,NET_TIA_IN_TL*%
X9591700Y-15987500D02*
X20784300Y-15987500D01*
X7177100Y-13572900D02*
X9591700Y-15987500D01*
%TO.N,NET_TIA_IN_TR*%
X38287200Y-15149600D02*
X41676400Y-11760400D01*
X28015000Y-15149600D02*
X38287200Y-15149600D01*
%TO.N,RAW_OFF_BL*%
X34416100Y-45607700D02*
X34802000Y-45607700D01*
X28568100Y-54120300D02*
X28568100Y-51455700D01*
X28568100Y-51455700D02*
X34416100Y-45607700D01*
%TO.N,RAW_OFF_TL*%
X3350200Y-50890100D02*
X8722200Y-45518100D01*
X2685000Y-51943000D02*
X3350200Y-51277800D01*
X3350200Y-51277800D02*
X3350200Y-50890100D01*
%TO.N,RAW_OFF_TR*%
X16692300Y-55648300D02*
X20665400Y-51675200D01*
X20665400Y-51675200D02*
X20665400Y-51600300D01*
%TO.N,RAW_ON_BL*%
X26741000Y-41757400D02*
X27475300Y-41757400D01*
X27475300Y-41757400D02*
X28525000Y-42807100D01*
%TO.N,RAW_ON_TR*%
X11056300Y-47631800D02*
X11056300Y-47151700D01*
X13059100Y-45148900D02*
X14971100Y-45148900D01*
X14971100Y-45148900D02*
X17290000Y-42830000D01*
X16574400Y-51725600D02*
X15150100Y-51725600D01*
X15150100Y-51725600D02*
X11056300Y-47631800D01*
X11056300Y-47151700D02*
X13059100Y-45148900D01*
%TO.N,SPIKE_OFF_BR*%
X24593500Y-60526500D02*
X42605500Y-60526500D01*
X22160000Y-62960000D02*
X24593500Y-60526500D01*
%TO.N,SPIKE_OFF_TL*%
X11433200Y-59853200D02*
X10509000Y-59853200D01*
X14540000Y-62960000D02*
X11433200Y-59853200D01*
%TO.N,SPIKE_ON_BL*%
X31105800Y-55944700D02*
X30280300Y-55119200D01*
X24811400Y-55119200D02*
X18548600Y-61382000D01*
X30280300Y-55119200D02*
X24811400Y-55119200D01*
%TO.N,SPIKE_ON_BR*%
X31827400Y-61103300D02*
X42858100Y-61103300D01*
X43338700Y-60622700D02*
X43338700Y-56691100D01*
X22160000Y-65500000D02*
X23286700Y-66626700D01*
X43338700Y-56691100D02*
X42586300Y-55938700D01*
X27628500Y-66494600D02*
X27628500Y-65302200D01*
X27628500Y-65302200D02*
X31827400Y-61103300D01*
X23286700Y-66626700D02*
X27496400Y-66626700D01*
X42858100Y-61103300D02*
X43338700Y-60622700D01*
X27496400Y-66626700D02*
X27628500Y-66494600D01*
%TO.N,SPIKE_ON_TL*%
X9156900Y-64748200D02*
X9156900Y-55778000D01*
X11035400Y-66626700D02*
X9156900Y-64748200D01*
X14540000Y-65500000D02*
X13413300Y-66626700D01*
X9156900Y-55778000D02*
X9156800Y-55778000D01*
X13413300Y-66626700D02*
X11035400Y-66626700D01*
%TO.N,SPIKE_ON_TR*%
X19040100Y-58875300D02*
X18649800Y-58875300D01*
X20371300Y-57544100D02*
X19040100Y-58875300D01*
X20371300Y-56077000D02*
X20371300Y-57544100D01*
%TO.N,VPHOTO_BL*%
X29197600Y-36032600D02*
X15055300Y-36032600D01*
X15055300Y-36032600D02*
X8506600Y-29483900D01*
%TO.N,VPHOTO_BR*%
X42021100Y-39025000D02*
X41725000Y-39025000D01*
X45559200Y-59140800D02*
X45559200Y-42563100D01*
X45559200Y-42563100D02*
X42021100Y-39025000D01*
X39200000Y-65500000D02*
X45559200Y-59140800D01*
%TO.N,VPHOTO_TL*%
X6725000Y-37023700D02*
X1756600Y-41992100D01*
X30026500Y-67053500D02*
X31580000Y-65500000D01*
X10847600Y-67053500D02*
X30026500Y-67053500D01*
X1756600Y-57962500D02*
X10847600Y-67053500D01*
X1756600Y-41992100D02*
X1756600Y-57962500D01*
%TO.N,VPHOTO_TR*%
X33288700Y-37069700D02*
X37062400Y-40843400D01*
X41943700Y-24131100D02*
X43568800Y-24131100D01*
X43949300Y-22785000D02*
X39397300Y-18233000D01*
X43568800Y-24131100D02*
X43949300Y-23750600D01*
X18225000Y-37069700D02*
X33288700Y-37069700D01*
X39397300Y-18233000D02*
X39269300Y-18233000D01*
X43949300Y-23750600D02*
X43949300Y-22785000D01*
X33288700Y-32786100D02*
X41943700Y-24131100D01*
X33288700Y-37069700D02*
X33288700Y-32786100D01*
%TO.N,VTH_OFF*%
X39313600Y-44531400D02*
X38820800Y-45024200D01*
X41691200Y-46909000D02*
X42737100Y-46909000D01*
X38820800Y-45024200D02*
X34135900Y-45024200D01*
X30457300Y-48702800D02*
X21944600Y-48702800D01*
X39313600Y-44531400D02*
X41691200Y-46909000D01*
X39313600Y-44531400D02*
X39313600Y-43958000D01*
X34135900Y-45024200D02*
X31824600Y-47335500D01*
X31824600Y-47335500D02*
X30457300Y-48702800D01*
X21944600Y-48702800D02*
X13003400Y-48702800D01*
X13003400Y-48702800D02*
X11665200Y-47364600D01*
X39313600Y-43958000D02*
X38354300Y-42998700D01*
X38354300Y-42998700D02*
X38022400Y-42998700D01*
%TO.N,VTH_ON*%
X7868100Y-42840400D02*
X6355300Y-44353200D01*
X38709200Y-44231100D02*
X38735800Y-44257700D01*
X26385700Y-42217600D02*
X28399200Y-44231100D01*
X15272700Y-42840400D02*
X7868100Y-42840400D01*
X15895500Y-42217600D02*
X26385700Y-42217600D01*
X15272700Y-42840400D02*
X15895500Y-42217600D01*
X29757300Y-44231100D02*
X38709200Y-44231100D01*
X28399200Y-44231100D02*
X29757300Y-44231100D01*
%TD*%
%TA.AperFunction,Conductor*%
%TO.N,GND*%
G36*
X30661786Y-61171685D02*
G01*
X30707541Y-61224489D01*
X30717485Y-61293647D01*
X30688460Y-61357203D01*
X30682428Y-61363681D01*
X27809534Y-64236573D01*
X27748211Y-64270058D01*
X27678519Y-64265074D01*
X27647542Y-64248159D01*
X27592089Y-64206647D01*
X27592086Y-64206645D01*
X27457379Y-64156403D01*
X27457372Y-64156401D01*
X27397844Y-64150000D01*
X26750000Y-64150000D01*
X26750000Y-65066988D01*
X26692993Y-65034075D01*
X26565826Y-65000000D01*
X26434174Y-65000000D01*
X26307007Y-65034075D01*
X26250000Y-65066988D01*
X26250000Y-64150000D01*
X25602155Y-64150000D01*
X25542627Y-64156401D01*
X25542620Y-64156403D01*
X25407913Y-64206645D01*
X25407906Y-64206649D01*
X25292812Y-64292809D01*
X25292809Y-64292812D01*
X25206649Y-64407906D01*
X25206645Y-64407913D01*
X25156403Y-64542620D01*
X25156401Y-64542627D01*
X25150000Y-64602155D01*
X25150000Y-65250000D01*
X26066988Y-65250000D01*
X26034075Y-65307007D01*
X26000000Y-65434174D01*
X26000000Y-65565826D01*
X26034075Y-65692993D01*
X26066988Y-65750000D01*
X25150000Y-65750000D01*
X25150000Y-65877200D01*
X25130315Y-65944239D01*
X25077511Y-65989994D01*
X25026000Y-66001200D01*
X23597153Y-66001200D01*
X23530114Y-65981515D01*
X23509472Y-65964881D01*
X23502428Y-65957837D01*
X23468943Y-65896514D01*
X23472178Y-65831837D01*
X23477246Y-65816243D01*
X23510500Y-65606287D01*
X23510500Y-65393713D01*
X23477246Y-65183757D01*
X23411557Y-64981588D01*
X23315051Y-64792184D01*
X23315049Y-64792181D01*
X23315048Y-64792179D01*
X23227542Y-64671736D01*
X23190109Y-64620214D01*
X23190105Y-64620209D01*
X23039786Y-64469890D01*
X22867820Y-64344951D01*
X22867115Y-64344591D01*
X22859054Y-64340485D01*
X22808259Y-64292512D01*
X22791463Y-64224692D01*
X22813999Y-64158556D01*
X22859054Y-64119515D01*
X22867816Y-64115051D01*
X22957020Y-64050241D01*
X23039786Y-63990109D01*
X23039788Y-63990106D01*
X23039792Y-63990104D01*
X23190104Y-63839792D01*
X23190106Y-63839788D01*
X23190109Y-63839786D01*
X23315048Y-63667820D01*
X23315047Y-63667820D01*
X23315051Y-63667816D01*
X23411557Y-63478412D01*
X23477246Y-63276243D01*
X23510500Y-63066287D01*
X23510500Y-62853713D01*
X23477246Y-62643757D01*
X23472178Y-62628159D01*
X23470183Y-62558318D01*
X23502426Y-62502163D01*
X24816272Y-61188319D01*
X24877595Y-61154834D01*
X24903953Y-61152000D01*
X30594747Y-61152000D01*
X30661786Y-61171685D01*
G37*
%TD.AperFunction*%
%TA.AperFunction,Conductor*%
G36*
X15881444Y-63613999D02*
G01*
X15920486Y-63659056D01*
X15924951Y-63667820D01*
X16049890Y-63839786D01*
X16200213Y-63990109D01*
X16372182Y-64115050D01*
X16380946Y-64119516D01*
X16431742Y-64167491D01*
X16448536Y-64235312D01*
X16425998Y-64301447D01*
X16380946Y-64340484D01*
X16372182Y-64344949D01*
X16200213Y-64469890D01*
X16049890Y-64620213D01*
X15924949Y-64792182D01*
X15920484Y-64800946D01*
X15872509Y-64851742D01*
X15804688Y-64868536D01*
X15738553Y-64845998D01*
X15699516Y-64800946D01*
X15695050Y-64792182D01*
X15570109Y-64620213D01*
X15419786Y-64469890D01*
X15247820Y-64344951D01*
X15247115Y-64344591D01*
X15239054Y-64340485D01*
X15188259Y-64292512D01*
X15171463Y-64224692D01*
X15193999Y-64158556D01*
X15239054Y-64119515D01*
X15247816Y-64115051D01*
X15337020Y-64050241D01*
X15419786Y-63990109D01*
X15419788Y-63990106D01*
X15419792Y-63990104D01*
X15570104Y-63839792D01*
X15570106Y-63839788D01*
X15570109Y-63839786D01*
X15695048Y-63667820D01*
X15695047Y-63667820D01*
X15695051Y-63667816D01*
X15699514Y-63659054D01*
X15747488Y-63608259D01*
X15815308Y-63591463D01*
X15881444Y-63613999D01*
G37*
%TD.AperFunction*%
%TA.AperFunction,Conductor*%
G36*
X18421444Y-63613999D02*
G01*
X18460486Y-63659056D01*
X18464951Y-63667820D01*
X18589890Y-63839786D01*
X18740213Y-63990109D01*
X18912182Y-64115050D01*
X18920946Y-64119516D01*
X18971742Y-64167491D01*
X18988536Y-64235312D01*
X18965998Y-64301447D01*
X18920946Y-64340484D01*
X18912182Y-64344949D01*
X18740213Y-64469890D01*
X18589890Y-64620213D01*
X18464949Y-64792182D01*
X18460484Y-64800946D01*
X18412509Y-64851742D01*
X18344688Y-64868536D01*
X18278553Y-64845998D01*
X18239516Y-64800946D01*
X18235050Y-64792182D01*
X18110109Y-64620213D01*
X17959786Y-64469890D01*
X17787820Y-64344951D01*
X17787115Y-64344591D01*
X17779054Y-64340485D01*
X17728259Y-64292512D01*
X17711463Y-64224692D01*
X17733999Y-64158556D01*
X17779054Y-64119515D01*
X17787816Y-64115051D01*
X17877020Y-64050241D01*
X17959786Y-63990109D01*
X17959788Y-63990106D01*
X17959792Y-63990104D01*
X18110104Y-63839792D01*
X18110106Y-63839788D01*
X18110109Y-63839786D01*
X18235048Y-63667820D01*
X18235047Y-63667820D01*
X18235051Y-63667816D01*
X18239514Y-63659054D01*
X18287488Y-63608259D01*
X18355308Y-63591463D01*
X18421444Y-63613999D01*
G37*
%TD.AperFunction*%
%TA.AperFunction,Conductor*%
G36*
X20961444Y-63613999D02*
G01*
X21000486Y-63659056D01*
X21004951Y-63667820D01*
X21129890Y-63839786D01*
X21280213Y-63990109D01*
X21452182Y-64115050D01*
X21460946Y-64119516D01*
X21511742Y-64167491D01*
X21528536Y-64235312D01*
X21505998Y-64301447D01*
X21460946Y-64340484D01*
X21452182Y-64344949D01*
X21280213Y-64469890D01*
X21129890Y-64620213D01*
X21004949Y-64792182D01*
X21000484Y-64800946D01*
X20952509Y-64851742D01*
X20884688Y-64868536D01*
X20818553Y-64845998D01*
X20779516Y-64800946D01*
X20775050Y-64792182D01*
X20650109Y-64620213D01*
X20499786Y-64469890D01*
X20327820Y-64344951D01*
X20327115Y-64344591D01*
X20319054Y-64340485D01*
X20268259Y-64292512D01*
X20251463Y-64224692D01*
X20273999Y-64158556D01*
X20319054Y-64119515D01*
X20327816Y-64115051D01*
X20417020Y-64050241D01*
X20499786Y-63990109D01*
X20499788Y-63990106D01*
X20499792Y-63990104D01*
X20650104Y-63839792D01*
X20650106Y-63839788D01*
X20650109Y-63839786D01*
X20775048Y-63667820D01*
X20775047Y-63667820D01*
X20775051Y-63667816D01*
X20779514Y-63659054D01*
X20827488Y-63608259D01*
X20895308Y-63591463D01*
X20961444Y-63613999D01*
G37*
%TD.AperFunction*%
%TA.AperFunction,Conductor*%
G36*
X13341444Y-63613999D02*
G01*
X13380486Y-63659056D01*
X13384951Y-63667820D01*
X13509890Y-63839786D01*
X13660213Y-63990109D01*
X13832182Y-64115050D01*
X13840946Y-64119516D01*
X13891742Y-64167491D01*
X13908536Y-64235312D01*
X13885998Y-64301447D01*
X13840946Y-64340484D01*
X13832182Y-64344949D01*
X13660215Y-64469889D01*
X13546285Y-64583819D01*
X13484962Y-64617303D01*
X13415270Y-64612319D01*
X13359337Y-64570447D01*
X13342422Y-64539470D01*
X13293354Y-64407913D01*
X13293350Y-64407906D01*
X13207190Y-64292812D01*
X13207187Y-64292809D01*
X13092093Y-64206649D01*
X13092088Y-64206646D01*
X12960528Y-64157577D01*
X12904595Y-64115705D01*
X12880178Y-64050241D01*
X12895030Y-63981968D01*
X12916175Y-63953720D01*
X13030104Y-63839792D01*
X13155051Y-63667816D01*
X13159514Y-63659054D01*
X13207488Y-63608259D01*
X13275308Y-63591463D01*
X13341444Y-63613999D01*
G37*
%TD.AperFunction*%
%TA.AperFunction,Conductor*%
G36*
X39356923Y-45475166D02*
G01*
X39401281Y-45503671D01*
X41202216Y-47304606D01*
X41202245Y-47304637D01*
X41292464Y-47394856D01*
X41292467Y-47394858D01*
X41311018Y-47407253D01*
X41355823Y-47460865D01*
X41364532Y-47530190D01*
X41334378Y-47593217D01*
X41311020Y-47613457D01*
X41214713Y-47677808D01*
X41214707Y-47677813D01*
X41103213Y-47789307D01*
X41103210Y-47789311D01*
X41015609Y-47920414D01*
X41015602Y-47920427D01*
X40955264Y-48066098D01*
X40955261Y-48066110D01*
X40924500Y-48220753D01*
X40924500Y-48378446D01*
X40955261Y-48533089D01*
X40955264Y-48533101D01*
X41015602Y-48678772D01*
X41015609Y-48678785D01*
X41103210Y-48809888D01*
X41103213Y-48809892D01*
X41214707Y-48921386D01*
X41214711Y-48921389D01*
X41345814Y-49008990D01*
X41345827Y-49008997D01*
X41491498Y-49069335D01*
X41491503Y-49069337D01*
X41646153Y-49100099D01*
X41646156Y-49100100D01*
X41646158Y-49100100D01*
X41803844Y-49100100D01*
X41803845Y-49100099D01*
X41958497Y-49069337D01*
X42104179Y-49008994D01*
X42161044Y-48970997D01*
X42227721Y-48950120D01*
X42229935Y-48950100D01*
X42293071Y-48950100D01*
X42377615Y-48933282D01*
X42418744Y-48925101D01*
X42537127Y-48876065D01*
X42643669Y-48804877D01*
X44722019Y-46726527D01*
X44783342Y-46693042D01*
X44853034Y-46698026D01*
X44908967Y-46739898D01*
X44933384Y-46805362D01*
X44933700Y-46814208D01*
X44933700Y-58830348D01*
X44914015Y-58897387D01*
X44897381Y-58918029D01*
X44175881Y-59639529D01*
X44114558Y-59673014D01*
X44044866Y-59668030D01*
X43988933Y-59626158D01*
X43964516Y-59560694D01*
X43964200Y-59551848D01*
X43964200Y-56629494D01*
X43960184Y-56609308D01*
X43960183Y-56609303D01*
X43959235Y-56604535D01*
X43940163Y-56508649D01*
X43933155Y-56491731D01*
X43930913Y-56486318D01*
X43893014Y-56394820D01*
X43893007Y-56394807D01*
X43824558Y-56292367D01*
X43824555Y-56292363D01*
X43734337Y-56202145D01*
X43734306Y-56202116D01*
X43412093Y-55879903D01*
X43378608Y-55818580D01*
X43378187Y-55816564D01*
X43356037Y-55705203D01*
X43303239Y-55577736D01*
X43295697Y-55559527D01*
X43295690Y-55559514D01*
X43208089Y-55428411D01*
X43208086Y-55428407D01*
X43096591Y-55316912D01*
X43096588Y-55316910D01*
X42965485Y-55229309D01*
X42965472Y-55229302D01*
X42819801Y-55168964D01*
X42819789Y-55168961D01*
X42665145Y-55138200D01*
X42665142Y-55138200D01*
X42507458Y-55138200D01*
X42507455Y-55138200D01*
X42352810Y-55168961D01*
X42352798Y-55168964D01*
X42207127Y-55229302D01*
X42207114Y-55229309D01*
X42076011Y-55316910D01*
X42076009Y-55316912D01*
X41964513Y-55428407D01*
X41964511Y-55428409D01*
X41950894Y-55448789D01*
X41897280Y-55493593D01*
X41827955Y-55502299D01*
X41764928Y-55472143D01*
X41760112Y-55467577D01*
X41470390Y-55177855D01*
X41470388Y-55177852D01*
X41351517Y-55058981D01*
X41351516Y-55058980D01*
X41263671Y-55008263D01*
X41263670Y-55008262D01*
X41214590Y-54979925D01*
X41214589Y-54979924D01*
X41184505Y-54971863D01*
X41061857Y-54938999D01*
X40903743Y-54938999D01*
X40896147Y-54938999D01*
X40896131Y-54939000D01*
X39523600Y-54939000D01*
X39456561Y-54919315D01*
X39410806Y-54866511D01*
X39399600Y-54815000D01*
X39399600Y-54761655D01*
X39399599Y-54761653D01*
X39391407Y-54720470D01*
X39368837Y-54607003D01*
X39368835Y-54606998D01*
X39308497Y-54461327D01*
X39308490Y-54461314D01*
X39220889Y-54330211D01*
X39220886Y-54330207D01*
X39109392Y-54218713D01*
X39109388Y-54218710D01*
X38978285Y-54131109D01*
X38978272Y-54131102D01*
X38832601Y-54070764D01*
X38832589Y-54070761D01*
X38677945Y-54040000D01*
X38677942Y-54040000D01*
X38520258Y-54040000D01*
X38520255Y-54040000D01*
X38365610Y-54070761D01*
X38365598Y-54070764D01*
X38219927Y-54131102D01*
X38219914Y-54131109D01*
X38088811Y-54218710D01*
X38088807Y-54218713D01*
X37977313Y-54330207D01*
X37977310Y-54330211D01*
X37889709Y-54461314D01*
X37889702Y-54461327D01*
X37829364Y-54606998D01*
X37829361Y-54607008D01*
X37816020Y-54674079D01*
X37783635Y-54735990D01*
X37782084Y-54737568D01*
X36536825Y-55982828D01*
X36536824Y-55982829D01*
X36536823Y-55982831D01*
X36499031Y-56039391D01*
X36445421Y-56084195D01*
X36395930Y-56094500D01*
X35830935Y-56094500D01*
X35763896Y-56074815D01*
X35762090Y-56073633D01*
X35705179Y-56035606D01*
X35705172Y-56035602D01*
X35559501Y-55975264D01*
X35559489Y-55975261D01*
X35404845Y-55944500D01*
X35404842Y-55944500D01*
X35247158Y-55944500D01*
X35247155Y-55944500D01*
X35092510Y-55975261D01*
X35092498Y-55975264D01*
X34946827Y-56035602D01*
X34946814Y-56035609D01*
X34815711Y-56123210D01*
X34815707Y-56123213D01*
X34704213Y-56234707D01*
X34704210Y-56234711D01*
X34616609Y-56365814D01*
X34616602Y-56365827D01*
X34556264Y-56511498D01*
X34556261Y-56511510D01*
X34525500Y-56666153D01*
X34525500Y-56823846D01*
X34556261Y-56978489D01*
X34556264Y-56978501D01*
X34616602Y-57124172D01*
X34616609Y-57124185D01*
X34704210Y-57255288D01*
X34704213Y-57255292D01*
X34815707Y-57366786D01*
X34815711Y-57366789D01*
X34946814Y-57454390D01*
X34946827Y-57454397D01*
X35092498Y-57514735D01*
X35092503Y-57514737D01*
X35247153Y-57545499D01*
X35247156Y-57545500D01*
X35247158Y-57545500D01*
X35404844Y-57545500D01*
X35404845Y-57545499D01*
X35559497Y-57514737D01*
X35705179Y-57454394D01*
X35762044Y-57416397D01*
X35828721Y-57395520D01*
X35830935Y-57395500D01*
X36721292Y-57395500D01*
X36788331Y-57415185D01*
X36808973Y-57431819D01*
X37606325Y-58229172D01*
X37606332Y-58229178D01*
X37712863Y-58300359D01*
X37712866Y-58300360D01*
X37712874Y-58300366D01*
X37740295Y-58311724D01*
X37780530Y-58338608D01*
X37787611Y-58345689D01*
X37918714Y-58433290D01*
X37918727Y-58433297D01*
X38064398Y-58493635D01*
X38064403Y-58493637D01*
X38219053Y-58524399D01*
X38219056Y-58524400D01*
X38219058Y-58524400D01*
X38376744Y-58524400D01*
X38376745Y-58524399D01*
X38531397Y-58493637D01*
X38677079Y-58433294D01*
X38808189Y-58345689D01*
X38919689Y-58234189D01*
X39007294Y-58103079D01*
X39067637Y-57957397D01*
X39098400Y-57802742D01*
X39098400Y-57645058D01*
X39098400Y-57645055D01*
X39098399Y-57645053D01*
X39092174Y-57613757D01*
X39067637Y-57490403D01*
X39043371Y-57431819D01*
X39007297Y-57344727D01*
X39007290Y-57344714D01*
X38919689Y-57213611D01*
X38919686Y-57213607D01*
X38891076Y-57184997D01*
X38857591Y-57123674D01*
X38862575Y-57053982D01*
X38875655Y-57028425D01*
X38906735Y-56981911D01*
X38938094Y-56934979D01*
X38998437Y-56789297D01*
X39029200Y-56634642D01*
X39029338Y-56633950D01*
X39061723Y-56572039D01*
X39063218Y-56570516D01*
X39457416Y-56176319D01*
X39518739Y-56142834D01*
X39545097Y-56140000D01*
X40682703Y-56140000D01*
X40749742Y-56159685D01*
X40770384Y-56176319D01*
X41927425Y-57333360D01*
X41960910Y-57394683D01*
X41961361Y-57396849D01*
X41992261Y-57552191D01*
X41992264Y-57552201D01*
X42052602Y-57697872D01*
X42052609Y-57697885D01*
X42140210Y-57828988D01*
X42140213Y-57828992D01*
X42251707Y-57940486D01*
X42251711Y-57940489D01*
X42382814Y-58028090D01*
X42382827Y-58028097D01*
X42528498Y-58088435D01*
X42528503Y-58088437D01*
X42613393Y-58105322D01*
X42675302Y-58137706D01*
X42709876Y-58198421D01*
X42713200Y-58226939D01*
X42713200Y-59602000D01*
X42693515Y-59669039D01*
X42640711Y-59714794D01*
X42589200Y-59726000D01*
X42526655Y-59726000D01*
X42372010Y-59756761D01*
X42371998Y-59756764D01*
X42226327Y-59817102D01*
X42226315Y-59817109D01*
X42132041Y-59880102D01*
X42065364Y-59900980D01*
X42063150Y-59901000D01*
X24661241Y-59901000D01*
X24661221Y-59900999D01*
X24655107Y-59900999D01*
X24531894Y-59900999D01*
X24431097Y-59921048D01*
X24431092Y-59921048D01*
X24411051Y-59925035D01*
X24394135Y-59932041D01*
X24394136Y-59932042D01*
X24297217Y-59972186D01*
X24297208Y-59972191D01*
X24194767Y-60040641D01*
X24194763Y-60040644D01*
X22617837Y-61617570D01*
X22556514Y-61651055D01*
X22491842Y-61647821D01*
X22476246Y-61642754D01*
X22304150Y-61615497D01*
X22266287Y-61609500D01*
X22053713Y-61609500D01*
X22015850Y-61615497D01*
X21843760Y-61642753D01*
X21641585Y-61708444D01*
X21452179Y-61804951D01*
X21280213Y-61929890D01*
X21129890Y-62080213D01*
X21004949Y-62252182D01*
X21000484Y-62260946D01*
X20952509Y-62311742D01*
X20884688Y-62328536D01*
X20818553Y-62305998D01*
X20779516Y-62260946D01*
X20775050Y-62252182D01*
X20650109Y-62080213D01*
X20499786Y-61929890D01*
X20327820Y-61804951D01*
X20138414Y-61708444D01*
X20138413Y-61708443D01*
X20138412Y-61708443D01*
X19936243Y-61642754D01*
X19936241Y-61642753D01*
X19936240Y-61642753D01*
X19764150Y-61615497D01*
X19726287Y-61609500D01*
X19513713Y-61609500D01*
X19508841Y-61609500D01*
X19508841Y-61608267D01*
X19446058Y-61595066D01*
X19396311Y-61546005D01*
X19380984Y-61477837D01*
X19404946Y-61412204D01*
X19417039Y-61398149D01*
X25034172Y-55781019D01*
X25095495Y-55747534D01*
X25121853Y-55744700D01*
X26817184Y-55744700D01*
X26884223Y-55764385D01*
X26929978Y-55817189D01*
X26938801Y-55844509D01*
X26963661Y-55969489D01*
X26963664Y-55969501D01*
X27024002Y-56115172D01*
X27024009Y-56115185D01*
X27111610Y-56246288D01*
X27111613Y-56246292D01*
X27223107Y-56357786D01*
X27223111Y-56357789D01*
X27354214Y-56445390D01*
X27354227Y-56445397D01*
X27499898Y-56505735D01*
X27499903Y-56505737D01*
X27554434Y-56516584D01*
X27655249Y-56536638D01*
X27717160Y-56569023D01*
X27718739Y-56570574D01*
X29004739Y-57856574D01*
X29004749Y-57856585D01*
X29009079Y-57860915D01*
X29009080Y-57860916D01*
X29120884Y-57972720D01*
X29194495Y-58015219D01*
X29257815Y-58051777D01*
X29410543Y-58092701D01*
X29410546Y-58092701D01*
X29576253Y-58092701D01*
X29576269Y-58092700D01*
X30732134Y-58092700D01*
X30799173Y-58112385D01*
X30801025Y-58113598D01*
X30932714Y-58201590D01*
X30932727Y-58201597D01*
X31070796Y-58258786D01*
X31078403Y-58261937D01*
X31233053Y-58292699D01*
X31233056Y-58292700D01*
X31233058Y-58292700D01*
X31390744Y-58292700D01*
X31390745Y-58292699D01*
X31545397Y-58261937D01*
X31691079Y-58201594D01*
X31822189Y-58113989D01*
X31933689Y-58002489D01*
X32021294Y-57871379D01*
X32081637Y-57725697D01*
X32112400Y-57571042D01*
X32112400Y-57413358D01*
X32112400Y-57413355D01*
X32112399Y-57413353D01*
X32096487Y-57333360D01*
X32081637Y-57258703D01*
X32080223Y-57255289D01*
X32021297Y-57113027D01*
X32021290Y-57113014D01*
X31933689Y-56981911D01*
X31933686Y-56981907D01*
X31822192Y-56870413D01*
X31822188Y-56870410D01*
X31691085Y-56782809D01*
X31691072Y-56782802D01*
X31656547Y-56768502D01*
X31602143Y-56724662D01*
X31580078Y-56658367D01*
X31597357Y-56590668D01*
X31616314Y-56566263D01*
X31727589Y-56454989D01*
X31815194Y-56323879D01*
X31875537Y-56178197D01*
X31906300Y-56023542D01*
X31906300Y-55865858D01*
X31906300Y-55865855D01*
X31906299Y-55865853D01*
X31901852Y-55843498D01*
X31875537Y-55711203D01*
X31859422Y-55672297D01*
X31815197Y-55565527D01*
X31815190Y-55565514D01*
X31727589Y-55434411D01*
X31727586Y-55434407D01*
X31616092Y-55322913D01*
X31616088Y-55322910D01*
X31484985Y-55235309D01*
X31484972Y-55235302D01*
X31339301Y-55174964D01*
X31339289Y-55174961D01*
X31228085Y-55152841D01*
X31166174Y-55120456D01*
X31164595Y-55118905D01*
X30770498Y-54724808D01*
X30770478Y-54724786D01*
X30679035Y-54633343D01*
X30651566Y-54614989D01*
X30610628Y-54587635D01*
X30610629Y-54587635D01*
X30610627Y-54587633D01*
X30576590Y-54564890D01*
X30576586Y-54564888D01*
X30576576Y-54564884D01*
X30496092Y-54531547D01*
X30462752Y-54517737D01*
X30462748Y-54517736D01*
X30462744Y-54517735D01*
X30370960Y-54499478D01*
X30370957Y-54499478D01*
X30341909Y-54493700D01*
X30341907Y-54493700D01*
X30341906Y-54493700D01*
X29461103Y-54493700D01*
X29394064Y-54474015D01*
X29348309Y-54421211D01*
X29338365Y-54352053D01*
X29339486Y-54345508D01*
X29368600Y-54199144D01*
X29368600Y-54041455D01*
X29368599Y-54041453D01*
X29346565Y-53930681D01*
X29337837Y-53886803D01*
X29277494Y-53741121D01*
X29214497Y-53646839D01*
X29193620Y-53580163D01*
X29193600Y-53577950D01*
X29193600Y-52390100D01*
X29213285Y-52323061D01*
X29266089Y-52277306D01*
X29317600Y-52266100D01*
X29481344Y-52266100D01*
X29481345Y-52266099D01*
X29635997Y-52235337D01*
X29778043Y-52176500D01*
X29781672Y-52174997D01*
X29781672Y-52174996D01*
X29781679Y-52174994D01*
X29781685Y-52174990D01*
X29913375Y-52086998D01*
X29980053Y-52066120D01*
X29982266Y-52066100D01*
X30058203Y-52066100D01*
X30125242Y-52085785D01*
X30145884Y-52102419D01*
X30485925Y-52442460D01*
X30519410Y-52503783D01*
X30519861Y-52505949D01*
X30550761Y-52661291D01*
X30550764Y-52661301D01*
X30611102Y-52806972D01*
X30611109Y-52806985D01*
X30698710Y-52938088D01*
X30698713Y-52938092D01*
X30810207Y-53049586D01*
X30810211Y-53049589D01*
X30941314Y-53137190D01*
X30941327Y-53137197D01*
X30988654Y-53156800D01*
X31087003Y-53197537D01*
X31241653Y-53228299D01*
X31241656Y-53228300D01*
X31241658Y-53228300D01*
X31399344Y-53228300D01*
X31399345Y-53228299D01*
X31553997Y-53197537D01*
X31699679Y-53137194D01*
X31830789Y-53049589D01*
X31942289Y-52938089D01*
X32029894Y-52806979D01*
X32090237Y-52661297D01*
X32121000Y-52506642D01*
X32121000Y-52348958D01*
X32121000Y-52348955D01*
X32120999Y-52348953D01*
X32107266Y-52279912D01*
X32090237Y-52194303D01*
X32061255Y-52124333D01*
X32029897Y-52048627D01*
X32029890Y-52048614D01*
X31942289Y-51917511D01*
X31942286Y-51917507D01*
X31830792Y-51806013D01*
X31830788Y-51806010D01*
X31699685Y-51718409D01*
X31699672Y-51718402D01*
X31554001Y-51658064D01*
X31553991Y-51658061D01*
X31398649Y-51627161D01*
X31336738Y-51594776D01*
X31335160Y-51593225D01*
X30845890Y-51103955D01*
X30845888Y-51103952D01*
X30727017Y-50985081D01*
X30727016Y-50985080D01*
X30622820Y-50924923D01*
X30622819Y-50924922D01*
X30590083Y-50906022D01*
X30533654Y-50890902D01*
X30437357Y-50865099D01*
X30342653Y-50865099D01*
X30275614Y-50845414D01*
X30229859Y-50792610D01*
X30219915Y-50723452D01*
X30248940Y-50659896D01*
X30254972Y-50653418D01*
X30735590Y-50172800D01*
X34490317Y-46418071D01*
X34551638Y-46384588D01*
X34602186Y-46384137D01*
X34651335Y-46393913D01*
X34723155Y-46408200D01*
X34723158Y-46408200D01*
X34880844Y-46408200D01*
X34880845Y-46408199D01*
X35035497Y-46377437D01*
X35163932Y-46324238D01*
X35181172Y-46317097D01*
X35181172Y-46317096D01*
X35181179Y-46317094D01*
X35312289Y-46229489D01*
X35423789Y-46117989D01*
X35511394Y-45986879D01*
X35571737Y-45841197D01*
X35575287Y-45823348D01*
X35589976Y-45749508D01*
X35622361Y-45687597D01*
X35683077Y-45653023D01*
X35711593Y-45649700D01*
X38882408Y-45649700D01*
X38882408Y-45649699D01*
X38957532Y-45634757D01*
X38957534Y-45634757D01*
X39003242Y-45625665D01*
X39003242Y-45625664D01*
X39003252Y-45625663D01*
X39036592Y-45611852D01*
X39117086Y-45578512D01*
X39169288Y-45543631D01*
X39219533Y-45510058D01*
X39225913Y-45503677D01*
X39287231Y-45470188D01*
X39356923Y-45475166D01*
G37*
%TD.AperFunction*%
%TA.AperFunction,Conductor*%
G36*
X21469289Y-49347985D02*
G01*
X21471141Y-49349198D01*
X21565421Y-49412194D01*
X21565423Y-49412195D01*
X21565427Y-49412197D01*
X21704850Y-49469947D01*
X21711103Y-49472537D01*
X21865753Y-49503299D01*
X21865756Y-49503300D01*
X21865758Y-49503300D01*
X22023444Y-49503300D01*
X22023445Y-49503299D01*
X22178097Y-49472537D01*
X22323779Y-49412194D01*
X22418059Y-49349198D01*
X22484736Y-49328320D01*
X22486950Y-49328300D01*
X29511548Y-49328300D01*
X29578587Y-49347985D01*
X29624342Y-49400789D01*
X29634286Y-49469947D01*
X29605261Y-49533503D01*
X29599230Y-49539979D01*
X28169370Y-50969839D01*
X28169367Y-50969842D01*
X28125804Y-51013404D01*
X28082242Y-51056966D01*
X28068790Y-51077100D01*
X28050942Y-51103811D01*
X28048234Y-51107864D01*
X28013788Y-51159413D01*
X27990269Y-51216191D01*
X27990270Y-51216192D01*
X27966638Y-51273246D01*
X27966635Y-51273256D01*
X27959141Y-51310930D01*
X27959142Y-51310931D01*
X27948028Y-51366810D01*
X27942830Y-51392941D01*
X27942820Y-51392990D01*
X27942600Y-51394093D01*
X27942600Y-53577950D01*
X27922915Y-53644989D01*
X27921702Y-53646841D01*
X27858709Y-53741115D01*
X27858702Y-53741128D01*
X27798364Y-53886798D01*
X27798361Y-53886810D01*
X27767600Y-54041453D01*
X27767600Y-54041458D01*
X27767600Y-54199142D01*
X27767600Y-54199144D01*
X27767599Y-54199144D01*
X27796714Y-54345508D01*
X27790487Y-54415100D01*
X27747624Y-54470277D01*
X27681734Y-54493522D01*
X27675097Y-54493700D01*
X24879141Y-54493700D01*
X24879121Y-54493699D01*
X24873007Y-54493699D01*
X24749794Y-54493699D01*
X24749792Y-54493699D01*
X24659183Y-54511723D01*
X24636454Y-54516243D01*
X24628947Y-54517737D01*
X24593614Y-54532373D01*
X24593613Y-54532373D01*
X24515121Y-54564884D01*
X24515108Y-54564891D01*
X24412667Y-54633341D01*
X24412663Y-54633344D01*
X21168415Y-57877593D01*
X21107092Y-57911078D01*
X21037400Y-57906094D01*
X20981467Y-57864222D01*
X20957050Y-57798758D01*
X20966174Y-57742457D01*
X20969939Y-57733369D01*
X20972763Y-57726552D01*
X20995199Y-57613757D01*
X20996800Y-57605707D01*
X20996800Y-57482493D01*
X20996800Y-56619350D01*
X21016485Y-56552311D01*
X21017698Y-56550459D01*
X21036387Y-56522489D01*
X21080694Y-56456179D01*
X21082841Y-56450997D01*
X21094367Y-56423166D01*
X21141037Y-56310497D01*
X21171800Y-56155842D01*
X21171800Y-55998158D01*
X21171800Y-55998155D01*
X21171799Y-55998153D01*
X21148277Y-55879903D01*
X21141037Y-55843503D01*
X21141035Y-55843498D01*
X21080697Y-55697827D01*
X21080690Y-55697814D01*
X20993089Y-55566711D01*
X20993086Y-55566707D01*
X20881592Y-55455213D01*
X20881588Y-55455210D01*
X20750485Y-55367609D01*
X20750472Y-55367602D01*
X20604801Y-55307264D01*
X20604789Y-55307261D01*
X20450145Y-55276500D01*
X20450142Y-55276500D01*
X20292458Y-55276500D01*
X20292455Y-55276500D01*
X20137810Y-55307261D01*
X20137798Y-55307264D01*
X19992127Y-55367602D01*
X19992114Y-55367609D01*
X19861011Y-55455210D01*
X19861007Y-55455213D01*
X19749513Y-55566707D01*
X19749510Y-55566711D01*
X19742144Y-55577736D01*
X19688532Y-55622541D01*
X19619207Y-55631248D01*
X19556179Y-55601094D01*
X19551361Y-55596526D01*
X19442690Y-55487855D01*
X19442688Y-55487852D01*
X19323817Y-55368981D01*
X19323816Y-55368980D01*
X19233629Y-55316911D01*
X19186885Y-55289923D01*
X19034157Y-55248999D01*
X18876043Y-55248999D01*
X18868447Y-55248999D01*
X18868431Y-55249000D01*
X18275552Y-55249000D01*
X18208513Y-55229315D01*
X18162758Y-55176511D01*
X18152814Y-55107353D01*
X18181839Y-55043797D01*
X18187871Y-55037319D01*
X18810090Y-54415100D01*
X20817694Y-52407494D01*
X20879015Y-52374011D01*
X20881135Y-52373569D01*
X20898897Y-52370037D01*
X21044579Y-52309694D01*
X21175689Y-52222089D01*
X21287189Y-52110589D01*
X21374794Y-51979479D01*
X21435137Y-51833797D01*
X21465900Y-51679142D01*
X21465900Y-51521458D01*
X21465900Y-51521455D01*
X21465899Y-51521453D01*
X21446151Y-51422175D01*
X21435137Y-51366803D01*
X21378233Y-51229423D01*
X21374797Y-51221127D01*
X21374790Y-51221114D01*
X21287189Y-51090011D01*
X21287186Y-51090007D01*
X21175692Y-50978513D01*
X21175688Y-50978510D01*
X21044585Y-50890909D01*
X21044572Y-50890902D01*
X20898901Y-50830564D01*
X20898889Y-50830561D01*
X20744245Y-50799800D01*
X20744242Y-50799800D01*
X20586558Y-50799800D01*
X20586555Y-50799800D01*
X20431910Y-50830561D01*
X20431898Y-50830564D01*
X20286227Y-50890902D01*
X20286214Y-50890909D01*
X20155111Y-50978510D01*
X20155107Y-50978513D01*
X20043613Y-51090007D01*
X20043610Y-51090011D01*
X19956009Y-51221114D01*
X19956001Y-51221129D01*
X19952566Y-51229423D01*
X19908723Y-51283825D01*
X19842428Y-51305887D01*
X19774729Y-51288605D01*
X19750326Y-51269647D01*
X19736492Y-51255813D01*
X19736488Y-51255810D01*
X19605385Y-51168209D01*
X19605372Y-51168202D01*
X19459701Y-51107864D01*
X19459691Y-51107861D01*
X19304349Y-51076961D01*
X19242438Y-51044576D01*
X19240860Y-51043025D01*
X18809490Y-50611655D01*
X18809488Y-50611652D01*
X18690617Y-50492781D01*
X18690616Y-50492780D01*
X18603804Y-50442660D01*
X18603804Y-50442659D01*
X18603800Y-50442658D01*
X18553685Y-50413723D01*
X18400957Y-50372799D01*
X18242843Y-50372799D01*
X18235247Y-50372799D01*
X18235231Y-50372800D01*
X16179766Y-50372800D01*
X16112727Y-50353115D01*
X16110875Y-50351902D01*
X15979185Y-50263909D01*
X15979172Y-50263902D01*
X15833501Y-50203564D01*
X15833489Y-50203561D01*
X15678845Y-50172800D01*
X15678842Y-50172800D01*
X15521158Y-50172800D01*
X15521155Y-50172800D01*
X15366510Y-50203561D01*
X15366498Y-50203564D01*
X15220827Y-50263902D01*
X15220814Y-50263909D01*
X15089711Y-50351510D01*
X15089707Y-50351513D01*
X14978213Y-50463007D01*
X14974347Y-50467719D01*
X14972902Y-50466533D01*
X14925973Y-50505744D01*
X14856647Y-50514444D01*
X14793623Y-50484282D01*
X14788815Y-50479724D01*
X13849072Y-49539981D01*
X13815587Y-49478658D01*
X13820571Y-49408966D01*
X13862443Y-49353033D01*
X13927907Y-49328616D01*
X13936753Y-49328300D01*
X21402250Y-49328300D01*
X21469289Y-49347985D01*
G37*
%TD.AperFunction*%
%TA.AperFunction,Conductor*%
G36*
X47003582Y-500729D02*
G01*
X47034697Y-502621D01*
X47293601Y-518369D01*
X47308446Y-520176D01*
X47590583Y-571961D01*
X47605107Y-575546D01*
X47833179Y-646672D01*
X47878931Y-660940D01*
X47892924Y-666250D01*
X48154460Y-784011D01*
X48167712Y-790968D01*
X48413160Y-939384D01*
X48425477Y-947887D01*
X48651264Y-1124800D01*
X48662466Y-1134726D01*
X48865273Y-1337533D01*
X48875199Y-1348735D01*
X49052112Y-1574522D01*
X49060615Y-1586839D01*
X49209031Y-1832287D01*
X49215988Y-1845539D01*
X49333749Y-2107075D01*
X49339059Y-2121068D01*
X49424452Y-2394888D01*
X49428038Y-2409419D01*
X49479822Y-2691546D01*
X49481630Y-2706403D01*
X49499271Y-2996417D01*
X49499500Y-3003946D01*
X49499500Y-66996053D01*
X49499271Y-67003582D01*
X49481630Y-67293596D01*
X49479822Y-67308453D01*
X49428038Y-67590580D01*
X49424452Y-67605111D01*
X49339059Y-67878931D01*
X49333749Y-67892924D01*
X49215988Y-68154460D01*
X49209031Y-68167712D01*
X49060615Y-68413160D01*
X49052112Y-68425477D01*
X48875199Y-68651264D01*
X48865273Y-68662466D01*
X48662466Y-68865273D01*
X48651264Y-68875199D01*
X48425477Y-69052112D01*
X48413160Y-69060615D01*
X48167712Y-69209031D01*
X48154460Y-69215988D01*
X47892924Y-69333749D01*
X47878931Y-69339059D01*
X47605111Y-69424452D01*
X47590580Y-69428038D01*
X47308453Y-69479822D01*
X47293596Y-69481630D01*
X47003583Y-69499271D01*
X46996054Y-69499500D01*
X3003946Y-69499500D01*
X2996417Y-69499271D01*
X2706403Y-69481630D01*
X2691546Y-69479822D01*
X2409419Y-69428038D01*
X2394888Y-69424452D01*
X2121068Y-69339059D01*
X2107075Y-69333749D01*
X1845539Y-69215988D01*
X1832287Y-69209031D01*
X1586839Y-69060615D01*
X1574522Y-69052112D01*
X1348735Y-68875199D01*
X1337533Y-68865273D01*
X1134726Y-68662466D01*
X1124800Y-68651264D01*
X947887Y-68425477D01*
X939384Y-68413160D01*
X790968Y-68167712D01*
X784011Y-68154460D01*
X666250Y-67892924D01*
X660940Y-67878931D01*
X652417Y-67851602D01*
X575546Y-67605107D01*
X571961Y-67590580D01*
X568842Y-67573585D01*
X520176Y-67308446D01*
X518369Y-67293595D01*
X500729Y-67003581D01*
X500500Y-66996053D01*
X500500Y-66378711D01*
X1649500Y-66378711D01*
X1649500Y-66621288D01*
X1681161Y-66861785D01*
X1743947Y-67096104D01*
X1825751Y-67293595D01*
X1836776Y-67320212D01*
X1958064Y-67530289D01*
X1958066Y-67530292D01*
X1958067Y-67530293D01*
X2105733Y-67722736D01*
X2105739Y-67722743D01*
X2277256Y-67894260D01*
X2277262Y-67894265D01*
X2469711Y-68041936D01*
X2679788Y-68163224D01*
X2903900Y-68256054D01*
X3138211Y-68318838D01*
X3318586Y-68342584D01*
X3378711Y-68350500D01*
X3378712Y-68350500D01*
X3621289Y-68350500D01*
X3669388Y-68344167D01*
X3861789Y-68318838D01*
X4096100Y-68256054D01*
X4320212Y-68163224D01*
X4530289Y-68041936D01*
X4722738Y-67894265D01*
X4894265Y-67722738D01*
X5041936Y-67530289D01*
X5163224Y-67320212D01*
X5256054Y-67096100D01*
X5318838Y-66861789D01*
X5350500Y-66621288D01*
X5350500Y-66378712D01*
X5318838Y-66138211D01*
X5256054Y-65903900D01*
X5163224Y-65679788D01*
X5041936Y-65469711D01*
X4894265Y-65277262D01*
X4894260Y-65277256D01*
X4722743Y-65105739D01*
X4722736Y-65105733D01*
X4530293Y-64958067D01*
X4530292Y-64958066D01*
X4530289Y-64958064D01*
X4320212Y-64836776D01*
X4270880Y-64816342D01*
X4096104Y-64743947D01*
X3861785Y-64681161D01*
X3621289Y-64649500D01*
X3621288Y-64649500D01*
X3378712Y-64649500D01*
X3378711Y-64649500D01*
X3138214Y-64681161D01*
X2903895Y-64743947D01*
X2679794Y-64836773D01*
X2679785Y-64836777D01*
X2469706Y-64958067D01*
X2277263Y-65105733D01*
X2277256Y-65105739D01*
X2105739Y-65277256D01*
X2105733Y-65277263D01*
X1958067Y-65469706D01*
X1836777Y-65679785D01*
X1836773Y-65679794D01*
X1743947Y-65903895D01*
X1681161Y-66138214D01*
X1649500Y-66378711D01*
X500500Y-66378711D01*
X500500Y-41930494D01*
X1131100Y-41930494D01*
X1131100Y-41935588D01*
X1131100Y-58024107D01*
X1135253Y-58044984D01*
X1135253Y-58044988D01*
X1155135Y-58144944D01*
X1155138Y-58144954D01*
X1161584Y-58160517D01*
X1202285Y-58258781D01*
X1202290Y-58258790D01*
X1229049Y-58298836D01*
X1229050Y-58298837D01*
X1270740Y-58361231D01*
X1270741Y-58361232D01*
X1270742Y-58361233D01*
X1357867Y-58448358D01*
X1357868Y-58448358D01*
X1364935Y-58455425D01*
X1364934Y-58455425D01*
X1364938Y-58455428D01*
X10448862Y-67539354D01*
X10448865Y-67539357D01*
X10500090Y-67573584D01*
X10551314Y-67607811D01*
X10665148Y-67654963D01*
X10785988Y-67678999D01*
X10785992Y-67679000D01*
X10785993Y-67679000D01*
X30088107Y-67679000D01*
X30148529Y-67666981D01*
X30208952Y-67654963D01*
X30208955Y-67654961D01*
X30208958Y-67654961D01*
X30242287Y-67641154D01*
X30242286Y-67641154D01*
X30242292Y-67641152D01*
X30322786Y-67607812D01*
X30374009Y-67573584D01*
X30425233Y-67539358D01*
X30512358Y-67452233D01*
X30512359Y-67452231D01*
X30519425Y-67445165D01*
X30519428Y-67445161D01*
X31122162Y-66842426D01*
X31183483Y-66808943D01*
X31248162Y-66812179D01*
X31263757Y-66817246D01*
X31473713Y-66850500D01*
X31473714Y-66850500D01*
X31686286Y-66850500D01*
X31686287Y-66850500D01*
X31896243Y-66817246D01*
X32098412Y-66751557D01*
X32287816Y-66655051D01*
X32334287Y-66621288D01*
X32459786Y-66530109D01*
X32459788Y-66530106D01*
X32459792Y-66530104D01*
X32610104Y-66379792D01*
X32610106Y-66379788D01*
X32610109Y-66379786D01*
X32735048Y-66207820D01*
X32735049Y-66207819D01*
X32735051Y-66207816D01*
X32739514Y-66199054D01*
X32787488Y-66148259D01*
X32855308Y-66131463D01*
X32921444Y-66153999D01*
X32960486Y-66199056D01*
X32964951Y-66207820D01*
X33089890Y-66379786D01*
X33240213Y-66530109D01*
X33412179Y-66655048D01*
X33412181Y-66655049D01*
X33412184Y-66655051D01*
X33601588Y-66751557D01*
X33803757Y-66817246D01*
X34013713Y-66850500D01*
X34013714Y-66850500D01*
X34226286Y-66850500D01*
X34226287Y-66850500D01*
X34436243Y-66817246D01*
X34638412Y-66751557D01*
X34827816Y-66655051D01*
X34874287Y-66621288D01*
X34999786Y-66530109D01*
X34999788Y-66530106D01*
X34999792Y-66530104D01*
X35150104Y-66379792D01*
X35150106Y-66379788D01*
X35150109Y-66379786D01*
X35275048Y-66207820D01*
X35275049Y-66207819D01*
X35275051Y-66207816D01*
X35279514Y-66199054D01*
X35327488Y-66148259D01*
X35395308Y-66131463D01*
X35461444Y-66153999D01*
X35500486Y-66199056D01*
X35504951Y-66207820D01*
X35629890Y-66379786D01*
X35780213Y-66530109D01*
X35952179Y-66655048D01*
X35952181Y-66655049D01*
X35952184Y-66655051D01*
X36141588Y-66751557D01*
X36343757Y-66817246D01*
X36553713Y-66850500D01*
X36553714Y-66850500D01*
X36766286Y-66850500D01*
X36766287Y-66850500D01*
X36976243Y-66817246D01*
X37178412Y-66751557D01*
X37367816Y-66655051D01*
X37414287Y-66621288D01*
X37539786Y-66530109D01*
X37539788Y-66530106D01*
X37539792Y-66530104D01*
X37690104Y-66379792D01*
X37690106Y-66379788D01*
X37690109Y-66379786D01*
X37815048Y-66207820D01*
X37815049Y-66207819D01*
X37815051Y-66207816D01*
X37819514Y-66199054D01*
X37867488Y-66148259D01*
X37935308Y-66131463D01*
X38001444Y-66153999D01*
X38040486Y-66199056D01*
X38044951Y-66207820D01*
X38169890Y-66379786D01*
X38320213Y-66530109D01*
X38492179Y-66655048D01*
X38492181Y-66655049D01*
X38492184Y-66655051D01*
X38681588Y-66751557D01*
X38883757Y-66817246D01*
X39093713Y-66850500D01*
X39093714Y-66850500D01*
X39306286Y-66850500D01*
X39306287Y-66850500D01*
X39516243Y-66817246D01*
X39718412Y-66751557D01*
X39907816Y-66655051D01*
X39954287Y-66621288D01*
X40079786Y-66530109D01*
X40079788Y-66530106D01*
X40079792Y-66530104D01*
X40230104Y-66379792D01*
X40230889Y-66378711D01*
X44649500Y-66378711D01*
X44649500Y-66621288D01*
X44681161Y-66861785D01*
X44743947Y-67096104D01*
X44825751Y-67293595D01*
X44836776Y-67320212D01*
X44958064Y-67530289D01*
X44958066Y-67530292D01*
X44958067Y-67530293D01*
X45105733Y-67722736D01*
X45105739Y-67722743D01*
X45277256Y-67894260D01*
X45277262Y-67894265D01*
X45469711Y-68041936D01*
X45679788Y-68163224D01*
X45903900Y-68256054D01*
X46138211Y-68318838D01*
X46318586Y-68342584D01*
X46378711Y-68350500D01*
X46378712Y-68350500D01*
X46621289Y-68350500D01*
X46669388Y-68344167D01*
X46861789Y-68318838D01*
X47096100Y-68256054D01*
X47320212Y-68163224D01*
X47530289Y-68041936D01*
X47722738Y-67894265D01*
X47894265Y-67722738D01*
X48041936Y-67530289D01*
X48163224Y-67320212D01*
X48256054Y-67096100D01*
X48318838Y-66861789D01*
X48350500Y-66621288D01*
X48350500Y-66378712D01*
X48318838Y-66138211D01*
X48256054Y-65903900D01*
X48163224Y-65679788D01*
X48041936Y-65469711D01*
X47894265Y-65277262D01*
X47894260Y-65277256D01*
X47722743Y-65105739D01*
X47722736Y-65105733D01*
X47530293Y-64958067D01*
X47530292Y-64958066D01*
X47530289Y-64958064D01*
X47320212Y-64836776D01*
X47270880Y-64816342D01*
X47096104Y-64743947D01*
X46861785Y-64681161D01*
X46621289Y-64649500D01*
X46621288Y-64649500D01*
X46378712Y-64649500D01*
X46378711Y-64649500D01*
X46138214Y-64681161D01*
X45903895Y-64743947D01*
X45679794Y-64836773D01*
X45679785Y-64836777D01*
X45469706Y-64958067D01*
X45277263Y-65105733D01*
X45277256Y-65105739D01*
X45105739Y-65277256D01*
X45105733Y-65277263D01*
X44958067Y-65469706D01*
X44836777Y-65679785D01*
X44836773Y-65679794D01*
X44743947Y-65903895D01*
X44681161Y-66138214D01*
X44649500Y-66378711D01*
X40230889Y-66378711D01*
X40355051Y-66207816D01*
X40451557Y-66018412D01*
X40517246Y-65816243D01*
X40550500Y-65606287D01*
X40550500Y-65393713D01*
X40517246Y-65183757D01*
X40512179Y-65168162D01*
X40510182Y-65098321D01*
X40542426Y-65042162D01*
X45957929Y-59626660D01*
X45957933Y-59626658D01*
X46045058Y-59539533D01*
X46103703Y-59451765D01*
X46113512Y-59437085D01*
X46160663Y-59323251D01*
X46169916Y-59276735D01*
X46184700Y-59202406D01*
X46184700Y-42501494D01*
X46176689Y-42461221D01*
X46172800Y-42441667D01*
X46168278Y-42418928D01*
X46168278Y-42418927D01*
X46160664Y-42380653D01*
X46160663Y-42380652D01*
X46160663Y-42380648D01*
X46139730Y-42330111D01*
X46113512Y-42266814D01*
X46113511Y-42266812D01*
X46113508Y-42266807D01*
X46071875Y-42204502D01*
X46071874Y-42204500D01*
X46045056Y-42164364D01*
X45954837Y-42074145D01*
X45954806Y-42074116D01*
X42511298Y-38630608D01*
X42511278Y-38630586D01*
X42419833Y-38539141D01*
X42368609Y-38504915D01*
X42368608Y-38504914D01*
X42317390Y-38470690D01*
X42317378Y-38470684D01*
X42315213Y-38469787D01*
X42313263Y-38468484D01*
X42312013Y-38467816D01*
X42312078Y-38467692D01*
X42274985Y-38442907D01*
X42235292Y-38403213D01*
X42235288Y-38403210D01*
X42104185Y-38315609D01*
X42104172Y-38315602D01*
X41958501Y-38255264D01*
X41958489Y-38255261D01*
X41803845Y-38224500D01*
X41803842Y-38224500D01*
X41646158Y-38224500D01*
X41646155Y-38224500D01*
X41491510Y-38255261D01*
X41491498Y-38255264D01*
X41345827Y-38315602D01*
X41345814Y-38315609D01*
X41214711Y-38403210D01*
X41214707Y-38403213D01*
X41103213Y-38514707D01*
X41103210Y-38514711D01*
X41015609Y-38645814D01*
X41015602Y-38645827D01*
X40955264Y-38791498D01*
X40955261Y-38791510D01*
X40924500Y-38946153D01*
X40924500Y-39103846D01*
X40955261Y-39258489D01*
X40955264Y-39258501D01*
X41015602Y-39404172D01*
X41015609Y-39404185D01*
X41103210Y-39535288D01*
X41103213Y-39535292D01*
X41214707Y-39646786D01*
X41214711Y-39646789D01*
X41345814Y-39734390D01*
X41345827Y-39734397D01*
X41491498Y-39794735D01*
X41491503Y-39794737D01*
X41600088Y-39816336D01*
X41646153Y-39825499D01*
X41646156Y-39825500D01*
X41646158Y-39825500D01*
X41803842Y-39825500D01*
X41849909Y-39816336D01*
X41919499Y-39822562D01*
X41961782Y-39850272D01*
X42329055Y-40217545D01*
X42362540Y-40278868D01*
X42357556Y-40348560D01*
X42315684Y-40404493D01*
X42288827Y-40419787D01*
X42200423Y-40456404D01*
X42200420Y-40456406D01*
X42171528Y-40475711D01*
X42143555Y-40494402D01*
X42076879Y-40515280D01*
X42074665Y-40515300D01*
X38461200Y-40515300D01*
X38394161Y-40495615D01*
X38348406Y-40442811D01*
X38337200Y-40391300D01*
X38337200Y-36085228D01*
X38312202Y-35959560D01*
X38312200Y-35959554D01*
X38291889Y-35910521D01*
X38291887Y-35910516D01*
X38263168Y-35841178D01*
X38263162Y-35841168D01*
X38191978Y-35734632D01*
X38191972Y-35734625D01*
X35914154Y-33456808D01*
X35880669Y-33395485D01*
X35885653Y-33325793D01*
X35927525Y-33269860D01*
X35932947Y-33266023D01*
X35945636Y-33257545D01*
X35988360Y-33228998D01*
X36042569Y-33192777D01*
X46386376Y-22848970D01*
X46421970Y-22795698D01*
X46457564Y-22742429D01*
X46457565Y-22742427D01*
X46506601Y-22624044D01*
X46510877Y-22602548D01*
X46531600Y-22498369D01*
X46531600Y-15378335D01*
X46551285Y-15311296D01*
X46552466Y-15309490D01*
X46590494Y-15252579D01*
X46650837Y-15106897D01*
X46681600Y-14952242D01*
X46681600Y-14794558D01*
X46681600Y-14794555D01*
X46681599Y-14794553D01*
X46650838Y-14639910D01*
X46650837Y-14639903D01*
X46650590Y-14639307D01*
X46590497Y-14494227D01*
X46590490Y-14494214D01*
X46502889Y-14363111D01*
X46502886Y-14363107D01*
X46391392Y-14251613D01*
X46391388Y-14251610D01*
X46260285Y-14164009D01*
X46260272Y-14164002D01*
X46114601Y-14103664D01*
X46114589Y-14103661D01*
X45959945Y-14072900D01*
X45959942Y-14072900D01*
X45802258Y-14072900D01*
X45802255Y-14072900D01*
X45647610Y-14103661D01*
X45647598Y-14103664D01*
X45501927Y-14164002D01*
X45501914Y-14164009D01*
X45370811Y-14251610D01*
X45370807Y-14251613D01*
X45259313Y-14363107D01*
X45259310Y-14363111D01*
X45171709Y-14494214D01*
X45171702Y-14494227D01*
X45111364Y-14639898D01*
X45111361Y-14639910D01*
X45080600Y-14794553D01*
X45080600Y-14952246D01*
X45111361Y-15106889D01*
X45111364Y-15106901D01*
X45171702Y-15252572D01*
X45171706Y-15252579D01*
X45209702Y-15309444D01*
X45230580Y-15376121D01*
X45230600Y-15378335D01*
X45230600Y-22113492D01*
X45210915Y-22180531D01*
X45194281Y-22201173D01*
X44752909Y-22642544D01*
X44691586Y-22676029D01*
X44621894Y-22671045D01*
X44565961Y-22629173D01*
X44550668Y-22602319D01*
X44536952Y-22569208D01*
X44536950Y-22569203D01*
X44503612Y-22488714D01*
X44451919Y-22411352D01*
X44435158Y-22386267D01*
X44435155Y-22386264D01*
X44435153Y-22386261D01*
X44344937Y-22296045D01*
X44344906Y-22296016D01*
X40049862Y-18000972D01*
X40022982Y-17960743D01*
X39978694Y-17853821D01*
X39978692Y-17853819D01*
X39978692Y-17853817D01*
X39891089Y-17722711D01*
X39891086Y-17722707D01*
X39779592Y-17611213D01*
X39779588Y-17611210D01*
X39648485Y-17523609D01*
X39648472Y-17523602D01*
X39502801Y-17463264D01*
X39502789Y-17463261D01*
X39348145Y-17432500D01*
X39348142Y-17432500D01*
X39190458Y-17432500D01*
X39190455Y-17432500D01*
X39035810Y-17463261D01*
X39035798Y-17463264D01*
X38890127Y-17523602D01*
X38890114Y-17523609D01*
X38759011Y-17611210D01*
X38759007Y-17611213D01*
X38647513Y-17722707D01*
X38647510Y-17722711D01*
X38559909Y-17853814D01*
X38559902Y-17853827D01*
X38499564Y-17999498D01*
X38499561Y-17999510D01*
X38468800Y-18154153D01*
X38468800Y-18311846D01*
X38499561Y-18466489D01*
X38499564Y-18466501D01*
X38559902Y-18612172D01*
X38559909Y-18612185D01*
X38647510Y-18743288D01*
X38647513Y-18743292D01*
X38759007Y-18854786D01*
X38759011Y-18854789D01*
X38890114Y-18942390D01*
X38890127Y-18942397D01*
X39035798Y-19002735D01*
X39035803Y-19002737D01*
X39190453Y-19033499D01*
X39190456Y-19033500D01*
X39190458Y-19033500D01*
X39261848Y-19033500D01*
X39328887Y-19053185D01*
X39349529Y-19069819D01*
X41004087Y-20724377D01*
X41037572Y-20785700D01*
X41032588Y-20855392D01*
X41019509Y-20880948D01*
X40965608Y-20961616D01*
X40965602Y-20961627D01*
X40905264Y-21107298D01*
X40905261Y-21107310D01*
X40874500Y-21261953D01*
X40874500Y-21419646D01*
X40905261Y-21574289D01*
X40905264Y-21574301D01*
X40965602Y-21719972D01*
X40965609Y-21719984D01*
X41028602Y-21814259D01*
X41049480Y-21880936D01*
X41049500Y-21883150D01*
X41049500Y-21918448D01*
X41029815Y-21985487D01*
X41013181Y-22006129D01*
X39293229Y-23726081D01*
X39231906Y-23759566D01*
X39205548Y-23762400D01*
X28292350Y-23762400D01*
X28225311Y-23742715D01*
X28223459Y-23741502D01*
X28129184Y-23678509D01*
X28129172Y-23678502D01*
X27983501Y-23618164D01*
X27983489Y-23618161D01*
X27828845Y-23587400D01*
X27828842Y-23587400D01*
X27671158Y-23587400D01*
X27671155Y-23587400D01*
X27516510Y-23618161D01*
X27516498Y-23618164D01*
X27370827Y-23678502D01*
X27370814Y-23678509D01*
X27239711Y-23766110D01*
X27239707Y-23766113D01*
X27128213Y-23877607D01*
X27128210Y-23877611D01*
X27040609Y-24008714D01*
X27040602Y-24008727D01*
X26980264Y-24154398D01*
X26980261Y-24154410D01*
X26949500Y-24309053D01*
X26949500Y-24466746D01*
X26980261Y-24621389D01*
X26980264Y-24621401D01*
X27040602Y-24767072D01*
X27040609Y-24767085D01*
X27128210Y-24898188D01*
X27128213Y-24898192D01*
X27239707Y-25009686D01*
X27239711Y-25009689D01*
X27370814Y-25097290D01*
X27370827Y-25097297D01*
X27477991Y-25141685D01*
X27516503Y-25157637D01*
X27671153Y-25188399D01*
X27671156Y-25188400D01*
X27671158Y-25188400D01*
X27828844Y-25188400D01*
X27828845Y-25188399D01*
X27983497Y-25157637D01*
X28129179Y-25097294D01*
X28223459Y-25034298D01*
X28290136Y-25013420D01*
X28292350Y-25013400D01*
X39577607Y-25013400D01*
X39638029Y-25001381D01*
X39698452Y-24989363D01*
X39698455Y-24989361D01*
X39698458Y-24989361D01*
X39731787Y-24975554D01*
X39731786Y-24975554D01*
X39731792Y-24975552D01*
X39812286Y-24942212D01*
X39878169Y-24898189D01*
X39914733Y-24873758D01*
X40001858Y-24786633D01*
X40001859Y-24786631D01*
X40008925Y-24779565D01*
X40008927Y-24779561D01*
X41587322Y-23201167D01*
X41648641Y-23167685D01*
X41718333Y-23172669D01*
X41762680Y-23201170D01*
X41872373Y-23310863D01*
X41905858Y-23372186D01*
X41900874Y-23441878D01*
X41859002Y-23497811D01*
X41808884Y-23520161D01*
X41761253Y-23529635D01*
X41761247Y-23529637D01*
X41647416Y-23576787D01*
X41562928Y-23633241D01*
X41544966Y-23645242D01*
X41544960Y-23645247D01*
X32889969Y-32300240D01*
X32802844Y-32387364D01*
X32802838Y-32387372D01*
X32734392Y-32489805D01*
X32734384Y-32489819D01*
X32701047Y-32570307D01*
X32695523Y-32583643D01*
X32687237Y-32603645D01*
X32687235Y-32603653D01*
X32663200Y-32724489D01*
X32663200Y-36320200D01*
X32643515Y-36387239D01*
X32590711Y-36432994D01*
X32539200Y-36444200D01*
X30079143Y-36444200D01*
X30012104Y-36424515D01*
X29966349Y-36371711D01*
X29956405Y-36302553D01*
X29964583Y-36272745D01*
X29967337Y-36266097D01*
X29998100Y-36111442D01*
X29998100Y-35953758D01*
X29998100Y-35953755D01*
X29998099Y-35953753D01*
X29967337Y-35799103D01*
X29967335Y-35799098D01*
X29906997Y-35653427D01*
X29906990Y-35653414D01*
X29819389Y-35522311D01*
X29819386Y-35522307D01*
X29707892Y-35410813D01*
X29707888Y-35410810D01*
X29576785Y-35323209D01*
X29576772Y-35323202D01*
X29431101Y-35262864D01*
X29431089Y-35262861D01*
X29276445Y-35232100D01*
X29276442Y-35232100D01*
X29118758Y-35232100D01*
X29118755Y-35232100D01*
X28964110Y-35262861D01*
X28964098Y-35262864D01*
X28818427Y-35323202D01*
X28818415Y-35323209D01*
X28724141Y-35386202D01*
X28657464Y-35407080D01*
X28655250Y-35407100D01*
X15365753Y-35407100D01*
X15298714Y-35387415D01*
X15278072Y-35370781D01*
X13372538Y-33465247D01*
X13290944Y-33383653D01*
X18755500Y-33383653D01*
X18755500Y-33541346D01*
X18786261Y-33695989D01*
X18786264Y-33696001D01*
X18846602Y-33841672D01*
X18846609Y-33841685D01*
X18934210Y-33972788D01*
X18934213Y-33972792D01*
X19045707Y-34084286D01*
X19045711Y-34084289D01*
X19176814Y-34171890D01*
X19176827Y-34171897D01*
X19322498Y-34232235D01*
X19322503Y-34232237D01*
X19477153Y-34262999D01*
X19477156Y-34263000D01*
X19477158Y-34263000D01*
X19634844Y-34263000D01*
X19634845Y-34262999D01*
X19789497Y-34232237D01*
X19935179Y-34171894D01*
X20029459Y-34108898D01*
X20096136Y-34088020D01*
X20098350Y-34088000D01*
X24010382Y-34088000D01*
X24057830Y-34097437D01*
X24067549Y-34101463D01*
X24188388Y-34125499D01*
X24188392Y-34125500D01*
X24188393Y-34125500D01*
X24311608Y-34125500D01*
X24311609Y-34125499D01*
X24432451Y-34101463D01*
X24442169Y-34097438D01*
X24546281Y-34054314D01*
X24546280Y-34054314D01*
X24546286Y-34054312D01*
X24648733Y-33985857D01*
X24735857Y-33898733D01*
X24800279Y-33802320D01*
X24815688Y-33783545D01*
X25162416Y-33436818D01*
X25223739Y-33403333D01*
X25250097Y-33400499D01*
X25947871Y-33400499D01*
X25947872Y-33400499D01*
X26007483Y-33394091D01*
X26142331Y-33343796D01*
X26257546Y-33257546D01*
X26343796Y-33142331D01*
X26371429Y-33068243D01*
X26373601Y-33062420D01*
X26415471Y-33006486D01*
X26480936Y-32982068D01*
X26549209Y-32996919D01*
X26577464Y-33018071D01*
X26627636Y-33068243D01*
X26627641Y-33068247D01*
X26729603Y-33142326D01*
X26805978Y-33197815D01*
X26934375Y-33263237D01*
X27002393Y-33297895D01*
X27002396Y-33297896D01*
X27107221Y-33331955D01*
X27212049Y-33366015D01*
X27429778Y-33400500D01*
X27429779Y-33400500D01*
X27650221Y-33400500D01*
X27650222Y-33400500D01*
X27867951Y-33366015D01*
X28077606Y-33297895D01*
X28274022Y-33197815D01*
X28452365Y-33068242D01*
X28608242Y-32912365D01*
X28737815Y-32734022D01*
X28837895Y-32537606D01*
X28906015Y-32327951D01*
X28940500Y-32110222D01*
X28940500Y-31889778D01*
X28906015Y-31672049D01*
X28837895Y-31462394D01*
X28837895Y-31462393D01*
X28803237Y-31394375D01*
X28737815Y-31265978D01*
X28704944Y-31220735D01*
X28608247Y-31087641D01*
X28608243Y-31087636D01*
X28452363Y-30931756D01*
X28452358Y-30931752D01*
X28274025Y-30802187D01*
X28274024Y-30802186D01*
X28274022Y-30802185D01*
X28156791Y-30742452D01*
X28077606Y-30702104D01*
X28077603Y-30702103D01*
X27867952Y-30633985D01*
X27759086Y-30616742D01*
X27650222Y-30599500D01*
X27429778Y-30599500D01*
X27357201Y-30610995D01*
X27212047Y-30633985D01*
X27002396Y-30702103D01*
X27002393Y-30702104D01*
X26805974Y-30802187D01*
X26627641Y-30931752D01*
X26627636Y-30931756D01*
X26577463Y-30981929D01*
X26516140Y-31015413D01*
X26446448Y-31010428D01*
X26390515Y-30968557D01*
X26373601Y-30937580D01*
X26343797Y-30857671D01*
X26343793Y-30857664D01*
X26257547Y-30742455D01*
X26257544Y-30742452D01*
X26142335Y-30656206D01*
X26142328Y-30656202D01*
X26007482Y-30605908D01*
X26007483Y-30605908D01*
X25947883Y-30599501D01*
X25947881Y-30599500D01*
X25947873Y-30599500D01*
X25947864Y-30599500D01*
X24052129Y-30599500D01*
X24052123Y-30599501D01*
X23992516Y-30605908D01*
X23857671Y-30656202D01*
X23857664Y-30656206D01*
X23742455Y-30742452D01*
X23742452Y-30742455D01*
X23656206Y-30857664D01*
X23656202Y-30857671D01*
X23605908Y-30992517D01*
X23603983Y-31010428D01*
X23599500Y-31052127D01*
X23599500Y-31941738D01*
X23599501Y-32713000D01*
X23579816Y-32780039D01*
X23527013Y-32825794D01*
X23475501Y-32837000D01*
X20098350Y-32837000D01*
X20031311Y-32817315D01*
X20029459Y-32816102D01*
X19935184Y-32753109D01*
X19935172Y-32753102D01*
X19789501Y-32692764D01*
X19789489Y-32692761D01*
X19634845Y-32662000D01*
X19634842Y-32662000D01*
X19477158Y-32662000D01*
X19477155Y-32662000D01*
X19322510Y-32692761D01*
X19322498Y-32692764D01*
X19176827Y-32753102D01*
X19176814Y-32753109D01*
X19045711Y-32840710D01*
X19045707Y-32840713D01*
X18934213Y-32952207D01*
X18934210Y-32952211D01*
X18846609Y-33083314D01*
X18846602Y-33083327D01*
X18786264Y-33228998D01*
X18786261Y-33229010D01*
X18755500Y-33383653D01*
X13290944Y-33383653D01*
X9332393Y-29425103D01*
X9298908Y-29363780D01*
X9298487Y-29361764D01*
X9276337Y-29250403D01*
X9252199Y-29192130D01*
X9215997Y-29104727D01*
X9215990Y-29104714D01*
X9128389Y-28973611D01*
X9128386Y-28973607D01*
X9016892Y-28862113D01*
X9016888Y-28862110D01*
X8885785Y-28774509D01*
X8885772Y-28774502D01*
X8740101Y-28714164D01*
X8740089Y-28714161D01*
X8585445Y-28683400D01*
X8585442Y-28683400D01*
X8427758Y-28683400D01*
X8427755Y-28683400D01*
X8273110Y-28714161D01*
X8273098Y-28714164D01*
X8127427Y-28774502D01*
X8127414Y-28774509D01*
X7996311Y-28862110D01*
X7996307Y-28862113D01*
X7884813Y-28973607D01*
X7884810Y-28973611D01*
X7797209Y-29104714D01*
X7797202Y-29104727D01*
X7736864Y-29250398D01*
X7736861Y-29250410D01*
X7706100Y-29405053D01*
X7706100Y-29562746D01*
X7736861Y-29717389D01*
X7736864Y-29717401D01*
X7797202Y-29863072D01*
X7797209Y-29863085D01*
X7884810Y-29994188D01*
X7884813Y-29994192D01*
X7996307Y-30105686D01*
X7996311Y-30105689D01*
X8127414Y-30193290D01*
X8127427Y-30193297D01*
X8214830Y-30229499D01*
X8273103Y-30253637D01*
X8384316Y-30275758D01*
X8446223Y-30308141D01*
X8447802Y-30309692D01*
X14569441Y-36431332D01*
X14569442Y-36431333D01*
X14651516Y-36513407D01*
X14656568Y-36518459D01*
X14759007Y-36586907D01*
X14759013Y-36586910D01*
X14759014Y-36586911D01*
X14872848Y-36634063D01*
X14900468Y-36639556D01*
X14925384Y-36644513D01*
X14925404Y-36644516D01*
X14925426Y-36644521D01*
X14993691Y-36658099D01*
X14993692Y-36658100D01*
X14993693Y-36658100D01*
X14993694Y-36658100D01*
X17343457Y-36658100D01*
X17410496Y-36677785D01*
X17456251Y-36730589D01*
X17466195Y-36799747D01*
X17458017Y-36829555D01*
X17455263Y-36836202D01*
X17455261Y-36836210D01*
X17424500Y-36990853D01*
X17424500Y-37148546D01*
X17455261Y-37303189D01*
X17455264Y-37303201D01*
X17515602Y-37448872D01*
X17515609Y-37448885D01*
X17603210Y-37579988D01*
X17603213Y-37579992D01*
X17714707Y-37691486D01*
X17714711Y-37691489D01*
X17845814Y-37779090D01*
X17845827Y-37779097D01*
X17951569Y-37822896D01*
X17991503Y-37839437D01*
X18146153Y-37870199D01*
X18146156Y-37870200D01*
X18146158Y-37870200D01*
X18303844Y-37870200D01*
X18303845Y-37870199D01*
X18458497Y-37839437D01*
X18604179Y-37779094D01*
X18698459Y-37716098D01*
X18765136Y-37695220D01*
X18767350Y-37695200D01*
X32978248Y-37695200D01*
X33045287Y-37714885D01*
X33065929Y-37731519D01*
X35929528Y-40595119D01*
X35963013Y-40656442D01*
X35958029Y-40726134D01*
X35916157Y-40782067D01*
X35850693Y-40806484D01*
X35841847Y-40806800D01*
X33297742Y-40806800D01*
X33230703Y-40787115D01*
X33194640Y-40751691D01*
X33166189Y-40709111D01*
X33166187Y-40709108D01*
X33054692Y-40597613D01*
X33054688Y-40597610D01*
X32923585Y-40510009D01*
X32923572Y-40510002D01*
X32777901Y-40449664D01*
X32777889Y-40449661D01*
X32710820Y-40436320D01*
X32648909Y-40403935D01*
X32647330Y-40402384D01*
X31307674Y-39062727D01*
X31307673Y-39062726D01*
X31307669Y-39062723D01*
X31201127Y-38991535D01*
X31153982Y-38972007D01*
X31082744Y-38942499D01*
X31082738Y-38942497D01*
X30957071Y-38917500D01*
X30957069Y-38917500D01*
X20329935Y-38917500D01*
X20262896Y-38897815D01*
X20261090Y-38896633D01*
X20204179Y-38858606D01*
X20204172Y-38858602D01*
X20058501Y-38798264D01*
X20058489Y-38798261D01*
X19903845Y-38767500D01*
X19903842Y-38767500D01*
X19746158Y-38767500D01*
X19746155Y-38767500D01*
X19591510Y-38798261D01*
X19591502Y-38798263D01*
X19563691Y-38809782D01*
X19533323Y-38822361D01*
X19485873Y-38831800D01*
X9911035Y-38831800D01*
X9843996Y-38812115D01*
X9842190Y-38810933D01*
X9785279Y-38772906D01*
X9785272Y-38772902D01*
X9639601Y-38712564D01*
X9639589Y-38712561D01*
X9484945Y-38681800D01*
X9484942Y-38681800D01*
X9327258Y-38681800D01*
X9327255Y-38681800D01*
X9172610Y-38712561D01*
X9172598Y-38712564D01*
X9026927Y-38772902D01*
X9026914Y-38772909D01*
X8895811Y-38860510D01*
X8895807Y-38860513D01*
X8784313Y-38972007D01*
X8784310Y-38972011D01*
X8696709Y-39103114D01*
X8696702Y-39103127D01*
X8636364Y-39248798D01*
X8636361Y-39248810D01*
X8605600Y-39403453D01*
X8605600Y-39561146D01*
X8636361Y-39715789D01*
X8636364Y-39715801D01*
X8696702Y-39861472D01*
X8696709Y-39861485D01*
X8784310Y-39992588D01*
X8784313Y-39992592D01*
X8895807Y-40104086D01*
X8895811Y-40104089D01*
X9026914Y-40191690D01*
X9026927Y-40191697D01*
X9172598Y-40252035D01*
X9172603Y-40252037D01*
X9307491Y-40278868D01*
X9327253Y-40282799D01*
X9327256Y-40282800D01*
X9327258Y-40282800D01*
X9484944Y-40282800D01*
X9484945Y-40282799D01*
X9639597Y-40252037D01*
X9785279Y-40191694D01*
X9842144Y-40153697D01*
X9908821Y-40132820D01*
X9911035Y-40132800D01*
X19206359Y-40132800D01*
X19273398Y-40152485D01*
X19294040Y-40169119D01*
X19314707Y-40189786D01*
X19314711Y-40189789D01*
X19445814Y-40277390D01*
X19445827Y-40277397D01*
X19591498Y-40337735D01*
X19591503Y-40337737D01*
X19746153Y-40368499D01*
X19746156Y-40368500D01*
X19746158Y-40368500D01*
X19903844Y-40368500D01*
X19903845Y-40368499D01*
X20058497Y-40337737D01*
X20191130Y-40282799D01*
X20204172Y-40277397D01*
X20204172Y-40277396D01*
X20204179Y-40277394D01*
X20261044Y-40239397D01*
X20327721Y-40218520D01*
X20329935Y-40218500D01*
X30572192Y-40218500D01*
X30639231Y-40238185D01*
X30659873Y-40254819D01*
X31727384Y-41322330D01*
X31760869Y-41383653D01*
X31761320Y-41385820D01*
X31774661Y-41452889D01*
X31774664Y-41452901D01*
X31835002Y-41598572D01*
X31835009Y-41598585D01*
X31922610Y-41729688D01*
X31922613Y-41729692D01*
X32031640Y-41838719D01*
X32065125Y-41900042D01*
X32060141Y-41969734D01*
X32018269Y-42025667D01*
X31952805Y-42050084D01*
X31943959Y-42050400D01*
X29814507Y-42050400D01*
X29747468Y-42030715D01*
X29726826Y-42014081D01*
X28348374Y-40635627D01*
X28348373Y-40635626D01*
X28291477Y-40597610D01*
X28241827Y-40564435D01*
X28241826Y-40564434D01*
X28241824Y-40564433D01*
X28123446Y-40515399D01*
X28122956Y-40515302D01*
X28122931Y-40515297D01*
X27997771Y-40490400D01*
X27997769Y-40490400D01*
X21885731Y-40490400D01*
X21885729Y-40490400D01*
X21760061Y-40515397D01*
X21760051Y-40515400D01*
X21712075Y-40535273D01*
X21641681Y-40564430D01*
X21641663Y-40564440D01*
X21535136Y-40635619D01*
X21535133Y-40635621D01*
X21535131Y-40635623D01*
X21372067Y-40798686D01*
X21310746Y-40832169D01*
X21308580Y-40832620D01*
X21241508Y-40845961D01*
X21241498Y-40845964D01*
X21095827Y-40906302D01*
X21095814Y-40906309D01*
X20964711Y-40993910D01*
X20964707Y-40993913D01*
X20853213Y-41105407D01*
X20853210Y-41105411D01*
X20765609Y-41236514D01*
X20765602Y-41236527D01*
X20705264Y-41382198D01*
X20705261Y-41382208D01*
X20683364Y-41492292D01*
X20650979Y-41554203D01*
X20590263Y-41588777D01*
X20561747Y-41592100D01*
X15833889Y-41592100D01*
X15773471Y-41604118D01*
X15730243Y-41612716D01*
X15713046Y-41616137D01*
X15599216Y-41663287D01*
X15599207Y-41663292D01*
X15496768Y-41731740D01*
X15463083Y-41765426D01*
X15409642Y-41818867D01*
X15409639Y-41818870D01*
X15213903Y-42014605D01*
X15152580Y-42048090D01*
X15150414Y-42048541D01*
X15039208Y-42070661D01*
X15039198Y-42070664D01*
X14893527Y-42131002D01*
X14893515Y-42131009D01*
X14799241Y-42194002D01*
X14732564Y-42214880D01*
X14730350Y-42214900D01*
X7806489Y-42214900D01*
X7746071Y-42226918D01*
X7702861Y-42235513D01*
X7685646Y-42238937D01*
X7571816Y-42286087D01*
X7571807Y-42286092D01*
X7469368Y-42354540D01*
X7443266Y-42380643D01*
X7382242Y-42441667D01*
X7382239Y-42441670D01*
X6296503Y-43527405D01*
X6235180Y-43560890D01*
X6233014Y-43561341D01*
X6121808Y-43583461D01*
X6121798Y-43583464D01*
X5976127Y-43643802D01*
X5976114Y-43643809D01*
X5845011Y-43731410D01*
X5845007Y-43731413D01*
X5733513Y-43842907D01*
X5733510Y-43842911D01*
X5645909Y-43974014D01*
X5645902Y-43974027D01*
X5585564Y-44119698D01*
X5585561Y-44119710D01*
X5554800Y-44274353D01*
X5554800Y-44432046D01*
X5585561Y-44586689D01*
X5585564Y-44586701D01*
X5645902Y-44732372D01*
X5645909Y-44732385D01*
X5733510Y-44863488D01*
X5733513Y-44863492D01*
X5845007Y-44974986D01*
X5845011Y-44974989D01*
X5976114Y-45062590D01*
X5976127Y-45062597D01*
X6121798Y-45122935D01*
X6121803Y-45122937D01*
X6276453Y-45153699D01*
X6276456Y-45153700D01*
X6276458Y-45153700D01*
X6434144Y-45153700D01*
X6434145Y-45153699D01*
X6588797Y-45122937D01*
X6734479Y-45062594D01*
X6865589Y-44974989D01*
X6977089Y-44863489D01*
X7064694Y-44732379D01*
X7125037Y-44586697D01*
X7147158Y-44475482D01*
X7179540Y-44413575D01*
X7181033Y-44412055D01*
X8090871Y-43502219D01*
X8152194Y-43468734D01*
X8178552Y-43465900D01*
X14730350Y-43465900D01*
X14797389Y-43485585D01*
X14799241Y-43486798D01*
X14893521Y-43549794D01*
X14893523Y-43549795D01*
X14893527Y-43549797D01*
X15039198Y-43610135D01*
X15039203Y-43610137D01*
X15193853Y-43640899D01*
X15193856Y-43640900D01*
X15295147Y-43640900D01*
X15362186Y-43660585D01*
X15407941Y-43713389D01*
X15417885Y-43782547D01*
X15388860Y-43846103D01*
X15382828Y-43852581D01*
X14748329Y-44487081D01*
X14687006Y-44520566D01*
X14660648Y-44523400D01*
X12997493Y-44523400D01*
X12977452Y-44527386D01*
X12977451Y-44527385D01*
X12876655Y-44547435D01*
X12876647Y-44547437D01*
X12847615Y-44559463D01*
X12847614Y-44559463D01*
X12762815Y-44594586D01*
X12752727Y-44601328D01*
X12752726Y-44601329D01*
X12660368Y-44663040D01*
X12616805Y-44706603D01*
X12573242Y-44750167D01*
X10570444Y-46752964D01*
X10570438Y-46752972D01*
X10501990Y-46855408D01*
X10501988Y-46855413D01*
X10474892Y-46920830D01*
X10454839Y-46969241D01*
X10454835Y-46969255D01*
X10430800Y-47090089D01*
X10430800Y-47693411D01*
X10454835Y-47814244D01*
X10454840Y-47814261D01*
X10501985Y-47928080D01*
X10501990Y-47928089D01*
X10523980Y-47960998D01*
X10523981Y-47961000D01*
X10570440Y-48030531D01*
X10570441Y-48030532D01*
X10570442Y-48030533D01*
X10657567Y-48117658D01*
X10657568Y-48117658D01*
X10664635Y-48124725D01*
X10664634Y-48124725D01*
X10664637Y-48124727D01*
X14664241Y-52124332D01*
X14664242Y-52124333D01*
X14714899Y-52174990D01*
X14751368Y-52211459D01*
X14848953Y-52276663D01*
X14848957Y-52276666D01*
X14853807Y-52279907D01*
X14853813Y-52279910D01*
X14853814Y-52279911D01*
X14967648Y-52327063D01*
X15069821Y-52347386D01*
X15088488Y-52351099D01*
X15088492Y-52351100D01*
X15088493Y-52351100D01*
X15088494Y-52351100D01*
X16032050Y-52351100D01*
X16099089Y-52370785D01*
X16100941Y-52371998D01*
X16195221Y-52434994D01*
X16195223Y-52434995D01*
X16195227Y-52434997D01*
X16340898Y-52495335D01*
X16340903Y-52495337D01*
X16495553Y-52526099D01*
X16495556Y-52526100D01*
X16495558Y-52526100D01*
X16653244Y-52526100D01*
X16653245Y-52526099D01*
X16807897Y-52495337D01*
X16953579Y-52434994D01*
X17084689Y-52347389D01*
X17196189Y-52235889D01*
X17283794Y-52104779D01*
X17344137Y-51959097D01*
X17374900Y-51804442D01*
X17374900Y-51697800D01*
X17394585Y-51630761D01*
X17447389Y-51585006D01*
X17498900Y-51573800D01*
X18021803Y-51573800D01*
X18088842Y-51593485D01*
X18109484Y-51610119D01*
X18391625Y-51892260D01*
X18425110Y-51953583D01*
X18425561Y-51955749D01*
X18456461Y-52111091D01*
X18456464Y-52111101D01*
X18516802Y-52256772D01*
X18516809Y-52256785D01*
X18604410Y-52387888D01*
X18604413Y-52387892D01*
X18715908Y-52499387D01*
X18734574Y-52511859D01*
X18779380Y-52565471D01*
X18788087Y-52634796D01*
X18757933Y-52697824D01*
X18753365Y-52702643D01*
X16633503Y-54822505D01*
X16572180Y-54855990D01*
X16570014Y-54856441D01*
X16458808Y-54878561D01*
X16458798Y-54878564D01*
X16313124Y-54938904D01*
X16241565Y-54986718D01*
X16174888Y-55007595D01*
X16125223Y-54998176D01*
X16061697Y-54971863D01*
X16061689Y-54971861D01*
X15907045Y-54941100D01*
X15907042Y-54941100D01*
X15749358Y-54941100D01*
X15749355Y-54941100D01*
X15594710Y-54971861D01*
X15594698Y-54971864D01*
X15449027Y-55032202D01*
X15449014Y-55032209D01*
X15317911Y-55119810D01*
X15317907Y-55119813D01*
X15206413Y-55231307D01*
X15206410Y-55231311D01*
X15118809Y-55362414D01*
X15118802Y-55362427D01*
X15058464Y-55508098D01*
X15058461Y-55508110D01*
X15027700Y-55662753D01*
X15027700Y-55820446D01*
X15058461Y-55975089D01*
X15058464Y-55975101D01*
X15118802Y-56120772D01*
X15118809Y-56120785D01*
X15206410Y-56251888D01*
X15206413Y-56251892D01*
X15317907Y-56363386D01*
X15317911Y-56363389D01*
X15449014Y-56450990D01*
X15449027Y-56450997D01*
X15594698Y-56511335D01*
X15594703Y-56511337D01*
X15650768Y-56522489D01*
X15750049Y-56542238D01*
X15811960Y-56574623D01*
X15813539Y-56576174D01*
X15822339Y-56584974D01*
X15822349Y-56584985D01*
X15826679Y-56589315D01*
X15826680Y-56589316D01*
X15938484Y-56701120D01*
X15985502Y-56728265D01*
X16025295Y-56751239D01*
X16025297Y-56751241D01*
X16075413Y-56780176D01*
X16075415Y-56780177D01*
X16228142Y-56821100D01*
X16228143Y-56821100D01*
X17111231Y-56821100D01*
X17111247Y-56821101D01*
X17118843Y-56821101D01*
X17276954Y-56821101D01*
X17276957Y-56821101D01*
X17429685Y-56780177D01*
X17479804Y-56751239D01*
X17566616Y-56701120D01*
X17678420Y-56589316D01*
X17678421Y-56589314D01*
X17726038Y-56541697D01*
X17781418Y-56486318D01*
X17842741Y-56452834D01*
X17869099Y-56450000D01*
X18582600Y-56450000D01*
X18649639Y-56469685D01*
X18695394Y-56522489D01*
X18706600Y-56574000D01*
X18706600Y-57212034D01*
X18686915Y-57279073D01*
X18685702Y-57280925D01*
X18597709Y-57412614D01*
X18597702Y-57412627D01*
X18537364Y-57558298D01*
X18537361Y-57558310D01*
X18506600Y-57712953D01*
X18506600Y-57870646D01*
X18523921Y-57957726D01*
X18517694Y-58027318D01*
X18474830Y-58082495D01*
X18426504Y-58103533D01*
X18416306Y-58105562D01*
X18416298Y-58105564D01*
X18270627Y-58165902D01*
X18270614Y-58165909D01*
X18139511Y-58253510D01*
X18139507Y-58253513D01*
X18028013Y-58365007D01*
X18028010Y-58365011D01*
X17940409Y-58496114D01*
X17940402Y-58496127D01*
X17880064Y-58641798D01*
X17880061Y-58641810D01*
X17849300Y-58796453D01*
X17849300Y-58954146D01*
X17880061Y-59108789D01*
X17880064Y-59108801D01*
X17940402Y-59254472D01*
X17940409Y-59254485D01*
X18028010Y-59385588D01*
X18028013Y-59385592D01*
X18139507Y-59497086D01*
X18139511Y-59497089D01*
X18270614Y-59584690D01*
X18270627Y-59584697D01*
X18403005Y-59639529D01*
X18416303Y-59645037D01*
X18553941Y-59672415D01*
X18570953Y-59675799D01*
X18570956Y-59675800D01*
X18570958Y-59675800D01*
X18728644Y-59675800D01*
X18728645Y-59675799D01*
X18883297Y-59645037D01*
X19028979Y-59584694D01*
X19156423Y-59499538D01*
X19201118Y-59481026D01*
X19222552Y-59476763D01*
X19238459Y-59470173D01*
X19307926Y-59462704D01*
X19370406Y-59493977D01*
X19406060Y-59554066D01*
X19403567Y-59623891D01*
X19373593Y-59672415D01*
X18489803Y-60556205D01*
X18428480Y-60589690D01*
X18426314Y-60590141D01*
X18315108Y-60612261D01*
X18315098Y-60612264D01*
X18169427Y-60672602D01*
X18169414Y-60672609D01*
X18038311Y-60760210D01*
X18038307Y-60760213D01*
X17926813Y-60871707D01*
X17926810Y-60871711D01*
X17839209Y-61002814D01*
X17839202Y-61002827D01*
X17778864Y-61148498D01*
X17778861Y-61148510D01*
X17748100Y-61303153D01*
X17748100Y-61460846D01*
X17769954Y-61570715D01*
X17763727Y-61640307D01*
X17720863Y-61695484D01*
X17654974Y-61718728D01*
X17603080Y-61709844D01*
X17603046Y-61709949D01*
X17602325Y-61709714D01*
X17600889Y-61709469D01*
X17598414Y-61708444D01*
X17598413Y-61708443D01*
X17598412Y-61708443D01*
X17396243Y-61642754D01*
X17396241Y-61642753D01*
X17396240Y-61642753D01*
X17224150Y-61615497D01*
X17186287Y-61609500D01*
X16973713Y-61609500D01*
X16935850Y-61615497D01*
X16763760Y-61642753D01*
X16561585Y-61708444D01*
X16372179Y-61804951D01*
X16200213Y-61929890D01*
X16049890Y-62080213D01*
X15924949Y-62252182D01*
X15920484Y-62260946D01*
X15872509Y-62311742D01*
X15804688Y-62328536D01*
X15738553Y-62305998D01*
X15699516Y-62260946D01*
X15695050Y-62252182D01*
X15570109Y-62080213D01*
X15419786Y-61929890D01*
X15247820Y-61804951D01*
X15058414Y-61708444D01*
X15058413Y-61708443D01*
X15058412Y-61708443D01*
X14856243Y-61642754D01*
X14856241Y-61642753D01*
X14856240Y-61642753D01*
X14684150Y-61615497D01*
X14646287Y-61609500D01*
X14433713Y-61609500D01*
X14395850Y-61615497D01*
X14223753Y-61642754D01*
X14208160Y-61647821D01*
X14138319Y-61649816D01*
X14082162Y-61617571D01*
X11926128Y-59461538D01*
X11926125Y-59461534D01*
X11926125Y-59461535D01*
X11919058Y-59454468D01*
X11919058Y-59454467D01*
X11831933Y-59367342D01*
X11831932Y-59367341D01*
X11831931Y-59367340D01*
X11765948Y-59323252D01*
X11729486Y-59298888D01*
X11729487Y-59298888D01*
X11729485Y-59298887D01*
X11676005Y-59276736D01*
X11648992Y-59265547D01*
X11615653Y-59251737D01*
X11605627Y-59249743D01*
X11555229Y-59239718D01*
X11494810Y-59227700D01*
X11494807Y-59227700D01*
X11494806Y-59227700D01*
X11051350Y-59227700D01*
X10984311Y-59208015D01*
X10982459Y-59206802D01*
X10888184Y-59143809D01*
X10888172Y-59143802D01*
X10742501Y-59083464D01*
X10742491Y-59083461D01*
X10649508Y-59064965D01*
X10587597Y-59032579D01*
X10553023Y-58971863D01*
X10549700Y-58943348D01*
X10549700Y-55552528D01*
X10524702Y-55426861D01*
X10524701Y-55426860D01*
X10524701Y-55426856D01*
X10497934Y-55362235D01*
X10489585Y-55342079D01*
X10475669Y-55308481D01*
X10475668Y-55308480D01*
X10475666Y-55308474D01*
X10445195Y-55262871D01*
X10404478Y-55201932D01*
X10404472Y-55201925D01*
X9861373Y-54658826D01*
X9861369Y-54658823D01*
X9754827Y-54587635D01*
X9754822Y-54587633D01*
X9636444Y-54538599D01*
X9618195Y-54534969D01*
X9510771Y-54513600D01*
X9510769Y-54513600D01*
X8854631Y-54513600D01*
X8854629Y-54513600D01*
X8747205Y-54534969D01*
X8733486Y-54537697D01*
X8728955Y-54538599D01*
X8610570Y-54587635D01*
X8504031Y-54658822D01*
X8504024Y-54658828D01*
X8006524Y-55156328D01*
X7953073Y-55236325D01*
X7935335Y-55262871D01*
X7886299Y-55381255D01*
X7886297Y-55381261D01*
X7861300Y-55506928D01*
X7861300Y-56428903D01*
X7841615Y-56495942D01*
X7788811Y-56541697D01*
X7719653Y-56551641D01*
X7656097Y-56522616D01*
X7649619Y-56516584D01*
X5182590Y-54049555D01*
X5182588Y-54049552D01*
X5063717Y-53930681D01*
X5063716Y-53930680D01*
X4976904Y-53880560D01*
X4976904Y-53880559D01*
X4976900Y-53880558D01*
X4926785Y-53851623D01*
X4774057Y-53810699D01*
X4774054Y-53810699D01*
X4673197Y-53810699D01*
X4606158Y-53791014D01*
X4585516Y-53774380D01*
X4008671Y-53197535D01*
X3361777Y-52550642D01*
X3328293Y-52489320D01*
X3333277Y-52419628D01*
X3346354Y-52394075D01*
X3394394Y-52322179D01*
X3454737Y-52176497D01*
X3476858Y-52065282D01*
X3509240Y-52003375D01*
X3510735Y-52001853D01*
X3741861Y-51770727D01*
X3741875Y-51770716D01*
X3747954Y-51764637D01*
X3752653Y-51762070D01*
X3762963Y-51753800D01*
X3762974Y-51753793D01*
X3764221Y-51755752D01*
X3809274Y-51731147D01*
X3878966Y-51736126D01*
X3883094Y-51737750D01*
X3948006Y-51764637D01*
X3967803Y-51772837D01*
X4122453Y-51803599D01*
X4122456Y-51803600D01*
X4122458Y-51803600D01*
X4280144Y-51803600D01*
X4280145Y-51803599D01*
X4434797Y-51772837D01*
X4580479Y-51712494D01*
X4630394Y-51679142D01*
X4712175Y-51624498D01*
X4778853Y-51603620D01*
X4781066Y-51603600D01*
X6167803Y-51603600D01*
X6234842Y-51623285D01*
X6255484Y-51639919D01*
X6986525Y-52370960D01*
X7020010Y-52432283D01*
X7020461Y-52434449D01*
X7051361Y-52589791D01*
X7051364Y-52589801D01*
X7111702Y-52735472D01*
X7111709Y-52735485D01*
X7199310Y-52866588D01*
X7199313Y-52866592D01*
X7310807Y-52978086D01*
X7310811Y-52978089D01*
X7441914Y-53065690D01*
X7441927Y-53065697D01*
X7587598Y-53126035D01*
X7587603Y-53126037D01*
X7742253Y-53156799D01*
X7742256Y-53156800D01*
X7742258Y-53156800D01*
X7899944Y-53156800D01*
X7899945Y-53156799D01*
X8054597Y-53126037D01*
X8200279Y-53065694D01*
X8331389Y-52978089D01*
X8442889Y-52866589D01*
X8530494Y-52735479D01*
X8590837Y-52589797D01*
X8621600Y-52435142D01*
X8621600Y-52277458D01*
X8621600Y-52277455D01*
X8621599Y-52277453D01*
X8613222Y-52235338D01*
X8590837Y-52122803D01*
X8585778Y-52110589D01*
X8530497Y-51977127D01*
X8530490Y-51977114D01*
X8442889Y-51846011D01*
X8442886Y-51846007D01*
X8331392Y-51734513D01*
X8331388Y-51734510D01*
X8200285Y-51646909D01*
X8200272Y-51646902D01*
X8054601Y-51586564D01*
X8054591Y-51586561D01*
X7899251Y-51555662D01*
X7837341Y-51523277D01*
X7835762Y-51521726D01*
X6955490Y-50641455D01*
X6955488Y-50641452D01*
X6836617Y-50522581D01*
X6836616Y-50522580D01*
X6749804Y-50472460D01*
X6749804Y-50472459D01*
X6749800Y-50472458D01*
X6699685Y-50443523D01*
X6546957Y-50402599D01*
X6388843Y-50402599D01*
X6381247Y-50402599D01*
X6381231Y-50402600D01*
X5021652Y-50402600D01*
X4954613Y-50382915D01*
X4908858Y-50330111D01*
X4898914Y-50260953D01*
X4927939Y-50197397D01*
X4933971Y-50190919D01*
X5796590Y-49328300D01*
X8780997Y-46343891D01*
X8842318Y-46310408D01*
X8844328Y-46309989D01*
X8955697Y-46287837D01*
X9101379Y-46227494D01*
X9232489Y-46139889D01*
X9343989Y-46028389D01*
X9431594Y-45897279D01*
X9491937Y-45751597D01*
X9522700Y-45596942D01*
X9522700Y-45439258D01*
X9522700Y-45439255D01*
X9522699Y-45439253D01*
X9491938Y-45284610D01*
X9491938Y-45284608D01*
X9491937Y-45284603D01*
X9491751Y-45284154D01*
X9431597Y-45138927D01*
X9431590Y-45138914D01*
X9343989Y-45007811D01*
X9343986Y-45007807D01*
X9232492Y-44896313D01*
X9232488Y-44896310D01*
X9101385Y-44808709D01*
X9101372Y-44808702D01*
X8955701Y-44748364D01*
X8955689Y-44748361D01*
X8801045Y-44717600D01*
X8801042Y-44717600D01*
X8643358Y-44717600D01*
X8643355Y-44717600D01*
X8488710Y-44748361D01*
X8488698Y-44748364D01*
X8343027Y-44808702D01*
X8343014Y-44808709D01*
X8211911Y-44896310D01*
X8211907Y-44896313D01*
X8100413Y-45007807D01*
X8100410Y-45007811D01*
X8012809Y-45138914D01*
X8012802Y-45138927D01*
X7952464Y-45284598D01*
X7952461Y-45284608D01*
X7930341Y-45395814D01*
X7897956Y-45457725D01*
X7896405Y-45459303D01*
X2951470Y-50404239D01*
X2951461Y-50404245D01*
X2951462Y-50404246D01*
X2942530Y-50413177D01*
X2936655Y-50416384D01*
X2932572Y-50419732D01*
X2932569Y-50419734D01*
X2932022Y-50418913D01*
X2881205Y-50446659D01*
X2811514Y-50441670D01*
X2807423Y-50440060D01*
X2690097Y-50391463D01*
X2690089Y-50391461D01*
X2535445Y-50360700D01*
X2535442Y-50360700D01*
X2506100Y-50360700D01*
X2439061Y-50341015D01*
X2393306Y-50288211D01*
X2382100Y-50236700D01*
X2382100Y-42302552D01*
X2401785Y-42235513D01*
X2418419Y-42214871D01*
X4529204Y-40104086D01*
X6783798Y-37849491D01*
X6845119Y-37816008D01*
X6847114Y-37815592D01*
X6958497Y-37793437D01*
X7104179Y-37733094D01*
X7235289Y-37645489D01*
X7346789Y-37533989D01*
X7434394Y-37402879D01*
X7494737Y-37257197D01*
X7525500Y-37102542D01*
X7525500Y-36944858D01*
X7525500Y-36944855D01*
X7525499Y-36944853D01*
X7494737Y-36790203D01*
X7494735Y-36790198D01*
X7434397Y-36644527D01*
X7434390Y-36644514D01*
X7346789Y-36513411D01*
X7346786Y-36513407D01*
X7235292Y-36401913D01*
X7235288Y-36401910D01*
X7104185Y-36314309D01*
X7104172Y-36314302D01*
X6958501Y-36253964D01*
X6958489Y-36253961D01*
X6803845Y-36223200D01*
X6803842Y-36223200D01*
X6646158Y-36223200D01*
X6646155Y-36223200D01*
X6491510Y-36253961D01*
X6491498Y-36253964D01*
X6345827Y-36314302D01*
X6345814Y-36314309D01*
X6214711Y-36401910D01*
X6214707Y-36401913D01*
X6103213Y-36513407D01*
X6103210Y-36513411D01*
X6015609Y-36644514D01*
X6015602Y-36644527D01*
X5955264Y-36790198D01*
X5955261Y-36790208D01*
X5933141Y-36901413D01*
X5900756Y-36963324D01*
X5899205Y-36964902D01*
X1357869Y-41506240D01*
X1270741Y-41593367D01*
X1263558Y-41604119D01*
X1255528Y-41616137D01*
X1202290Y-41695810D01*
X1202285Y-41695819D01*
X1173454Y-41765426D01*
X1155139Y-41809641D01*
X1155137Y-41809647D01*
X1155137Y-41809648D01*
X1143153Y-41869899D01*
X1141736Y-41877024D01*
X1131100Y-41930494D01*
X500500Y-41930494D01*
X500500Y-27608653D01*
X18294000Y-27608653D01*
X18294000Y-27766346D01*
X18324761Y-27920989D01*
X18324764Y-27921001D01*
X18385102Y-28066672D01*
X18385109Y-28066685D01*
X18472710Y-28197788D01*
X18472713Y-28197792D01*
X18584207Y-28309286D01*
X18584211Y-28309289D01*
X18715314Y-28396890D01*
X18715327Y-28396897D01*
X18860998Y-28457235D01*
X18861003Y-28457237D01*
X19015653Y-28487999D01*
X19015656Y-28488000D01*
X19015658Y-28488000D01*
X19173344Y-28488000D01*
X19173345Y-28487999D01*
X19327997Y-28457237D01*
X19473679Y-28396894D01*
X19473685Y-28396890D01*
X19605375Y-28308898D01*
X19672053Y-28288020D01*
X19674266Y-28288000D01*
X28652903Y-28288000D01*
X28719942Y-28307685D01*
X28740584Y-28324319D01*
X31602925Y-31186660D01*
X31636410Y-31247983D01*
X31636861Y-31250149D01*
X31667761Y-31405491D01*
X31667764Y-31405501D01*
X31728102Y-31551172D01*
X31728109Y-31551185D01*
X31815710Y-31682288D01*
X31815713Y-31682292D01*
X31927207Y-31793786D01*
X31927211Y-31793789D01*
X32058314Y-31881390D01*
X32058327Y-31881397D01*
X32203998Y-31941735D01*
X32204003Y-31941737D01*
X32318495Y-31964511D01*
X32358653Y-31972499D01*
X32358656Y-31972500D01*
X32358658Y-31972500D01*
X32516344Y-31972500D01*
X32516345Y-31972499D01*
X32670997Y-31941737D01*
X32816679Y-31881394D01*
X32947789Y-31793789D01*
X33059289Y-31682289D01*
X33146894Y-31551179D01*
X33207237Y-31405497D01*
X33238000Y-31250842D01*
X33238000Y-31093158D01*
X33238000Y-31093155D01*
X33237999Y-31093153D01*
X33229840Y-31052135D01*
X33207237Y-30938503D01*
X33173753Y-30857664D01*
X33146897Y-30792827D01*
X33146890Y-30792814D01*
X33059289Y-30661711D01*
X33059286Y-30661707D01*
X32947792Y-30550213D01*
X32947788Y-30550210D01*
X32816685Y-30462609D01*
X32816672Y-30462602D01*
X32671001Y-30402264D01*
X32670991Y-30402261D01*
X32515649Y-30371361D01*
X32453738Y-30338976D01*
X32452160Y-30337425D01*
X29440590Y-27325855D01*
X29440588Y-27325852D01*
X29321717Y-27206981D01*
X29321716Y-27206980D01*
X29234904Y-27156860D01*
X29234904Y-27156859D01*
X29234900Y-27156858D01*
X29184785Y-27127923D01*
X29032057Y-27086999D01*
X28873943Y-27086999D01*
X28866347Y-27086999D01*
X28866331Y-27087000D01*
X19674266Y-27087000D01*
X19607227Y-27067315D01*
X19605375Y-27066102D01*
X19473685Y-26978109D01*
X19473672Y-26978102D01*
X19328001Y-26917764D01*
X19327989Y-26917761D01*
X19173345Y-26887000D01*
X19173342Y-26887000D01*
X19015658Y-26887000D01*
X19015655Y-26887000D01*
X18861010Y-26917761D01*
X18860998Y-26917764D01*
X18715327Y-26978102D01*
X18715314Y-26978109D01*
X18584211Y-27065710D01*
X18584207Y-27065713D01*
X18472713Y-27177207D01*
X18472710Y-27177211D01*
X18385109Y-27308314D01*
X18385102Y-27308327D01*
X18324764Y-27453998D01*
X18324761Y-27454010D01*
X18294000Y-27608653D01*
X500500Y-27608653D01*
X500500Y-22590253D01*
X5880300Y-22590253D01*
X5880300Y-22747946D01*
X5911061Y-22902589D01*
X5911064Y-22902601D01*
X5971402Y-23048272D01*
X5971409Y-23048285D01*
X6059010Y-23179388D01*
X6059013Y-23179392D01*
X6170507Y-23290886D01*
X6170511Y-23290889D01*
X6301614Y-23378490D01*
X6301627Y-23378497D01*
X6447298Y-23438835D01*
X6447303Y-23438837D01*
X6601953Y-23469599D01*
X6601956Y-23469600D01*
X6601958Y-23469600D01*
X6759644Y-23469600D01*
X6759645Y-23469599D01*
X6914297Y-23438837D01*
X7059979Y-23378494D01*
X7154259Y-23315498D01*
X7220936Y-23294620D01*
X7223150Y-23294600D01*
X18368848Y-23294600D01*
X18435887Y-23314285D01*
X18456529Y-23330919D01*
X19946905Y-24821296D01*
X19980390Y-24882619D01*
X19980841Y-24884786D01*
X20002961Y-24995989D01*
X20002964Y-24996001D01*
X20063302Y-25141672D01*
X20063309Y-25141685D01*
X20150910Y-25272788D01*
X20150913Y-25272792D01*
X20262407Y-25384286D01*
X20262411Y-25384289D01*
X20393514Y-25471890D01*
X20393527Y-25471897D01*
X20539198Y-25532235D01*
X20539203Y-25532237D01*
X20693853Y-25562999D01*
X20693856Y-25563000D01*
X20693858Y-25563000D01*
X20851544Y-25563000D01*
X20851545Y-25562999D01*
X21006197Y-25532237D01*
X21151879Y-25471894D01*
X21282989Y-25384289D01*
X21394489Y-25272789D01*
X21482094Y-25141679D01*
X21542437Y-24995997D01*
X21573200Y-24841342D01*
X21573200Y-24683658D01*
X21573200Y-24683655D01*
X21573199Y-24683653D01*
X21542438Y-24529010D01*
X21542437Y-24529003D01*
X21516648Y-24466742D01*
X21482097Y-24383327D01*
X21482090Y-24383314D01*
X21394489Y-24252211D01*
X21394486Y-24252207D01*
X21282992Y-24140713D01*
X21282988Y-24140710D01*
X21151885Y-24053109D01*
X21151872Y-24053102D01*
X21006201Y-23992764D01*
X21006189Y-23992761D01*
X20894986Y-23970641D01*
X20833075Y-23938256D01*
X20831496Y-23936705D01*
X19172228Y-22277438D01*
X19172225Y-22277434D01*
X19172225Y-22277435D01*
X19165158Y-22270368D01*
X19165158Y-22270367D01*
X19078033Y-22183242D01*
X19078032Y-22183241D01*
X19078031Y-22183240D01*
X19026809Y-22149015D01*
X18975587Y-22114789D01*
X18975586Y-22114788D01*
X18975583Y-22114786D01*
X18975580Y-22114785D01*
X18895092Y-22081447D01*
X18861753Y-22067637D01*
X18851727Y-22065643D01*
X18801329Y-22055618D01*
X18740910Y-22043600D01*
X18740907Y-22043600D01*
X18740906Y-22043600D01*
X7223150Y-22043600D01*
X7156111Y-22023915D01*
X7154259Y-22022702D01*
X7059984Y-21959709D01*
X7059972Y-21959702D01*
X6914301Y-21899364D01*
X6914289Y-21899361D01*
X6759645Y-21868600D01*
X6759642Y-21868600D01*
X6601958Y-21868600D01*
X6601955Y-21868600D01*
X6447310Y-21899361D01*
X6447298Y-21899364D01*
X6301627Y-21959702D01*
X6301614Y-21959709D01*
X6170511Y-22047310D01*
X6170507Y-22047313D01*
X6059013Y-22158807D01*
X6059010Y-22158811D01*
X5971409Y-22289914D01*
X5971402Y-22289927D01*
X5911064Y-22435598D01*
X5911061Y-22435610D01*
X5880300Y-22590253D01*
X500500Y-22590253D01*
X500500Y-15629153D01*
X2357800Y-15629153D01*
X2357800Y-15786846D01*
X2388561Y-15941489D01*
X2388564Y-15941501D01*
X2448902Y-16087172D01*
X2448909Y-16087185D01*
X2536510Y-16218288D01*
X2536513Y-16218292D01*
X2648007Y-16329786D01*
X2648011Y-16329789D01*
X2779114Y-16417390D01*
X2779127Y-16417397D01*
X2914226Y-16473356D01*
X2924803Y-16477737D01*
X3025606Y-16497788D01*
X3079453Y-16508499D01*
X3079456Y-16508500D01*
X3079458Y-16508500D01*
X3237144Y-16508500D01*
X3237145Y-16508499D01*
X3391797Y-16477737D01*
X3537479Y-16417394D01*
X3668589Y-16329789D01*
X3780089Y-16218289D01*
X3867694Y-16087179D01*
X3928037Y-15941497D01*
X3941379Y-15874416D01*
X3973763Y-15812509D01*
X3975258Y-15810986D01*
X6172395Y-13613850D01*
X6233716Y-13580367D01*
X6303408Y-13585351D01*
X6359341Y-13627223D01*
X6381691Y-13677341D01*
X6407361Y-13806391D01*
X6407364Y-13806401D01*
X6467702Y-13952072D01*
X6467709Y-13952085D01*
X6555310Y-14083188D01*
X6555313Y-14083192D01*
X6666807Y-14194686D01*
X6666811Y-14194689D01*
X6797914Y-14282290D01*
X6797927Y-14282297D01*
X6885330Y-14318499D01*
X6943603Y-14342637D01*
X7054816Y-14364758D01*
X7116723Y-14397141D01*
X7118303Y-14398693D01*
X9102716Y-16383106D01*
X9102745Y-16383137D01*
X9192964Y-16473356D01*
X9229530Y-16497789D01*
X9229531Y-16497789D01*
X9295414Y-16541812D01*
X9375907Y-16575152D01*
X9409248Y-16588963D01*
X9469671Y-16600981D01*
X9530093Y-16613000D01*
X9530094Y-16613000D01*
X14231019Y-16613000D01*
X14298058Y-16632685D01*
X14343813Y-16685489D01*
X14353757Y-16754647D01*
X14324732Y-16818203D01*
X14295809Y-16842727D01*
X14292182Y-16844949D01*
X14120213Y-16969890D01*
X13969890Y-17120213D01*
X13844951Y-17292179D01*
X13748444Y-17481585D01*
X13682753Y-17683760D01*
X13649500Y-17893713D01*
X13649500Y-18106286D01*
X13682753Y-18316239D01*
X13748444Y-18518414D01*
X13844951Y-18707820D01*
X13969890Y-18879786D01*
X14120213Y-19030109D01*
X14292179Y-19155048D01*
X14292181Y-19155049D01*
X14292184Y-19155051D01*
X14481588Y-19251557D01*
X14683757Y-19317246D01*
X14893713Y-19350500D01*
X14893714Y-19350500D01*
X15106286Y-19350500D01*
X15106287Y-19350500D01*
X15316243Y-19317246D01*
X15518412Y-19251557D01*
X15707816Y-19155051D01*
X15848024Y-19053185D01*
X15879786Y-19030109D01*
X15879788Y-19030106D01*
X15879792Y-19030104D01*
X16030104Y-18879792D01*
X16030106Y-18879788D01*
X16030109Y-18879786D01*
X16155048Y-18707820D01*
X16155047Y-18707820D01*
X16155051Y-18707816D01*
X16251557Y-18518412D01*
X16317246Y-18316243D01*
X16350500Y-18106287D01*
X16350500Y-17893713D01*
X33649500Y-17893713D01*
X33649500Y-18106286D01*
X33682753Y-18316239D01*
X33748444Y-18518414D01*
X33844951Y-18707820D01*
X33969890Y-18879786D01*
X34120213Y-19030109D01*
X34292179Y-19155048D01*
X34292181Y-19155049D01*
X34292184Y-19155051D01*
X34481588Y-19251557D01*
X34683757Y-19317246D01*
X34893713Y-19350500D01*
X34893714Y-19350500D01*
X35106286Y-19350500D01*
X35106287Y-19350500D01*
X35316243Y-19317246D01*
X35518412Y-19251557D01*
X35707816Y-19155051D01*
X35848024Y-19053185D01*
X35879786Y-19030109D01*
X35879788Y-19030106D01*
X35879792Y-19030104D01*
X36030104Y-18879792D01*
X36030106Y-18879788D01*
X36030109Y-18879786D01*
X36155048Y-18707820D01*
X36155047Y-18707820D01*
X36155051Y-18707816D01*
X36251557Y-18518412D01*
X36317246Y-18316243D01*
X36350500Y-18106287D01*
X36350500Y-17893713D01*
X36317246Y-17683757D01*
X36251557Y-17481588D01*
X36155051Y-17292184D01*
X36155049Y-17292181D01*
X36155048Y-17292179D01*
X36030109Y-17120213D01*
X35879786Y-16969890D01*
X35707820Y-16844951D01*
X35518414Y-16748444D01*
X35518413Y-16748443D01*
X35518412Y-16748443D01*
X35316243Y-16682754D01*
X35316241Y-16682753D01*
X35316240Y-16682753D01*
X35154957Y-16657208D01*
X35106287Y-16649500D01*
X34893713Y-16649500D01*
X34845042Y-16657208D01*
X34683760Y-16682753D01*
X34481585Y-16748444D01*
X34292179Y-16844951D01*
X34120213Y-16969890D01*
X33969890Y-17120213D01*
X33844951Y-17292179D01*
X33748444Y-17481585D01*
X33682753Y-17683760D01*
X33649500Y-17893713D01*
X16350500Y-17893713D01*
X16317246Y-17683757D01*
X16251557Y-17481588D01*
X16155051Y-17292184D01*
X16155049Y-17292181D01*
X16155048Y-17292179D01*
X16030109Y-17120213D01*
X15879786Y-16969890D01*
X15707817Y-16844949D01*
X15704191Y-16842727D01*
X15657316Y-16790915D01*
X15645893Y-16721986D01*
X15673550Y-16657823D01*
X15731506Y-16618798D01*
X15768981Y-16613000D01*
X20241950Y-16613000D01*
X20308989Y-16632685D01*
X20310841Y-16633898D01*
X20405121Y-16696894D01*
X20405123Y-16696895D01*
X20405127Y-16696897D01*
X20544550Y-16754647D01*
X20550803Y-16757237D01*
X20705453Y-16787999D01*
X20705456Y-16788000D01*
X20705458Y-16788000D01*
X20863144Y-16788000D01*
X20863145Y-16787999D01*
X21017797Y-16757237D01*
X21163479Y-16696894D01*
X21294589Y-16609289D01*
X21406089Y-16497789D01*
X21493694Y-16366679D01*
X21554037Y-16220997D01*
X21584800Y-16066342D01*
X21584800Y-15908658D01*
X21584800Y-15908655D01*
X21584799Y-15908653D01*
X21570651Y-15837528D01*
X21554037Y-15754003D01*
X21552818Y-15751061D01*
X21493697Y-15608327D01*
X21493690Y-15608314D01*
X21406089Y-15477211D01*
X21406086Y-15477207D01*
X21294592Y-15365713D01*
X21294588Y-15365710D01*
X21163485Y-15278109D01*
X21163472Y-15278102D01*
X21017801Y-15217764D01*
X21017791Y-15217761D01*
X20863145Y-15187000D01*
X20863142Y-15187000D01*
X20705458Y-15187000D01*
X20705455Y-15187000D01*
X20550810Y-15217761D01*
X20550798Y-15217764D01*
X20405127Y-15278102D01*
X20405115Y-15278109D01*
X20310841Y-15341102D01*
X20244164Y-15361980D01*
X20241950Y-15362000D01*
X9902152Y-15362000D01*
X9835113Y-15342315D01*
X9814471Y-15325681D01*
X9559543Y-15070753D01*
X27214500Y-15070753D01*
X27214500Y-15228446D01*
X27245261Y-15383089D01*
X27245264Y-15383101D01*
X27305602Y-15528772D01*
X27305609Y-15528785D01*
X27393210Y-15659888D01*
X27393213Y-15659892D01*
X27504707Y-15771386D01*
X27504711Y-15771389D01*
X27635814Y-15858990D01*
X27635827Y-15858997D01*
X27755709Y-15908653D01*
X27781503Y-15919337D01*
X27936153Y-15950099D01*
X27936156Y-15950100D01*
X27936158Y-15950100D01*
X28093844Y-15950100D01*
X28093845Y-15950099D01*
X28248497Y-15919337D01*
X28394179Y-15858994D01*
X28488459Y-15795998D01*
X28555136Y-15775120D01*
X28557350Y-15775100D01*
X38348807Y-15775100D01*
X38409229Y-15763081D01*
X38469652Y-15751063D01*
X38469655Y-15751061D01*
X38469658Y-15751061D01*
X38502987Y-15737254D01*
X38502986Y-15737254D01*
X38502992Y-15737252D01*
X38583486Y-15703912D01*
X38649369Y-15659889D01*
X38685933Y-15635458D01*
X38773058Y-15548333D01*
X38773058Y-15548331D01*
X38783266Y-15538124D01*
X38783267Y-15538121D01*
X41735198Y-12586191D01*
X41796519Y-12552708D01*
X41798514Y-12552292D01*
X41909897Y-12530137D01*
X42055579Y-12469794D01*
X42186689Y-12382189D01*
X42298189Y-12270689D01*
X42385794Y-12139579D01*
X42446137Y-11993897D01*
X42476900Y-11839242D01*
X42476900Y-11681558D01*
X42476900Y-11681555D01*
X42476899Y-11681553D01*
X42446137Y-11526903D01*
X42446135Y-11526898D01*
X42385797Y-11381227D01*
X42385790Y-11381214D01*
X42298189Y-11250111D01*
X42298186Y-11250107D01*
X42186692Y-11138613D01*
X42186688Y-11138610D01*
X42055585Y-11051009D01*
X42055572Y-11051002D01*
X41909901Y-10990664D01*
X41909889Y-10990661D01*
X41755245Y-10959900D01*
X41755242Y-10959900D01*
X41597558Y-10959900D01*
X41597555Y-10959900D01*
X41442910Y-10990661D01*
X41442898Y-10990664D01*
X41297227Y-11051002D01*
X41297214Y-11051009D01*
X41166111Y-11138610D01*
X41166107Y-11138613D01*
X41054613Y-11250107D01*
X41054610Y-11250111D01*
X40967009Y-11381214D01*
X40967002Y-11381227D01*
X40906664Y-11526898D01*
X40906661Y-11526908D01*
X40884541Y-11638113D01*
X40852156Y-11700024D01*
X40850605Y-11701602D01*
X38064429Y-14487781D01*
X38003106Y-14521266D01*
X37976748Y-14524100D01*
X28557350Y-14524100D01*
X28490311Y-14504415D01*
X28488459Y-14503202D01*
X28394184Y-14440209D01*
X28394172Y-14440202D01*
X28248501Y-14379864D01*
X28248489Y-14379861D01*
X28093845Y-14349100D01*
X28093842Y-14349100D01*
X27936158Y-14349100D01*
X27936155Y-14349100D01*
X27781510Y-14379861D01*
X27781498Y-14379864D01*
X27635827Y-14440202D01*
X27635814Y-14440209D01*
X27504711Y-14527810D01*
X27504707Y-14527813D01*
X27393213Y-14639307D01*
X27393210Y-14639311D01*
X27305609Y-14770414D01*
X27305602Y-14770427D01*
X27245264Y-14916098D01*
X27245261Y-14916110D01*
X27214500Y-15070753D01*
X9559543Y-15070753D01*
X8272071Y-13783281D01*
X8238586Y-13721958D01*
X8243570Y-13652266D01*
X8285442Y-13596333D01*
X8350906Y-13571916D01*
X8359752Y-13571600D01*
X9983526Y-13571600D01*
X10050565Y-13591285D01*
X10096320Y-13644089D01*
X10105142Y-13671405D01*
X10112061Y-13706189D01*
X10112063Y-13706197D01*
X10112064Y-13706201D01*
X10172402Y-13851872D01*
X10172409Y-13851885D01*
X10260010Y-13982988D01*
X10260013Y-13982992D01*
X10371507Y-14094486D01*
X10371511Y-14094489D01*
X10502614Y-14182090D01*
X10502627Y-14182097D01*
X10648298Y-14242435D01*
X10648303Y-14242437D01*
X10802953Y-14273199D01*
X10802956Y-14273200D01*
X10802958Y-14273200D01*
X10960644Y-14273200D01*
X10960645Y-14273199D01*
X11115297Y-14242437D01*
X11260979Y-14182094D01*
X11392089Y-14094489D01*
X11503589Y-13982989D01*
X11591194Y-13851879D01*
X11651537Y-13706197D01*
X11682300Y-13551542D01*
X11682300Y-13393858D01*
X11682300Y-13393855D01*
X11682299Y-13393853D01*
X11651538Y-13239210D01*
X11651537Y-13239203D01*
X11651535Y-13239198D01*
X11591197Y-13093527D01*
X11591190Y-13093514D01*
X11503589Y-12962411D01*
X11503586Y-12962407D01*
X11392092Y-12850913D01*
X11392088Y-12850910D01*
X11260985Y-12763309D01*
X11260972Y-12763302D01*
X11115301Y-12702964D01*
X11115292Y-12702961D01*
X11080507Y-12696042D01*
X11018596Y-12663656D01*
X10984023Y-12602940D01*
X10980700Y-12574425D01*
X10980700Y-10121007D01*
X11000385Y-10053968D01*
X11017014Y-10033331D01*
X15320831Y-5729513D01*
X15382152Y-5696030D01*
X15384217Y-5695599D01*
X15451397Y-5682237D01*
X15597079Y-5621894D01*
X15653944Y-5583897D01*
X15720621Y-5563020D01*
X15722835Y-5563000D01*
X32935771Y-5563000D01*
X33020315Y-5546182D01*
X33061444Y-5538001D01*
X33179827Y-5488965D01*
X33286369Y-5417777D01*
X33378629Y-5325515D01*
X33439952Y-5292030D01*
X33442038Y-5291595D01*
X33509197Y-5278237D01*
X33654879Y-5217894D01*
X33711744Y-5179897D01*
X33778421Y-5159020D01*
X33780635Y-5159000D01*
X35193992Y-5159000D01*
X35261031Y-5178685D01*
X35281673Y-5195319D01*
X39643983Y-9557629D01*
X39677468Y-9618952D01*
X39677919Y-9621118D01*
X39691261Y-9688191D01*
X39691263Y-9688199D01*
X39751602Y-9833872D01*
X39751609Y-9833885D01*
X39839210Y-9964988D01*
X39839213Y-9964992D01*
X39950707Y-10076486D01*
X39950711Y-10076489D01*
X40081814Y-10164090D01*
X40081827Y-10164097D01*
X40227498Y-10224435D01*
X40227503Y-10224437D01*
X40382153Y-10255199D01*
X40382156Y-10255200D01*
X40382158Y-10255200D01*
X40539844Y-10255200D01*
X40539845Y-10255199D01*
X40694497Y-10224437D01*
X40840179Y-10164094D01*
X40971289Y-10076489D01*
X41082789Y-9964989D01*
X41170394Y-9833879D01*
X41230737Y-9688197D01*
X41261500Y-9533542D01*
X41261500Y-9375858D01*
X41261500Y-9375855D01*
X41261499Y-9375853D01*
X41230738Y-9221210D01*
X41230737Y-9221203D01*
X41230735Y-9221198D01*
X41170397Y-9075527D01*
X41170390Y-9075514D01*
X41082789Y-8944411D01*
X41082786Y-8944407D01*
X40971292Y-8832913D01*
X40971288Y-8832910D01*
X40840185Y-8745309D01*
X40840172Y-8745302D01*
X40694499Y-8684963D01*
X40694491Y-8684961D01*
X40627418Y-8671619D01*
X40565507Y-8639234D01*
X40563929Y-8637683D01*
X35929474Y-4003227D01*
X35929473Y-4003226D01*
X35929469Y-4003223D01*
X35822927Y-3932035D01*
X35704544Y-3882999D01*
X35704538Y-3882997D01*
X35578871Y-3858000D01*
X35578869Y-3858000D01*
X33780635Y-3858000D01*
X33713596Y-3838315D01*
X33711790Y-3837133D01*
X33654879Y-3799106D01*
X33654872Y-3799102D01*
X33509201Y-3738764D01*
X33509189Y-3738761D01*
X33354545Y-3708000D01*
X33354542Y-3708000D01*
X33196858Y-3708000D01*
X33196855Y-3708000D01*
X33042210Y-3738761D01*
X33042198Y-3738764D01*
X32896527Y-3799102D01*
X32896514Y-3799109D01*
X32765411Y-3886710D01*
X32765407Y-3886713D01*
X32653913Y-3998207D01*
X32653910Y-3998211D01*
X32566309Y-4129314D01*
X32566305Y-4129321D01*
X32551959Y-4163956D01*
X32543055Y-4185452D01*
X32499216Y-4239855D01*
X32432922Y-4261921D01*
X32428495Y-4262000D01*
X15722835Y-4262000D01*
X15655796Y-4242315D01*
X15653990Y-4241133D01*
X15597079Y-4203106D01*
X15597072Y-4203102D01*
X15451401Y-4142764D01*
X15451389Y-4142761D01*
X15296745Y-4112000D01*
X15296742Y-4112000D01*
X15139058Y-4112000D01*
X15139055Y-4112000D01*
X14984410Y-4142761D01*
X14984398Y-4142764D01*
X14838727Y-4203102D01*
X14838714Y-4203109D01*
X14707611Y-4290710D01*
X14707607Y-4290713D01*
X14596113Y-4402207D01*
X14596110Y-4402211D01*
X14508509Y-4533314D01*
X14508502Y-4533327D01*
X14448164Y-4678998D01*
X14448161Y-4679008D01*
X14434820Y-4746079D01*
X14402435Y-4807990D01*
X14400884Y-4809568D01*
X9824926Y-9385526D01*
X9753734Y-9492074D01*
X9704699Y-9610455D01*
X9704697Y-9610461D01*
X9679700Y-9736128D01*
X9679700Y-12146600D01*
X9660015Y-12213639D01*
X9607211Y-12259394D01*
X9555700Y-12270600D01*
X5881129Y-12270600D01*
X5755461Y-12295597D01*
X5755455Y-12295599D01*
X5637074Y-12344634D01*
X5530526Y-12415826D01*
X3055368Y-14890984D01*
X2994045Y-14924469D01*
X2991879Y-14924920D01*
X2924808Y-14938261D01*
X2924798Y-14938264D01*
X2779127Y-14998602D01*
X2779114Y-14998609D01*
X2648011Y-15086210D01*
X2648007Y-15086213D01*
X2536513Y-15197707D01*
X2536510Y-15197711D01*
X2448909Y-15328814D01*
X2448902Y-15328827D01*
X2388564Y-15474498D01*
X2388561Y-15474510D01*
X2357800Y-15629153D01*
X500500Y-15629153D01*
X500500Y-3378711D01*
X1649500Y-3378711D01*
X1649500Y-3621288D01*
X1681161Y-3861785D01*
X1743947Y-4096104D01*
X1804510Y-4242315D01*
X1836776Y-4320212D01*
X1958064Y-4530289D01*
X1958066Y-4530292D01*
X1958067Y-4530293D01*
X2105733Y-4722736D01*
X2105739Y-4722743D01*
X2277256Y-4894260D01*
X2277262Y-4894265D01*
X2469711Y-5041936D01*
X2679788Y-5163224D01*
X2903900Y-5256054D01*
X3138211Y-5318838D01*
X3318586Y-5342584D01*
X3378711Y-5350500D01*
X3378712Y-5350500D01*
X3621289Y-5350500D01*
X3669388Y-5344167D01*
X3861789Y-5318838D01*
X4096100Y-5256054D01*
X4320212Y-5163224D01*
X4530289Y-5041936D01*
X4722738Y-4894265D01*
X4894265Y-4722738D01*
X5041936Y-4530289D01*
X5163224Y-4320212D01*
X5256054Y-4096100D01*
X5318838Y-3861789D01*
X5350500Y-3621288D01*
X5350500Y-3378712D01*
X5350500Y-3378711D01*
X44649500Y-3378711D01*
X44649500Y-3621288D01*
X44681161Y-3861785D01*
X44743947Y-4096104D01*
X44804510Y-4242315D01*
X44836776Y-4320212D01*
X44958064Y-4530289D01*
X44958066Y-4530292D01*
X44958067Y-4530293D01*
X45105733Y-4722736D01*
X45105739Y-4722743D01*
X45277256Y-4894260D01*
X45277262Y-4894265D01*
X45469711Y-5041936D01*
X45679788Y-5163224D01*
X45903900Y-5256054D01*
X46138211Y-5318838D01*
X46318586Y-5342584D01*
X46378711Y-5350500D01*
X46378712Y-5350500D01*
X46621289Y-5350500D01*
X46669388Y-5344167D01*
X46861789Y-5318838D01*
X47096100Y-5256054D01*
X47320212Y-5163224D01*
X47530289Y-5041936D01*
X47722738Y-4894265D01*
X47894265Y-4722738D01*
X48041936Y-4530289D01*
X48163224Y-4320212D01*
X48256054Y-4096100D01*
X48318838Y-3861789D01*
X48350500Y-3621288D01*
X48350500Y-3378712D01*
X48318838Y-3138211D01*
X48256054Y-2903900D01*
X48163224Y-2679788D01*
X48041936Y-2469711D01*
X47894265Y-2277262D01*
X47894260Y-2277256D01*
X47722743Y-2105739D01*
X47722736Y-2105733D01*
X47530293Y-1958067D01*
X47530292Y-1958066D01*
X47530289Y-1958064D01*
X47335390Y-1845539D01*
X47320214Y-1836777D01*
X47320205Y-1836773D01*
X47096104Y-1743947D01*
X46861785Y-1681161D01*
X46621289Y-1649500D01*
X46621288Y-1649500D01*
X46378712Y-1649500D01*
X46378711Y-1649500D01*
X46138214Y-1681161D01*
X45903895Y-1743947D01*
X45679794Y-1836773D01*
X45679785Y-1836777D01*
X45469706Y-1958067D01*
X45277263Y-2105733D01*
X45277256Y-2105739D01*
X45105739Y-2277256D01*
X45105733Y-2277263D01*
X44958067Y-2469706D01*
X44836777Y-2679785D01*
X44836773Y-2679794D01*
X44743947Y-2903895D01*
X44681161Y-3138214D01*
X44649500Y-3378711D01*
X5350500Y-3378711D01*
X5318838Y-3138211D01*
X5256054Y-2903900D01*
X5163224Y-2679788D01*
X5041936Y-2469711D01*
X4894265Y-2277262D01*
X4894260Y-2277256D01*
X4722743Y-2105739D01*
X4722736Y-2105733D01*
X4530293Y-1958067D01*
X4530292Y-1958066D01*
X4530289Y-1958064D01*
X4335390Y-1845539D01*
X4320214Y-1836777D01*
X4320205Y-1836773D01*
X4096104Y-1743947D01*
X3861785Y-1681161D01*
X3621289Y-1649500D01*
X3621288Y-1649500D01*
X3378712Y-1649500D01*
X3378711Y-1649500D01*
X3138214Y-1681161D01*
X2903895Y-1743947D01*
X2679794Y-1836773D01*
X2679785Y-1836777D01*
X2469706Y-1958067D01*
X2277263Y-2105733D01*
X2277256Y-2105739D01*
X2105739Y-2277256D01*
X2105733Y-2277263D01*
X1958067Y-2469706D01*
X1836777Y-2679785D01*
X1836773Y-2679794D01*
X1743947Y-2903895D01*
X1681161Y-3138214D01*
X1649500Y-3378711D01*
X500500Y-3378711D01*
X500500Y-3003946D01*
X500729Y-2996418D01*
X518369Y-2706404D01*
X518370Y-2706403D01*
X518369Y-2706396D01*
X520175Y-2691555D01*
X571962Y-2409412D01*
X575545Y-2394896D01*
X660941Y-2121062D01*
X666250Y-2107075D01*
X666852Y-2105739D01*
X784015Y-1845530D01*
X790962Y-1832296D01*
X939390Y-1586829D01*
X947880Y-1574531D01*
X1124807Y-1348726D01*
X1134718Y-1337541D01*
X1337541Y-1134718D01*
X1348726Y-1124807D01*
X1574531Y-947880D01*
X1586829Y-939390D01*
X1832296Y-790962D01*
X1845530Y-784015D01*
X2107081Y-666247D01*
X2121062Y-660941D01*
X2394896Y-575545D01*
X2409412Y-571962D01*
X2691555Y-520175D01*
X2706396Y-518369D01*
X2968941Y-502400D01*
X2996418Y-500729D01*
X3003946Y-500500D01*
X46996054Y-500500D01*
X47003582Y-500729D01*
G37*
%TD.AperFunction*%
%TD*%
M02*
