%TF.GenerationSoftware,KiCad,Pcbnew,10.0.6*%
%TF.CreationDate,2026-09-26T09:36:52-05:00*%
%TF.ProjectId,neuromorphic-ir-event-sensor,6e657572-6f6d-46f7-9270-6869632d6972,rev?*%
%TF.SameCoordinates,Original*%
%TF.FileFunction,Other,Comment*%
%FSLAX46Y46*%
G04 Gerber Fmt 4.6, Leading zero omitted, Abs format (unit mm)*
G04 Created by KiCad (PCBNEW 10.0.6) date 2026-09-26 09:36:52*
%MOMM*%
%LPD*%
G01*
G04 APERTURE LIST*
%ADD10C,0.150000*%
%ADD11C,0.120000*%
G04 APERTURE END LIST*
%TO.C,H*%
D10*
X6700000Y-66500000D02*
G75*
G02*
X300000Y-66500000I-3200000J0D01*
G01*
X300000Y-66500000D02*
G75*
G02*
X6700000Y-66500000I3200000J0D01*
G01*
%TO.C,DPD3*%
D11*
X20925000Y-21650000D02*
X23575000Y-21650000D01*
X23575000Y-24300000D01*
X20925000Y-24300000D01*
X20925000Y-21650000D01*
%TO.C,H*%
D10*
X37200000Y-18000000D02*
G75*
G02*
X32800000Y-18000000I-2200000J0D01*
G01*
X32800000Y-18000000D02*
G75*
G02*
X37200000Y-18000000I2200000J0D01*
G01*
%TO.C,DPD2*%
D11*
X26425000Y-12650000D02*
X29075000Y-12650000D01*
X29075000Y-15300000D01*
X26425000Y-15300000D01*
X26425000Y-12650000D01*
%TO.C,DPD4*%
X26425000Y-21650000D02*
X29075000Y-21650000D01*
X29075000Y-24300000D01*
X26425000Y-24300000D01*
X26425000Y-21650000D01*
%TO.C,H*%
D10*
X49700000Y-66500000D02*
G75*
G02*
X43300000Y-66500000I-3200000J0D01*
G01*
X43300000Y-66500000D02*
G75*
G02*
X49700000Y-66500000I3200000J0D01*
G01*
X17200000Y-18000000D02*
G75*
G02*
X12800000Y-18000000I-2200000J0D01*
G01*
X12800000Y-18000000D02*
G75*
G02*
X17200000Y-18000000I2200000J0D01*
G01*
X6700000Y-3500000D02*
G75*
G02*
X300000Y-3500000I-3200000J0D01*
G01*
X300000Y-3500000D02*
G75*
G02*
X6700000Y-3500000I3200000J0D01*
G01*
%TO.C,DPD1*%
D11*
X20925000Y-12650000D02*
X23575000Y-12650000D01*
X23575000Y-15300000D01*
X20925000Y-15300000D01*
X20925000Y-12650000D01*
%TO.C,H*%
D10*
X49700000Y-3500000D02*
G75*
G02*
X43300000Y-3500000I-3200000J0D01*
G01*
X43300000Y-3500000D02*
G75*
G02*
X49700000Y-3500000I3200000J0D01*
G01*
%TD*%
M02*
