%TF.GenerationSoftware,KiCad,Pcbnew,10.0.6*%
%TF.CreationDate,2026-09-26T17:14:54-05:00*%
%TF.ProjectId,neuromorphic-ir-event-sensor,6e657572-6f6d-46f7-9270-6869632d6972,rev?*%
%TF.SameCoordinates,Original*%
%TF.FileFunction,Legend,Top*%
%TF.FilePolarity,Positive*%
%FSLAX46Y46*%
G04 Gerber Fmt 4.6, Leading zero omitted, Abs format (unit mm)*
G04 Created by KiCad (PCBNEW 10.0.6) date 2026-09-26 17:14:54*
%MOMM*%
%LPD*%
G01*
G04 APERTURE LIST*
%ADD10C,0.250000*%
%ADD11C,0.150000*%
%ADD12C,0.120000*%
G04 APERTURE END LIST*
D10*
X12000000Y-27200000D02*
X38000000Y-27200000D01*
D11*
X16695238Y-27562295D02*
X16847619Y-27562295D01*
X16847619Y-27562295D02*
X16923809Y-27600390D01*
X16923809Y-27600390D02*
X17000000Y-27676580D01*
X17000000Y-27676580D02*
X17038095Y-27828961D01*
X17038095Y-27828961D02*
X17038095Y-28095628D01*
X17038095Y-28095628D02*
X17000000Y-28248009D01*
X17000000Y-28248009D02*
X16923809Y-28324200D01*
X16923809Y-28324200D02*
X16847619Y-28362295D01*
X16847619Y-28362295D02*
X16695238Y-28362295D01*
X16695238Y-28362295D02*
X16619047Y-28324200D01*
X16619047Y-28324200D02*
X16542857Y-28248009D01*
X16542857Y-28248009D02*
X16504761Y-28095628D01*
X16504761Y-28095628D02*
X16504761Y-27828961D01*
X16504761Y-27828961D02*
X16542857Y-27676580D01*
X16542857Y-27676580D02*
X16619047Y-27600390D01*
X16619047Y-27600390D02*
X16695238Y-27562295D01*
X17380952Y-28362295D02*
X17380952Y-27562295D01*
X17380952Y-27562295D02*
X17685714Y-27562295D01*
X17685714Y-27562295D02*
X17761904Y-27600390D01*
X17761904Y-27600390D02*
X17799999Y-27638485D01*
X17799999Y-27638485D02*
X17838095Y-27714676D01*
X17838095Y-27714676D02*
X17838095Y-27828961D01*
X17838095Y-27828961D02*
X17799999Y-27905152D01*
X17799999Y-27905152D02*
X17761904Y-27943247D01*
X17761904Y-27943247D02*
X17685714Y-27981342D01*
X17685714Y-27981342D02*
X17380952Y-27981342D01*
X18066666Y-27562295D02*
X18523809Y-27562295D01*
X18295237Y-28362295D02*
X18295237Y-27562295D01*
X18790476Y-28362295D02*
X18790476Y-27562295D01*
X19628571Y-28286104D02*
X19590475Y-28324200D01*
X19590475Y-28324200D02*
X19476190Y-28362295D01*
X19476190Y-28362295D02*
X19399999Y-28362295D01*
X19399999Y-28362295D02*
X19285713Y-28324200D01*
X19285713Y-28324200D02*
X19209523Y-28248009D01*
X19209523Y-28248009D02*
X19171428Y-28171819D01*
X19171428Y-28171819D02*
X19133332Y-28019438D01*
X19133332Y-28019438D02*
X19133332Y-27905152D01*
X19133332Y-27905152D02*
X19171428Y-27752771D01*
X19171428Y-27752771D02*
X19209523Y-27676580D01*
X19209523Y-27676580D02*
X19285713Y-27600390D01*
X19285713Y-27600390D02*
X19399999Y-27562295D01*
X19399999Y-27562295D02*
X19476190Y-27562295D01*
X19476190Y-27562295D02*
X19590475Y-27600390D01*
X19590475Y-27600390D02*
X19628571Y-27638485D01*
X19933332Y-28133723D02*
X20314285Y-28133723D01*
X19857142Y-28362295D02*
X20123809Y-27562295D01*
X20123809Y-27562295D02*
X20390475Y-28362295D01*
X21038094Y-28362295D02*
X20657142Y-28362295D01*
X20657142Y-28362295D02*
X20657142Y-27562295D01*
X22180951Y-27943247D02*
X22295237Y-27981342D01*
X22295237Y-27981342D02*
X22333332Y-28019438D01*
X22333332Y-28019438D02*
X22371428Y-28095628D01*
X22371428Y-28095628D02*
X22371428Y-28209914D01*
X22371428Y-28209914D02*
X22333332Y-28286104D01*
X22333332Y-28286104D02*
X22295237Y-28324200D01*
X22295237Y-28324200D02*
X22219047Y-28362295D01*
X22219047Y-28362295D02*
X21914285Y-28362295D01*
X21914285Y-28362295D02*
X21914285Y-27562295D01*
X21914285Y-27562295D02*
X22180951Y-27562295D01*
X22180951Y-27562295D02*
X22257142Y-27600390D01*
X22257142Y-27600390D02*
X22295237Y-27638485D01*
X22295237Y-27638485D02*
X22333332Y-27714676D01*
X22333332Y-27714676D02*
X22333332Y-27790866D01*
X22333332Y-27790866D02*
X22295237Y-27867057D01*
X22295237Y-27867057D02*
X22257142Y-27905152D01*
X22257142Y-27905152D02*
X22180951Y-27943247D01*
X22180951Y-27943247D02*
X21914285Y-27943247D01*
X22676189Y-28133723D02*
X23057142Y-28133723D01*
X22599999Y-28362295D02*
X22866666Y-27562295D01*
X22866666Y-27562295D02*
X23133332Y-28362295D01*
X23857142Y-28362295D02*
X23590475Y-27981342D01*
X23399999Y-28362295D02*
X23399999Y-27562295D01*
X23399999Y-27562295D02*
X23704761Y-27562295D01*
X23704761Y-27562295D02*
X23780951Y-27600390D01*
X23780951Y-27600390D02*
X23819046Y-27638485D01*
X23819046Y-27638485D02*
X23857142Y-27714676D01*
X23857142Y-27714676D02*
X23857142Y-27828961D01*
X23857142Y-27828961D02*
X23819046Y-27905152D01*
X23819046Y-27905152D02*
X23780951Y-27943247D01*
X23780951Y-27943247D02*
X23704761Y-27981342D01*
X23704761Y-27981342D02*
X23399999Y-27981342D01*
X24657142Y-28362295D02*
X24390475Y-27981342D01*
X24199999Y-28362295D02*
X24199999Y-27562295D01*
X24199999Y-27562295D02*
X24504761Y-27562295D01*
X24504761Y-27562295D02*
X24580951Y-27600390D01*
X24580951Y-27600390D02*
X24619046Y-27638485D01*
X24619046Y-27638485D02*
X24657142Y-27714676D01*
X24657142Y-27714676D02*
X24657142Y-27828961D01*
X24657142Y-27828961D02*
X24619046Y-27905152D01*
X24619046Y-27905152D02*
X24580951Y-27943247D01*
X24580951Y-27943247D02*
X24504761Y-27981342D01*
X24504761Y-27981342D02*
X24199999Y-27981342D01*
X24999999Y-28362295D02*
X24999999Y-27562295D01*
X25380951Y-27943247D02*
X25647617Y-27943247D01*
X25761903Y-28362295D02*
X25380951Y-28362295D01*
X25380951Y-28362295D02*
X25380951Y-27562295D01*
X25380951Y-27562295D02*
X25761903Y-27562295D01*
X26561904Y-28362295D02*
X26295237Y-27981342D01*
X26104761Y-28362295D02*
X26104761Y-27562295D01*
X26104761Y-27562295D02*
X26409523Y-27562295D01*
X26409523Y-27562295D02*
X26485713Y-27600390D01*
X26485713Y-27600390D02*
X26523808Y-27638485D01*
X26523808Y-27638485D02*
X26561904Y-27714676D01*
X26561904Y-27714676D02*
X26561904Y-27828961D01*
X26561904Y-27828961D02*
X26523808Y-27905152D01*
X26523808Y-27905152D02*
X26485713Y-27943247D01*
X26485713Y-27943247D02*
X26409523Y-27981342D01*
X26409523Y-27981342D02*
X26104761Y-27981342D01*
X27514285Y-28362295D02*
X27514285Y-27562295D01*
X27971428Y-28362295D02*
X27628570Y-27905152D01*
X27971428Y-27562295D02*
X27514285Y-28019438D01*
X28314285Y-27943247D02*
X28580951Y-27943247D01*
X28695237Y-28362295D02*
X28314285Y-28362295D01*
X28314285Y-28362295D02*
X28314285Y-27562295D01*
X28314285Y-27562295D02*
X28695237Y-27562295D01*
X29038095Y-27943247D02*
X29304761Y-27943247D01*
X29419047Y-28362295D02*
X29038095Y-28362295D01*
X29038095Y-28362295D02*
X29038095Y-27562295D01*
X29038095Y-27562295D02*
X29419047Y-27562295D01*
X29761905Y-28362295D02*
X29761905Y-27562295D01*
X29761905Y-27562295D02*
X30066667Y-27562295D01*
X30066667Y-27562295D02*
X30142857Y-27600390D01*
X30142857Y-27600390D02*
X30180952Y-27638485D01*
X30180952Y-27638485D02*
X30219048Y-27714676D01*
X30219048Y-27714676D02*
X30219048Y-27828961D01*
X30219048Y-27828961D02*
X30180952Y-27905152D01*
X30180952Y-27905152D02*
X30142857Y-27943247D01*
X30142857Y-27943247D02*
X30066667Y-27981342D01*
X30066667Y-27981342D02*
X29761905Y-27981342D01*
X30561905Y-28057533D02*
X31171429Y-28057533D01*
X31704762Y-27562295D02*
X31857143Y-27562295D01*
X31857143Y-27562295D02*
X31933333Y-27600390D01*
X31933333Y-27600390D02*
X32009524Y-27676580D01*
X32009524Y-27676580D02*
X32047619Y-27828961D01*
X32047619Y-27828961D02*
X32047619Y-28095628D01*
X32047619Y-28095628D02*
X32009524Y-28248009D01*
X32009524Y-28248009D02*
X31933333Y-28324200D01*
X31933333Y-28324200D02*
X31857143Y-28362295D01*
X31857143Y-28362295D02*
X31704762Y-28362295D01*
X31704762Y-28362295D02*
X31628571Y-28324200D01*
X31628571Y-28324200D02*
X31552381Y-28248009D01*
X31552381Y-28248009D02*
X31514285Y-28095628D01*
X31514285Y-28095628D02*
X31514285Y-27828961D01*
X31514285Y-27828961D02*
X31552381Y-27676580D01*
X31552381Y-27676580D02*
X31628571Y-27600390D01*
X31628571Y-27600390D02*
X31704762Y-27562295D01*
X32390476Y-27562295D02*
X32390476Y-28209914D01*
X32390476Y-28209914D02*
X32428571Y-28286104D01*
X32428571Y-28286104D02*
X32466666Y-28324200D01*
X32466666Y-28324200D02*
X32542857Y-28362295D01*
X32542857Y-28362295D02*
X32695238Y-28362295D01*
X32695238Y-28362295D02*
X32771428Y-28324200D01*
X32771428Y-28324200D02*
X32809523Y-28286104D01*
X32809523Y-28286104D02*
X32847619Y-28209914D01*
X32847619Y-28209914D02*
X32847619Y-27562295D01*
X33114285Y-27562295D02*
X33571428Y-27562295D01*
X33342856Y-28362295D02*
X33342856Y-27562295D01*
X16809524Y-10954819D02*
X17380952Y-10954819D01*
X17095238Y-11954819D02*
X17095238Y-10954819D01*
X18190476Y-11954819D02*
X17714286Y-11954819D01*
X17714286Y-11954819D02*
X17714286Y-10954819D01*
X17166666Y-24431009D02*
X17309523Y-24478628D01*
X17309523Y-24478628D02*
X17357142Y-24526247D01*
X17357142Y-24526247D02*
X17404761Y-24621485D01*
X17404761Y-24621485D02*
X17404761Y-24764342D01*
X17404761Y-24764342D02*
X17357142Y-24859580D01*
X17357142Y-24859580D02*
X17309523Y-24907200D01*
X17309523Y-24907200D02*
X17214285Y-24954819D01*
X17214285Y-24954819D02*
X16833333Y-24954819D01*
X16833333Y-24954819D02*
X16833333Y-23954819D01*
X16833333Y-23954819D02*
X17166666Y-23954819D01*
X17166666Y-23954819D02*
X17261904Y-24002438D01*
X17261904Y-24002438D02*
X17309523Y-24050057D01*
X17309523Y-24050057D02*
X17357142Y-24145295D01*
X17357142Y-24145295D02*
X17357142Y-24240533D01*
X17357142Y-24240533D02*
X17309523Y-24335771D01*
X17309523Y-24335771D02*
X17261904Y-24383390D01*
X17261904Y-24383390D02*
X17166666Y-24431009D01*
X17166666Y-24431009D02*
X16833333Y-24431009D01*
X18309523Y-24954819D02*
X17833333Y-24954819D01*
X17833333Y-24954819D02*
X17833333Y-23954819D01*
X11904761Y-68454819D02*
X11571428Y-67978628D01*
X11333333Y-68454819D02*
X11333333Y-67454819D01*
X11333333Y-67454819D02*
X11714285Y-67454819D01*
X11714285Y-67454819D02*
X11809523Y-67502438D01*
X11809523Y-67502438D02*
X11857142Y-67550057D01*
X11857142Y-67550057D02*
X11904761Y-67645295D01*
X11904761Y-67645295D02*
X11904761Y-67788152D01*
X11904761Y-67788152D02*
X11857142Y-67883390D01*
X11857142Y-67883390D02*
X11809523Y-67931009D01*
X11809523Y-67931009D02*
X11714285Y-67978628D01*
X11714285Y-67978628D02*
X11333333Y-67978628D01*
X12333333Y-67931009D02*
X12666666Y-67931009D01*
X12809523Y-68454819D02*
X12333333Y-68454819D01*
X12333333Y-68454819D02*
X12333333Y-67454819D01*
X12333333Y-67454819D02*
X12809523Y-67454819D01*
X13095238Y-67454819D02*
X13428571Y-68454819D01*
X13428571Y-68454819D02*
X13761904Y-67454819D01*
X14809524Y-68169104D02*
X15285714Y-68169104D01*
X14714286Y-68454819D02*
X15047619Y-67454819D01*
X15047619Y-67454819D02*
X15380952Y-68454819D01*
X16476191Y-68073866D02*
X17238096Y-68073866D01*
X18476191Y-68454819D02*
X18476191Y-67454819D01*
X18476191Y-67454819D02*
X19047619Y-68454819D01*
X19047619Y-68454819D02*
X19047619Y-67454819D01*
X19523810Y-67931009D02*
X19857143Y-67931009D01*
X20000000Y-68454819D02*
X19523810Y-68454819D01*
X19523810Y-68454819D02*
X19523810Y-67454819D01*
X19523810Y-67454819D02*
X20000000Y-67454819D01*
X20428572Y-67454819D02*
X20428572Y-68264342D01*
X20428572Y-68264342D02*
X20476191Y-68359580D01*
X20476191Y-68359580D02*
X20523810Y-68407200D01*
X20523810Y-68407200D02*
X20619048Y-68454819D01*
X20619048Y-68454819D02*
X20809524Y-68454819D01*
X20809524Y-68454819D02*
X20904762Y-68407200D01*
X20904762Y-68407200D02*
X20952381Y-68359580D01*
X20952381Y-68359580D02*
X21000000Y-68264342D01*
X21000000Y-68264342D02*
X21000000Y-67454819D01*
X22047619Y-68454819D02*
X21714286Y-67978628D01*
X21476191Y-68454819D02*
X21476191Y-67454819D01*
X21476191Y-67454819D02*
X21857143Y-67454819D01*
X21857143Y-67454819D02*
X21952381Y-67502438D01*
X21952381Y-67502438D02*
X22000000Y-67550057D01*
X22000000Y-67550057D02*
X22047619Y-67645295D01*
X22047619Y-67645295D02*
X22047619Y-67788152D01*
X22047619Y-67788152D02*
X22000000Y-67883390D01*
X22000000Y-67883390D02*
X21952381Y-67931009D01*
X21952381Y-67931009D02*
X21857143Y-67978628D01*
X21857143Y-67978628D02*
X21476191Y-67978628D01*
X22666667Y-67454819D02*
X22857143Y-67454819D01*
X22857143Y-67454819D02*
X22952381Y-67502438D01*
X22952381Y-67502438D02*
X23047619Y-67597676D01*
X23047619Y-67597676D02*
X23095238Y-67788152D01*
X23095238Y-67788152D02*
X23095238Y-68121485D01*
X23095238Y-68121485D02*
X23047619Y-68311961D01*
X23047619Y-68311961D02*
X22952381Y-68407200D01*
X22952381Y-68407200D02*
X22857143Y-68454819D01*
X22857143Y-68454819D02*
X22666667Y-68454819D01*
X22666667Y-68454819D02*
X22571429Y-68407200D01*
X22571429Y-68407200D02*
X22476191Y-68311961D01*
X22476191Y-68311961D02*
X22428572Y-68121485D01*
X22428572Y-68121485D02*
X22428572Y-67788152D01*
X22428572Y-67788152D02*
X22476191Y-67597676D01*
X22476191Y-67597676D02*
X22571429Y-67502438D01*
X22571429Y-67502438D02*
X22666667Y-67454819D01*
X23523810Y-68454819D02*
X23523810Y-67454819D01*
X23523810Y-67454819D02*
X23857143Y-68169104D01*
X23857143Y-68169104D02*
X24190476Y-67454819D01*
X24190476Y-67454819D02*
X24190476Y-68454819D01*
X24857143Y-67454819D02*
X25047619Y-67454819D01*
X25047619Y-67454819D02*
X25142857Y-67502438D01*
X25142857Y-67502438D02*
X25238095Y-67597676D01*
X25238095Y-67597676D02*
X25285714Y-67788152D01*
X25285714Y-67788152D02*
X25285714Y-68121485D01*
X25285714Y-68121485D02*
X25238095Y-68311961D01*
X25238095Y-68311961D02*
X25142857Y-68407200D01*
X25142857Y-68407200D02*
X25047619Y-68454819D01*
X25047619Y-68454819D02*
X24857143Y-68454819D01*
X24857143Y-68454819D02*
X24761905Y-68407200D01*
X24761905Y-68407200D02*
X24666667Y-68311961D01*
X24666667Y-68311961D02*
X24619048Y-68121485D01*
X24619048Y-68121485D02*
X24619048Y-67788152D01*
X24619048Y-67788152D02*
X24666667Y-67597676D01*
X24666667Y-67597676D02*
X24761905Y-67502438D01*
X24761905Y-67502438D02*
X24857143Y-67454819D01*
X26285714Y-68454819D02*
X25952381Y-67978628D01*
X25714286Y-68454819D02*
X25714286Y-67454819D01*
X25714286Y-67454819D02*
X26095238Y-67454819D01*
X26095238Y-67454819D02*
X26190476Y-67502438D01*
X26190476Y-67502438D02*
X26238095Y-67550057D01*
X26238095Y-67550057D02*
X26285714Y-67645295D01*
X26285714Y-67645295D02*
X26285714Y-67788152D01*
X26285714Y-67788152D02*
X26238095Y-67883390D01*
X26238095Y-67883390D02*
X26190476Y-67931009D01*
X26190476Y-67931009D02*
X26095238Y-67978628D01*
X26095238Y-67978628D02*
X25714286Y-67978628D01*
X26714286Y-68454819D02*
X26714286Y-67454819D01*
X26714286Y-67454819D02*
X27095238Y-67454819D01*
X27095238Y-67454819D02*
X27190476Y-67502438D01*
X27190476Y-67502438D02*
X27238095Y-67550057D01*
X27238095Y-67550057D02*
X27285714Y-67645295D01*
X27285714Y-67645295D02*
X27285714Y-67788152D01*
X27285714Y-67788152D02*
X27238095Y-67883390D01*
X27238095Y-67883390D02*
X27190476Y-67931009D01*
X27190476Y-67931009D02*
X27095238Y-67978628D01*
X27095238Y-67978628D02*
X26714286Y-67978628D01*
X27714286Y-68454819D02*
X27714286Y-67454819D01*
X27714286Y-67931009D02*
X28285714Y-67931009D01*
X28285714Y-68454819D02*
X28285714Y-67454819D01*
X28761905Y-68454819D02*
X28761905Y-67454819D01*
X29809523Y-68359580D02*
X29761904Y-68407200D01*
X29761904Y-68407200D02*
X29619047Y-68454819D01*
X29619047Y-68454819D02*
X29523809Y-68454819D01*
X29523809Y-68454819D02*
X29380952Y-68407200D01*
X29380952Y-68407200D02*
X29285714Y-68311961D01*
X29285714Y-68311961D02*
X29238095Y-68216723D01*
X29238095Y-68216723D02*
X29190476Y-68026247D01*
X29190476Y-68026247D02*
X29190476Y-67883390D01*
X29190476Y-67883390D02*
X29238095Y-67692914D01*
X29238095Y-67692914D02*
X29285714Y-67597676D01*
X29285714Y-67597676D02*
X29380952Y-67502438D01*
X29380952Y-67502438D02*
X29523809Y-67454819D01*
X29523809Y-67454819D02*
X29619047Y-67454819D01*
X29619047Y-67454819D02*
X29761904Y-67502438D01*
X29761904Y-67502438D02*
X29809523Y-67550057D01*
X31000000Y-68454819D02*
X31000000Y-67454819D01*
X32047618Y-68454819D02*
X31714285Y-67978628D01*
X31476190Y-68454819D02*
X31476190Y-67454819D01*
X31476190Y-67454819D02*
X31857142Y-67454819D01*
X31857142Y-67454819D02*
X31952380Y-67502438D01*
X31952380Y-67502438D02*
X31999999Y-67550057D01*
X31999999Y-67550057D02*
X32047618Y-67645295D01*
X32047618Y-67645295D02*
X32047618Y-67788152D01*
X32047618Y-67788152D02*
X31999999Y-67883390D01*
X31999999Y-67883390D02*
X31952380Y-67931009D01*
X31952380Y-67931009D02*
X31857142Y-67978628D01*
X31857142Y-67978628D02*
X31476190Y-67978628D01*
X33190476Y-68407200D02*
X33333333Y-68454819D01*
X33333333Y-68454819D02*
X33571428Y-68454819D01*
X33571428Y-68454819D02*
X33666666Y-68407200D01*
X33666666Y-68407200D02*
X33714285Y-68359580D01*
X33714285Y-68359580D02*
X33761904Y-68264342D01*
X33761904Y-68264342D02*
X33761904Y-68169104D01*
X33761904Y-68169104D02*
X33714285Y-68073866D01*
X33714285Y-68073866D02*
X33666666Y-68026247D01*
X33666666Y-68026247D02*
X33571428Y-67978628D01*
X33571428Y-67978628D02*
X33380952Y-67931009D01*
X33380952Y-67931009D02*
X33285714Y-67883390D01*
X33285714Y-67883390D02*
X33238095Y-67835771D01*
X33238095Y-67835771D02*
X33190476Y-67740533D01*
X33190476Y-67740533D02*
X33190476Y-67645295D01*
X33190476Y-67645295D02*
X33238095Y-67550057D01*
X33238095Y-67550057D02*
X33285714Y-67502438D01*
X33285714Y-67502438D02*
X33380952Y-67454819D01*
X33380952Y-67454819D02*
X33619047Y-67454819D01*
X33619047Y-67454819D02*
X33761904Y-67502438D01*
X34190476Y-67931009D02*
X34523809Y-67931009D01*
X34666666Y-68454819D02*
X34190476Y-68454819D01*
X34190476Y-68454819D02*
X34190476Y-67454819D01*
X34190476Y-67454819D02*
X34666666Y-67454819D01*
X35095238Y-68454819D02*
X35095238Y-67454819D01*
X35095238Y-67454819D02*
X35666666Y-68454819D01*
X35666666Y-68454819D02*
X35666666Y-67454819D01*
X36095238Y-68407200D02*
X36238095Y-68454819D01*
X36238095Y-68454819D02*
X36476190Y-68454819D01*
X36476190Y-68454819D02*
X36571428Y-68407200D01*
X36571428Y-68407200D02*
X36619047Y-68359580D01*
X36619047Y-68359580D02*
X36666666Y-68264342D01*
X36666666Y-68264342D02*
X36666666Y-68169104D01*
X36666666Y-68169104D02*
X36619047Y-68073866D01*
X36619047Y-68073866D02*
X36571428Y-68026247D01*
X36571428Y-68026247D02*
X36476190Y-67978628D01*
X36476190Y-67978628D02*
X36285714Y-67931009D01*
X36285714Y-67931009D02*
X36190476Y-67883390D01*
X36190476Y-67883390D02*
X36142857Y-67835771D01*
X36142857Y-67835771D02*
X36095238Y-67740533D01*
X36095238Y-67740533D02*
X36095238Y-67645295D01*
X36095238Y-67645295D02*
X36142857Y-67550057D01*
X36142857Y-67550057D02*
X36190476Y-67502438D01*
X36190476Y-67502438D02*
X36285714Y-67454819D01*
X36285714Y-67454819D02*
X36523809Y-67454819D01*
X36523809Y-67454819D02*
X36666666Y-67502438D01*
X37285714Y-67454819D02*
X37476190Y-67454819D01*
X37476190Y-67454819D02*
X37571428Y-67502438D01*
X37571428Y-67502438D02*
X37666666Y-67597676D01*
X37666666Y-67597676D02*
X37714285Y-67788152D01*
X37714285Y-67788152D02*
X37714285Y-68121485D01*
X37714285Y-68121485D02*
X37666666Y-68311961D01*
X37666666Y-68311961D02*
X37571428Y-68407200D01*
X37571428Y-68407200D02*
X37476190Y-68454819D01*
X37476190Y-68454819D02*
X37285714Y-68454819D01*
X37285714Y-68454819D02*
X37190476Y-68407200D01*
X37190476Y-68407200D02*
X37095238Y-68311961D01*
X37095238Y-68311961D02*
X37047619Y-68121485D01*
X37047619Y-68121485D02*
X37047619Y-67788152D01*
X37047619Y-67788152D02*
X37095238Y-67597676D01*
X37095238Y-67597676D02*
X37190476Y-67502438D01*
X37190476Y-67502438D02*
X37285714Y-67454819D01*
X38714285Y-68454819D02*
X38380952Y-67978628D01*
X38142857Y-68454819D02*
X38142857Y-67454819D01*
X38142857Y-67454819D02*
X38523809Y-67454819D01*
X38523809Y-67454819D02*
X38619047Y-67502438D01*
X38619047Y-67502438D02*
X38666666Y-67550057D01*
X38666666Y-67550057D02*
X38714285Y-67645295D01*
X38714285Y-67645295D02*
X38714285Y-67788152D01*
X38714285Y-67788152D02*
X38666666Y-67883390D01*
X38666666Y-67883390D02*
X38619047Y-67931009D01*
X38619047Y-67931009D02*
X38523809Y-67978628D01*
X38523809Y-67978628D02*
X38142857Y-67978628D01*
X31714286Y-10954819D02*
X32285714Y-10954819D01*
X32000000Y-11954819D02*
X32000000Y-10954819D01*
X33190476Y-11954819D02*
X32857143Y-11478628D01*
X32619048Y-11954819D02*
X32619048Y-10954819D01*
X32619048Y-10954819D02*
X33000000Y-10954819D01*
X33000000Y-10954819D02*
X33095238Y-11002438D01*
X33095238Y-11002438D02*
X33142857Y-11050057D01*
X33142857Y-11050057D02*
X33190476Y-11145295D01*
X33190476Y-11145295D02*
X33190476Y-11288152D01*
X33190476Y-11288152D02*
X33142857Y-11383390D01*
X33142857Y-11383390D02*
X33095238Y-11431009D01*
X33095238Y-11431009D02*
X33000000Y-11478628D01*
X33000000Y-11478628D02*
X32619048Y-11478628D01*
X32071428Y-24431009D02*
X32214285Y-24478628D01*
X32214285Y-24478628D02*
X32261904Y-24526247D01*
X32261904Y-24526247D02*
X32309523Y-24621485D01*
X32309523Y-24621485D02*
X32309523Y-24764342D01*
X32309523Y-24764342D02*
X32261904Y-24859580D01*
X32261904Y-24859580D02*
X32214285Y-24907200D01*
X32214285Y-24907200D02*
X32119047Y-24954819D01*
X32119047Y-24954819D02*
X31738095Y-24954819D01*
X31738095Y-24954819D02*
X31738095Y-23954819D01*
X31738095Y-23954819D02*
X32071428Y-23954819D01*
X32071428Y-23954819D02*
X32166666Y-24002438D01*
X32166666Y-24002438D02*
X32214285Y-24050057D01*
X32214285Y-24050057D02*
X32261904Y-24145295D01*
X32261904Y-24145295D02*
X32261904Y-24240533D01*
X32261904Y-24240533D02*
X32214285Y-24335771D01*
X32214285Y-24335771D02*
X32166666Y-24383390D01*
X32166666Y-24383390D02*
X32071428Y-24431009D01*
X32071428Y-24431009D02*
X31738095Y-24431009D01*
X33309523Y-24954819D02*
X32976190Y-24478628D01*
X32738095Y-24954819D02*
X32738095Y-23954819D01*
X32738095Y-23954819D02*
X33119047Y-23954819D01*
X33119047Y-23954819D02*
X33214285Y-24002438D01*
X33214285Y-24002438D02*
X33261904Y-24050057D01*
X33261904Y-24050057D02*
X33309523Y-24145295D01*
X33309523Y-24145295D02*
X33309523Y-24288152D01*
X33309523Y-24288152D02*
X33261904Y-24383390D01*
X33261904Y-24383390D02*
X33214285Y-24431009D01*
X33214285Y-24431009D02*
X33119047Y-24478628D01*
X33119047Y-24478628D02*
X32738095Y-24478628D01*
%TO.C,CF3*%
D12*
X7359420Y-16990000D02*
X7640580Y-16990000D01*
X7359420Y-18010000D02*
X7640580Y-18010000D01*
%TO.C,RF4*%
X42262742Y-18977500D02*
X42737258Y-18977500D01*
X42262742Y-20022500D02*
X42737258Y-20022500D01*
%TO.C,DPD3*%
X20050000Y-20100000D02*
X20050000Y-24900000D01*
X20050000Y-24900000D02*
X20850000Y-24900000D01*
X20850000Y-20100000D02*
X20050000Y-20100000D01*
X20850000Y-24910000D02*
X20850000Y-26090000D01*
X23560000Y-24900000D02*
X24450000Y-24900000D01*
X23560000Y-26090000D02*
X23560000Y-24900000D01*
X24450000Y-20100000D02*
X23560000Y-20100000D01*
X24450000Y-24900000D02*
X24450000Y-20100000D01*
%TO.C,C_DEC_TIA2*%
X46490000Y-14140580D02*
X46490000Y-13859420D01*
X47510000Y-14140580D02*
X47510000Y-13859420D01*
%TO.C,RTHP_A*%
X34762742Y-2977500D02*
X35237258Y-2977500D01*
X34762742Y-4022500D02*
X35237258Y-4022500D01*
%TO.C,LED1*%
X23710000Y-30455000D02*
X23710000Y-33545000D01*
X23710000Y-30455170D02*
G75*
G02*
X29260000Y-32000000I2560000J-1544830D01*
G01*
X29260000Y-32000000D02*
G75*
G02*
X23710000Y-33544830I-2990000J0D01*
G01*
X28770000Y-32000000D02*
G75*
G02*
X23770000Y-32000000I-2500000J0D01*
G01*
X23770000Y-32000000D02*
G75*
G02*
X28770000Y-32000000I2500000J0D01*
G01*
%TO.C,DPD2*%
X25550000Y-11100000D02*
X25550000Y-15900000D01*
X25550000Y-15900000D02*
X26350000Y-15900000D01*
X26350000Y-11100000D02*
X25550000Y-11100000D01*
X26350000Y-15910000D02*
X26350000Y-17090000D01*
X29060000Y-15900000D02*
X29950000Y-15900000D01*
X29060000Y-17090000D02*
X29060000Y-15900000D01*
X29950000Y-11100000D02*
X29060000Y-11100000D01*
X29950000Y-15900000D02*
X29950000Y-11100000D01*
%TO.C,U_CMP4*%
X40440000Y-42940000D02*
X44560000Y-42940000D01*
X40440000Y-43035000D02*
X40440000Y-42940000D01*
X40440000Y-48060000D02*
X40440000Y-47965000D01*
X44560000Y-42940000D02*
X44560000Y-43035000D01*
X44560000Y-47965000D02*
X44560000Y-48060000D01*
X44560000Y-48060000D02*
X40440000Y-48060000D01*
X39900000Y-43030000D02*
X39660000Y-42700000D01*
X40140000Y-42700000D01*
X39900000Y-43030000D01*
G36*
X39900000Y-43030000D02*
G01*
X39660000Y-42700000D01*
X40140000Y-42700000D01*
X39900000Y-43030000D01*
G37*
%TO.C,ROUT_ON_BL*%
X30762742Y-54677500D02*
X31237258Y-54677500D01*
X30762742Y-55722500D02*
X31237258Y-55722500D01*
%TO.C,U_OS_ON_BL*%
X29894432Y-51815000D02*
X32260000Y-51815000D01*
X32260000Y-54185000D02*
X29740000Y-54185000D01*
X29600000Y-51810000D02*
X29460000Y-51620000D01*
X29740000Y-51620000D01*
X29600000Y-51810000D01*
G36*
X29600000Y-51810000D02*
G01*
X29460000Y-51620000D01*
X29740000Y-51620000D01*
X29600000Y-51810000D01*
G37*
%TO.C,CF2*%
X42359420Y-7990000D02*
X42640580Y-7990000D01*
X42359420Y-9010000D02*
X42640580Y-9010000D01*
%TO.C,ROS_OFF_BL*%
X27077500Y-57737258D02*
X27077500Y-57262742D01*
X28122500Y-57737258D02*
X28122500Y-57262742D01*
%TO.C,CREF1*%
X27359420Y-3990000D02*
X27640580Y-3990000D01*
X27359420Y-5010000D02*
X27640580Y-5010000D01*
%TO.C,ROS_OFF_TR*%
X15077500Y-57737258D02*
X15077500Y-57262742D01*
X16122500Y-57737258D02*
X16122500Y-57262742D01*
%TO.C,ROUT_OFF_BL*%
X30762742Y-59277500D02*
X31237258Y-59277500D01*
X30762742Y-60322500D02*
X31237258Y-60322500D01*
%TO.C,C_DEC_CMP3*%
X30859420Y-48990000D02*
X31140580Y-48990000D01*
X30859420Y-50010000D02*
X31140580Y-50010000D01*
%TO.C,ROS_OFF_TL*%
X3577500Y-57737258D02*
X3577500Y-57262742D01*
X4622500Y-57737258D02*
X4622500Y-57262742D01*
%TO.C,COS_OFF_BL*%
X33890000Y-57640580D02*
X33890000Y-57359420D01*
X34910000Y-57640580D02*
X34910000Y-57359420D01*
%TO.C,U_CMP1*%
X5440000Y-42940000D02*
X9560000Y-42940000D01*
X5440000Y-43035000D02*
X5440000Y-42940000D01*
X5440000Y-48060000D02*
X5440000Y-47965000D01*
X9560000Y-42940000D02*
X9560000Y-43035000D01*
X9560000Y-47965000D02*
X9560000Y-48060000D01*
X9560000Y-48060000D02*
X5440000Y-48060000D01*
X4900000Y-43030000D02*
X4660000Y-42700000D01*
X5140000Y-42700000D01*
X4900000Y-43030000D01*
G36*
X4900000Y-43030000D02*
G01*
X4660000Y-42700000D01*
X5140000Y-42700000D01*
X4900000Y-43030000D01*
G37*
%TO.C,U_OS_ON_TR*%
X17894432Y-51815000D02*
X20260000Y-51815000D01*
X20260000Y-54185000D02*
X17740000Y-54185000D01*
X17600000Y-51810000D02*
X17460000Y-51620000D01*
X17740000Y-51620000D01*
X17600000Y-51810000D01*
G36*
X17600000Y-51810000D02*
G01*
X17460000Y-51620000D01*
X17740000Y-51620000D01*
X17600000Y-51810000D01*
G37*
%TO.C,C_BULK_A*%
X17238748Y-3765000D02*
X17761252Y-3765000D01*
X17238748Y-5235000D02*
X17761252Y-5235000D01*
%TO.C,C_DEC_TIA1*%
X2490000Y-14140580D02*
X2490000Y-13859420D01*
X3510000Y-14140580D02*
X3510000Y-13859420D01*
%TO.C,Q1*%
X30740000Y-30440000D02*
X32260000Y-30440000D01*
X30740000Y-30490000D02*
X30740000Y-30440000D01*
X30740000Y-32390000D02*
X30740000Y-31610000D01*
X30740000Y-33560000D02*
X30740000Y-33510000D01*
X32260000Y-30440000D02*
X32260000Y-31440000D01*
X32260000Y-32560000D02*
X32260000Y-33560000D01*
X32260000Y-33560000D02*
X30740000Y-33560000D01*
X30200000Y-31620000D02*
X30440000Y-31950000D01*
X29960000Y-31950000D01*
X30200000Y-31620000D01*
G36*
X30440000Y-31950000D02*
G01*
X29960000Y-31950000D01*
X30200000Y-31620000D01*
X30440000Y-31950000D01*
G37*
%TO.C,RA3*%
X30762742Y-39977500D02*
X31237258Y-39977500D01*
X30762742Y-41022500D02*
X31237258Y-41022500D01*
%TO.C,U_OS_OFF_TL*%
X6394432Y-56315000D02*
X8760000Y-56315000D01*
X8760000Y-58685000D02*
X6240000Y-58685000D01*
X6100000Y-56310000D02*
X5960000Y-56120000D01*
X6240000Y-56120000D01*
X6100000Y-56310000D01*
G36*
X6100000Y-56310000D02*
G01*
X5960000Y-56120000D01*
X6240000Y-56120000D01*
X6100000Y-56310000D01*
G37*
%TO.C,DPD4*%
X25550000Y-20100000D02*
X25550000Y-24900000D01*
X25550000Y-24900000D02*
X26350000Y-24900000D01*
X26350000Y-20100000D02*
X25550000Y-20100000D01*
X26350000Y-24910000D02*
X26350000Y-26090000D01*
X29060000Y-24900000D02*
X29950000Y-24900000D01*
X29060000Y-26090000D02*
X29060000Y-24900000D01*
X29950000Y-20100000D02*
X29060000Y-20100000D01*
X29950000Y-24900000D02*
X29950000Y-20100000D01*
%TO.C,COS_ON_TL*%
X10390000Y-53140580D02*
X10390000Y-52859420D01*
X11410000Y-53140580D02*
X11410000Y-52859420D01*
%TO.C,RTHP_B*%
X38262742Y-2977500D02*
X38737258Y-2977500D01*
X38262742Y-4022500D02*
X38737258Y-4022500D01*
%TO.C,ROS_OFF_BR*%
X38577500Y-57737258D02*
X38577500Y-57262742D01*
X39622500Y-57737258D02*
X39622500Y-57262742D01*
%TO.C,ROUT_ON_TR*%
X18762742Y-54677500D02*
X19237258Y-54677500D01*
X18762742Y-55722500D02*
X19237258Y-55722500D01*
%TO.C,RTHN_A*%
X38262742Y-5477500D02*
X38737258Y-5477500D01*
X38262742Y-6522500D02*
X38737258Y-6522500D01*
%TO.C,CREF2*%
X30359420Y-3990000D02*
X30640580Y-3990000D01*
X30359420Y-5010000D02*
X30640580Y-5010000D01*
%TO.C,U_TIA1*%
X5890000Y-12390000D02*
X9110000Y-12390000D01*
X5890000Y-12565000D02*
X5890000Y-12390000D01*
X5890000Y-15610000D02*
X5890000Y-15435000D01*
X9110000Y-12390000D02*
X9110000Y-12565000D01*
X9110000Y-15435000D02*
X9110000Y-15610000D01*
X9110000Y-15610000D02*
X5890000Y-15610000D01*
X5340000Y-12560000D02*
X5100000Y-12230000D01*
X5580000Y-12230000D01*
X5340000Y-12560000D01*
G36*
X5340000Y-12560000D02*
G01*
X5100000Y-12230000D01*
X5580000Y-12230000D01*
X5340000Y-12560000D01*
G37*
%TO.C,C_DEC_CMP1*%
X7359420Y-48990000D02*
X7640580Y-48990000D01*
X7359420Y-50010000D02*
X7640580Y-50010000D01*
%TO.C,RLED*%
X17590000Y-32727064D02*
X17590000Y-31272936D01*
X19410000Y-32727064D02*
X19410000Y-31272936D01*
%TO.C,RPD*%
X36262742Y-32977500D02*
X36737258Y-32977500D01*
X36262742Y-34022500D02*
X36737258Y-34022500D01*
%TO.C,C_DEC_TIA4*%
X46490000Y-23140580D02*
X46490000Y-22859420D01*
X47510000Y-23140580D02*
X47510000Y-22859420D01*
%TO.C,COS_ON_BR*%
X45390000Y-53140580D02*
X45390000Y-52859420D01*
X46410000Y-53140580D02*
X46410000Y-52859420D01*
%TO.C,U_TIA3*%
X5890000Y-21390000D02*
X9110000Y-21390000D01*
X5890000Y-21565000D02*
X5890000Y-21390000D01*
X5890000Y-24610000D02*
X5890000Y-24435000D01*
X9110000Y-21390000D02*
X9110000Y-21565000D01*
X9110000Y-24435000D02*
X9110000Y-24610000D01*
X9110000Y-24610000D02*
X5890000Y-24610000D01*
X5340000Y-21560000D02*
X5100000Y-21230000D01*
X5580000Y-21230000D01*
X5340000Y-21560000D01*
G36*
X5340000Y-21560000D02*
G01*
X5100000Y-21230000D01*
X5580000Y-21230000D01*
X5340000Y-21560000D01*
G37*
%TO.C,RTHN_B*%
X34762742Y-5477500D02*
X35237258Y-5477500D01*
X34762742Y-6522500D02*
X35237258Y-6522500D01*
%TO.C,U_OS_ON_TL*%
X6394432Y-51815000D02*
X8760000Y-51815000D01*
X8760000Y-54185000D02*
X6240000Y-54185000D01*
X6100000Y-51810000D02*
X5960000Y-51620000D01*
X6240000Y-51620000D01*
X6100000Y-51810000D01*
G36*
X6100000Y-51810000D02*
G01*
X5960000Y-51620000D01*
X6240000Y-51620000D01*
X6100000Y-51810000D01*
G37*
%TO.C,U_REF*%
X22090000Y-2940000D02*
X23910000Y-2940000D01*
X22090000Y-2990000D02*
X22090000Y-2940000D01*
X22090000Y-4890000D02*
X22090000Y-4110000D01*
X22090000Y-6060000D02*
X22090000Y-6010000D01*
X23910000Y-2940000D02*
X23910000Y-3940000D01*
X23910000Y-5060000D02*
X23910000Y-6060000D01*
X23910000Y-6060000D02*
X22090000Y-6060000D01*
X21550000Y-4120000D02*
X21790000Y-4450000D01*
X21310000Y-4450000D01*
X21550000Y-4120000D01*
G36*
X21790000Y-4450000D02*
G01*
X21310000Y-4450000D01*
X21550000Y-4120000D01*
X21790000Y-4450000D01*
G37*
%TO.C,COS_ON_BL*%
X33890000Y-53140580D02*
X33890000Y-52859420D01*
X34910000Y-53140580D02*
X34910000Y-52859420D01*
%TO.C,C_DEC_CMP2*%
X18859420Y-48990000D02*
X19140580Y-48990000D01*
X18859420Y-50010000D02*
X19140580Y-50010000D01*
%TO.C,ROUT_ON_TL*%
X7262742Y-54677500D02*
X7737258Y-54677500D01*
X7262742Y-55722500D02*
X7737258Y-55722500D01*
%TO.C,C_BULK_D*%
X9238748Y-3765000D02*
X9761252Y-3765000D01*
X9238748Y-5235000D02*
X9761252Y-5235000D01*
%TO.C,U_TIA4*%
X40890000Y-21390000D02*
X44110000Y-21390000D01*
X40890000Y-21565000D02*
X40890000Y-21390000D01*
X40890000Y-24610000D02*
X40890000Y-24435000D01*
X44110000Y-21390000D02*
X44110000Y-21565000D01*
X44110000Y-24435000D02*
X44110000Y-24610000D01*
X44110000Y-24610000D02*
X40890000Y-24610000D01*
X44660000Y-24440000D02*
X44900000Y-24770000D01*
X44420000Y-24770000D01*
X44660000Y-24440000D01*
G36*
X44900000Y-24770000D02*
G01*
X44420000Y-24770000D01*
X44660000Y-24440000D01*
X44900000Y-24770000D01*
G37*
%TO.C,RA2*%
X18762742Y-39977500D02*
X19237258Y-39977500D01*
X18762742Y-41022500D02*
X19237258Y-41022500D01*
%TO.C,RF3*%
X7262742Y-18977500D02*
X7737258Y-18977500D01*
X7262742Y-20022500D02*
X7737258Y-20022500D01*
%TO.C,J_FPGA*%
X10620000Y-61580000D02*
X23540000Y-61580000D01*
X10620000Y-64230000D02*
X10620000Y-61580000D01*
X10620000Y-66880000D02*
X10620000Y-65500000D01*
X12000000Y-66880000D02*
X10620000Y-66880000D01*
X13270000Y-64230000D02*
X10620000Y-64230000D01*
X13270000Y-66880000D02*
X13270000Y-64230000D01*
X13270000Y-66880000D02*
X23540000Y-66880000D01*
X23540000Y-66880000D02*
X23540000Y-61580000D01*
%TO.C,FB1*%
X13337221Y-3990000D02*
X13662779Y-3990000D01*
X13337221Y-5010000D02*
X13662779Y-5010000D01*
%TO.C,ROUT_OFF_BR*%
X42262742Y-59277500D02*
X42737258Y-59277500D01*
X42262742Y-60322500D02*
X42737258Y-60322500D01*
%TO.C,ROUT_OFF_TR*%
X18762742Y-59277500D02*
X19237258Y-59277500D01*
X18762742Y-60322500D02*
X19237258Y-60322500D01*
%TO.C,ROS_ON_TL*%
X3577500Y-53237258D02*
X3577500Y-52762742D01*
X4622500Y-53237258D02*
X4622500Y-52762742D01*
%TO.C,RF2*%
X42262742Y-9977500D02*
X42737258Y-9977500D01*
X42262742Y-11022500D02*
X42737258Y-11022500D01*
%TO.C,CA3*%
X30859420Y-37490000D02*
X31140580Y-37490000D01*
X30859420Y-38510000D02*
X31140580Y-38510000D01*
%TO.C,CF4*%
X42359420Y-16990000D02*
X42640580Y-16990000D01*
X42359420Y-18010000D02*
X42640580Y-18010000D01*
%TO.C,ROS_ON_BR*%
X38577500Y-53237258D02*
X38577500Y-52762742D01*
X39622500Y-53237258D02*
X39622500Y-52762742D01*
%TO.C,C_LED*%
X13265000Y-32261252D02*
X13265000Y-31738748D01*
X14735000Y-32261252D02*
X14735000Y-31738748D01*
%TO.C,COS_OFF_BR*%
X45390000Y-57640580D02*
X45390000Y-57359420D01*
X46410000Y-57640580D02*
X46410000Y-57359420D01*
%TO.C,CA4*%
X42359420Y-37490000D02*
X42640580Y-37490000D01*
X42359420Y-38510000D02*
X42640580Y-38510000D01*
%TO.C,J_DEBUG*%
X25120000Y-66880000D02*
X25120000Y-65500000D01*
X26500000Y-66880000D02*
X25120000Y-66880000D01*
X27770000Y-64120000D02*
X40580000Y-64120000D01*
X27770000Y-66880000D02*
X27770000Y-64120000D01*
X27770000Y-66880000D02*
X40580000Y-66880000D01*
X40580000Y-66880000D02*
X40580000Y-64120000D01*
%TO.C,RA4*%
X42262742Y-39977500D02*
X42737258Y-39977500D01*
X42262742Y-41022500D02*
X42737258Y-41022500D01*
%TO.C,CA2*%
X18859420Y-37490000D02*
X19140580Y-37490000D01*
X18859420Y-38510000D02*
X19140580Y-38510000D01*
%TO.C,ROUT_ON_BR*%
X42262742Y-54677500D02*
X42737258Y-54677500D01*
X42262742Y-55722500D02*
X42737258Y-55722500D01*
%TO.C,COS_ON_TR*%
X21890000Y-53140580D02*
X21890000Y-52859420D01*
X22910000Y-53140580D02*
X22910000Y-52859420D01*
%TO.C,U_OS_ON_BR*%
X41394432Y-51815000D02*
X43760000Y-51815000D01*
X43760000Y-54185000D02*
X41240000Y-54185000D01*
X41100000Y-51810000D02*
X40960000Y-51620000D01*
X41240000Y-51620000D01*
X41100000Y-51810000D01*
G36*
X41100000Y-51810000D02*
G01*
X40960000Y-51620000D01*
X41240000Y-51620000D01*
X41100000Y-51810000D01*
G37*
%TO.C,CA1*%
X7359420Y-37490000D02*
X7640580Y-37490000D01*
X7359420Y-38510000D02*
X7640580Y-38510000D01*
%TO.C,ROUT_OFF_TL*%
X7262742Y-59277500D02*
X7737258Y-59277500D01*
X7262742Y-60322500D02*
X7737258Y-60322500D01*
%TO.C,COS_OFF_TL*%
X10390000Y-57640580D02*
X10390000Y-57359420D01*
X11410000Y-57640580D02*
X11410000Y-57359420D01*
%TO.C,U_OS_OFF_BR*%
X41394432Y-56315000D02*
X43760000Y-56315000D01*
X43760000Y-58685000D02*
X41240000Y-58685000D01*
X41100000Y-56310000D02*
X40960000Y-56120000D01*
X41240000Y-56120000D01*
X41100000Y-56310000D01*
G36*
X41100000Y-56310000D02*
G01*
X40960000Y-56120000D01*
X41240000Y-56120000D01*
X41100000Y-56310000D01*
G37*
%TO.C,RF1*%
X7262742Y-9977500D02*
X7737258Y-9977500D01*
X7262742Y-11022500D02*
X7737258Y-11022500D01*
%TO.C,CF1*%
X7359420Y-7990000D02*
X7640580Y-7990000D01*
X7359420Y-9010000D02*
X7640580Y-9010000D01*
%TO.C,C_DEC_TIA3*%
X2490000Y-23140580D02*
X2490000Y-22859420D01*
X3510000Y-23140580D02*
X3510000Y-22859420D01*
%TO.C,DPD1*%
X20050000Y-11100000D02*
X20050000Y-15900000D01*
X20050000Y-15900000D02*
X20850000Y-15900000D01*
X20850000Y-11100000D02*
X20050000Y-11100000D01*
X20850000Y-15910000D02*
X20850000Y-17090000D01*
X23560000Y-15900000D02*
X24450000Y-15900000D01*
X23560000Y-17090000D02*
X23560000Y-15900000D01*
X24450000Y-11100000D02*
X23560000Y-11100000D01*
X24450000Y-15900000D02*
X24450000Y-11100000D01*
%TO.C,U_OS_OFF_BL*%
X29894432Y-56315000D02*
X32260000Y-56315000D01*
X32260000Y-58685000D02*
X29740000Y-58685000D01*
X29600000Y-56310000D02*
X29460000Y-56120000D01*
X29740000Y-56120000D01*
X29600000Y-56310000D01*
G36*
X29600000Y-56310000D02*
G01*
X29460000Y-56120000D01*
X29740000Y-56120000D01*
X29600000Y-56310000D01*
G37*
%TO.C,C_DEC_CMP4*%
X42359420Y-48990000D02*
X42640580Y-48990000D01*
X42359420Y-50010000D02*
X42640580Y-50010000D01*
%TO.C,ROS_ON_BL*%
X27077500Y-53237258D02*
X27077500Y-52762742D01*
X28122500Y-53237258D02*
X28122500Y-52762742D01*
%TO.C,ROS_ON_TR*%
X15077500Y-53237258D02*
X15077500Y-52762742D01*
X16122500Y-53237258D02*
X16122500Y-52762742D01*
%TO.C,U_CMP3*%
X28940000Y-42940000D02*
X33060000Y-42940000D01*
X28940000Y-43035000D02*
X28940000Y-42940000D01*
X28940000Y-48060000D02*
X28940000Y-47965000D01*
X33060000Y-42940000D02*
X33060000Y-43035000D01*
X33060000Y-47965000D02*
X33060000Y-48060000D01*
X33060000Y-48060000D02*
X28940000Y-48060000D01*
X28400000Y-43030000D02*
X28160000Y-42700000D01*
X28640000Y-42700000D01*
X28400000Y-43030000D01*
G36*
X28400000Y-43030000D02*
G01*
X28160000Y-42700000D01*
X28640000Y-42700000D01*
X28400000Y-43030000D01*
G37*
%TO.C,U_OS_OFF_TR*%
X17894432Y-56315000D02*
X20260000Y-56315000D01*
X20260000Y-58685000D02*
X17740000Y-58685000D01*
X17600000Y-56310000D02*
X17460000Y-56120000D01*
X17740000Y-56120000D01*
X17600000Y-56310000D01*
G36*
X17600000Y-56310000D02*
G01*
X17460000Y-56120000D01*
X17740000Y-56120000D01*
X17600000Y-56310000D01*
G37*
%TO.C,RA1*%
X7262742Y-39977500D02*
X7737258Y-39977500D01*
X7262742Y-41022500D02*
X7737258Y-41022500D01*
%TO.C,RG*%
X36262742Y-30477500D02*
X36737258Y-30477500D01*
X36262742Y-31522500D02*
X36737258Y-31522500D01*
%TO.C,U_CMP2*%
X16940000Y-42940000D02*
X21060000Y-42940000D01*
X16940000Y-43035000D02*
X16940000Y-42940000D01*
X16940000Y-48060000D02*
X16940000Y-47965000D01*
X21060000Y-42940000D02*
X21060000Y-43035000D01*
X21060000Y-47965000D02*
X21060000Y-48060000D01*
X21060000Y-48060000D02*
X16940000Y-48060000D01*
X16400000Y-43030000D02*
X16160000Y-42700000D01*
X16640000Y-42700000D01*
X16400000Y-43030000D01*
G36*
X16400000Y-43030000D02*
G01*
X16160000Y-42700000D01*
X16640000Y-42700000D01*
X16400000Y-43030000D01*
G37*
%TO.C,U_TIA2*%
X40890000Y-12390000D02*
X44110000Y-12390000D01*
X40890000Y-12565000D02*
X40890000Y-12390000D01*
X40890000Y-15610000D02*
X40890000Y-15435000D01*
X44110000Y-12390000D02*
X44110000Y-12565000D01*
X44110000Y-15435000D02*
X44110000Y-15610000D01*
X44110000Y-15610000D02*
X40890000Y-15610000D01*
X44660000Y-15440000D02*
X44900000Y-15770000D01*
X44420000Y-15770000D01*
X44660000Y-15440000D01*
G36*
X44900000Y-15770000D02*
G01*
X44420000Y-15770000D01*
X44660000Y-15440000D01*
X44900000Y-15770000D01*
G37*
%TO.C,COS_OFF_TR*%
X21890000Y-57640580D02*
X21890000Y-57359420D01*
X22910000Y-57640580D02*
X22910000Y-57359420D01*
%TD*%
M02*
