%TF.GenerationSoftware,KiCad,Pcbnew,10.0.6*%
%TF.CreationDate,2026-09-26T09:36:53-05:00*%
%TF.ProjectId,neuromorphic-ir-event-sensor,6e657572-6f6d-46f7-9270-6869632d6972,rev?*%
%TF.SameCoordinates,Original*%
%TF.FileFunction,Other,User*%
%FSLAX46Y46*%
G04 Gerber Fmt 4.6, Leading zero omitted, Abs format (unit mm)*
G04 Created by KiCad (PCBNEW 10.0.6) date 2026-09-26 09:36:53*
%MOMM*%
%LPD*%
G01*
G04 APERTURE LIST*
%ADD10C,0.050000*%
G04 APERTURE END LIST*
%TO.C,CF3*%
D10*
X6020000Y-16770000D02*
X8980000Y-16770000D01*
X8980000Y-18230000D01*
X6020000Y-18230000D01*
X6020000Y-16770000D01*
%TO.C,RF4*%
X41020000Y-18770000D02*
X43980000Y-18770000D01*
X43980000Y-20230000D01*
X41020000Y-20230000D01*
X41020000Y-18770000D01*
%TO.C,H*%
X6950000Y-66500000D02*
G75*
G02*
X50000Y-66500000I-3450000J0D01*
G01*
X50000Y-66500000D02*
G75*
G02*
X6950000Y-66500000I3450000J0D01*
G01*
%TO.C,DPD3*%
X20000000Y-26500000D02*
X20000000Y-18500000D01*
X20000000Y-26500000D02*
X24500000Y-26500000D01*
X24500000Y-18500000D02*
X20000000Y-18500000D01*
X24500000Y-18500000D02*
X24500000Y-26500000D01*
%TO.C,C_DEC_TIA2*%
X46270000Y-12520000D02*
X47730000Y-12520000D01*
X47730000Y-15480000D01*
X46270000Y-15480000D01*
X46270000Y-12520000D01*
%TO.C,RTHP_A*%
X33520000Y-2770000D02*
X36480000Y-2770000D01*
X36480000Y-4230000D01*
X33520000Y-4230000D01*
X33520000Y-2770000D01*
%TO.C,LED1*%
X23060000Y-28790000D02*
X29490000Y-28790000D01*
X29490000Y-35210000D01*
X23060000Y-35210000D01*
X23060000Y-28790000D01*
%TO.C,H*%
X37450000Y-18000000D02*
G75*
G02*
X32550000Y-18000000I-2450000J0D01*
G01*
X32550000Y-18000000D02*
G75*
G02*
X37450000Y-18000000I2450000J0D01*
G01*
%TO.C,DPD2*%
X25500000Y-17500000D02*
X25500000Y-9500000D01*
X25500000Y-17500000D02*
X30000000Y-17500000D01*
X30000000Y-9500000D02*
X25500000Y-9500000D01*
X30000000Y-9500000D02*
X30000000Y-17500000D01*
%TO.C,U_CMP4*%
X38800000Y-43040000D02*
X40300000Y-43040000D01*
X38800000Y-47960000D02*
X38800000Y-43040000D01*
X40300000Y-42800000D02*
X44700000Y-42800000D01*
X40300000Y-43040000D02*
X40300000Y-42800000D01*
X40300000Y-47960000D02*
X38800000Y-47960000D01*
X40300000Y-48200000D02*
X40300000Y-47960000D01*
X44700000Y-42800000D02*
X44700000Y-43040000D01*
X44700000Y-43040000D02*
X46200000Y-43040000D01*
X44700000Y-47960000D02*
X44700000Y-48200000D01*
X44700000Y-48200000D02*
X40300000Y-48200000D01*
X46200000Y-43040000D02*
X46200000Y-47960000D01*
X46200000Y-47960000D02*
X44700000Y-47960000D01*
%TO.C,ROUT_ON_BL*%
X29520000Y-54470000D02*
X32480000Y-54470000D01*
X32480000Y-55930000D01*
X29520000Y-55930000D01*
X29520000Y-54470000D01*
%TO.C,U_OS_ON_BL*%
X28720000Y-51820000D02*
X29600000Y-51820000D01*
X28720000Y-54180000D02*
X28720000Y-51820000D01*
X29600000Y-51750000D02*
X32400000Y-51750000D01*
X29600000Y-51820000D02*
X29600000Y-51750000D01*
X29600000Y-54180000D02*
X28720000Y-54180000D01*
X29600000Y-54250000D02*
X29600000Y-54180000D01*
X32400000Y-51750000D02*
X32400000Y-51820000D01*
X32400000Y-51820000D02*
X33280000Y-51820000D01*
X32400000Y-54180000D02*
X32400000Y-54250000D01*
X32400000Y-54250000D02*
X29600000Y-54250000D01*
X33280000Y-51820000D02*
X33280000Y-54180000D01*
X33280000Y-54180000D02*
X32400000Y-54180000D01*
%TO.C,CF2*%
X41020000Y-7770000D02*
X43980000Y-7770000D01*
X43980000Y-9230000D01*
X41020000Y-9230000D01*
X41020000Y-7770000D01*
%TO.C,ROS_OFF_BL*%
X26870000Y-56020000D02*
X28330000Y-56020000D01*
X28330000Y-58980000D01*
X26870000Y-58980000D01*
X26870000Y-56020000D01*
%TO.C,CREF1*%
X26020000Y-3770000D02*
X28980000Y-3770000D01*
X28980000Y-5230000D01*
X26020000Y-5230000D01*
X26020000Y-3770000D01*
%TO.C,ROS_OFF_TR*%
X14870000Y-56020000D02*
X16330000Y-56020000D01*
X16330000Y-58980000D01*
X14870000Y-58980000D01*
X14870000Y-56020000D01*
%TO.C,ROUT_OFF_BL*%
X29520000Y-59070000D02*
X32480000Y-59070000D01*
X32480000Y-60530000D01*
X29520000Y-60530000D01*
X29520000Y-59070000D01*
%TO.C,C_DEC_CMP3*%
X29520000Y-48770000D02*
X32480000Y-48770000D01*
X32480000Y-50230000D01*
X29520000Y-50230000D01*
X29520000Y-48770000D01*
%TO.C,ROS_OFF_TL*%
X3370000Y-56020000D02*
X4830000Y-56020000D01*
X4830000Y-58980000D01*
X3370000Y-58980000D01*
X3370000Y-56020000D01*
%TO.C,COS_OFF_BL*%
X33670000Y-56020000D02*
X35130000Y-56020000D01*
X35130000Y-58980000D01*
X33670000Y-58980000D01*
X33670000Y-56020000D01*
%TO.C,U_CMP1*%
X3800000Y-43040000D02*
X5300000Y-43040000D01*
X3800000Y-47960000D02*
X3800000Y-43040000D01*
X5300000Y-42800000D02*
X9700000Y-42800000D01*
X5300000Y-43040000D02*
X5300000Y-42800000D01*
X5300000Y-47960000D02*
X3800000Y-47960000D01*
X5300000Y-48200000D02*
X5300000Y-47960000D01*
X9700000Y-42800000D02*
X9700000Y-43040000D01*
X9700000Y-43040000D02*
X11200000Y-43040000D01*
X9700000Y-47960000D02*
X9700000Y-48200000D01*
X9700000Y-48200000D02*
X5300000Y-48200000D01*
X11200000Y-43040000D02*
X11200000Y-47960000D01*
X11200000Y-47960000D02*
X9700000Y-47960000D01*
%TO.C,U_OS_ON_TR*%
X16720000Y-51820000D02*
X17600000Y-51820000D01*
X16720000Y-54180000D02*
X16720000Y-51820000D01*
X17600000Y-51750000D02*
X20400000Y-51750000D01*
X17600000Y-51820000D02*
X17600000Y-51750000D01*
X17600000Y-54180000D02*
X16720000Y-54180000D01*
X17600000Y-54250000D02*
X17600000Y-54180000D01*
X20400000Y-51750000D02*
X20400000Y-51820000D01*
X20400000Y-51820000D02*
X21280000Y-51820000D01*
X20400000Y-54180000D02*
X20400000Y-54250000D01*
X20400000Y-54250000D02*
X17600000Y-54250000D01*
X21280000Y-51820000D02*
X21280000Y-54180000D01*
X21280000Y-54180000D02*
X20400000Y-54180000D01*
%TO.C,C_BULK_A*%
X15800000Y-3520000D02*
X19200000Y-3520000D01*
X19200000Y-5480000D01*
X15800000Y-5480000D01*
X15800000Y-3520000D01*
%TO.C,C_DEC_TIA1*%
X2270000Y-12520000D02*
X3730000Y-12520000D01*
X3730000Y-15480000D01*
X2270000Y-15480000D01*
X2270000Y-12520000D01*
%TO.C,Q1*%
X29570000Y-30500000D02*
X30600000Y-30500000D01*
X29570000Y-31610000D02*
X29570000Y-30500000D01*
X29570000Y-32390000D02*
X30600000Y-32390000D01*
X29570000Y-33500000D02*
X29570000Y-32390000D01*
X30600000Y-30300000D02*
X32400000Y-30300000D01*
X30600000Y-30500000D02*
X30600000Y-30300000D01*
X30600000Y-31610000D02*
X29570000Y-31610000D01*
X30600000Y-32390000D02*
X30600000Y-31610000D01*
X30600000Y-33500000D02*
X29570000Y-33500000D01*
X30600000Y-33700000D02*
X30600000Y-33500000D01*
X32400000Y-30300000D02*
X32400000Y-31450000D01*
X32400000Y-31450000D02*
X33430000Y-31450000D01*
X32400000Y-32550000D02*
X32400000Y-33700000D01*
X32400000Y-33700000D02*
X30600000Y-33700000D01*
X33430000Y-31450000D02*
X33430000Y-32550000D01*
X33430000Y-32550000D02*
X32400000Y-32550000D01*
%TO.C,RA3*%
X29520000Y-39770000D02*
X32480000Y-39770000D01*
X32480000Y-41230000D01*
X29520000Y-41230000D01*
X29520000Y-39770000D01*
%TO.C,U_OS_OFF_TL*%
X5220000Y-56320000D02*
X6100000Y-56320000D01*
X5220000Y-58680000D02*
X5220000Y-56320000D01*
X6100000Y-56250000D02*
X8900000Y-56250000D01*
X6100000Y-56320000D02*
X6100000Y-56250000D01*
X6100000Y-58680000D02*
X5220000Y-58680000D01*
X6100000Y-58750000D02*
X6100000Y-58680000D01*
X8900000Y-56250000D02*
X8900000Y-56320000D01*
X8900000Y-56320000D02*
X9780000Y-56320000D01*
X8900000Y-58680000D02*
X8900000Y-58750000D01*
X8900000Y-58750000D02*
X6100000Y-58750000D01*
X9780000Y-56320000D02*
X9780000Y-58680000D01*
X9780000Y-58680000D02*
X8900000Y-58680000D01*
%TO.C,DPD4*%
X25500000Y-26500000D02*
X25500000Y-18500000D01*
X25500000Y-26500000D02*
X30000000Y-26500000D01*
X30000000Y-18500000D02*
X25500000Y-18500000D01*
X30000000Y-18500000D02*
X30000000Y-26500000D01*
%TO.C,COS_ON_TL*%
X10170000Y-51520000D02*
X11630000Y-51520000D01*
X11630000Y-54480000D01*
X10170000Y-54480000D01*
X10170000Y-51520000D01*
%TO.C,RTHP_B*%
X37020000Y-2770000D02*
X39980000Y-2770000D01*
X39980000Y-4230000D01*
X37020000Y-4230000D01*
X37020000Y-2770000D01*
%TO.C,ROS_OFF_BR*%
X38370000Y-56020000D02*
X39830000Y-56020000D01*
X39830000Y-58980000D01*
X38370000Y-58980000D01*
X38370000Y-56020000D01*
%TO.C,ROUT_ON_TR*%
X17520000Y-54470000D02*
X20480000Y-54470000D01*
X20480000Y-55930000D01*
X17520000Y-55930000D01*
X17520000Y-54470000D01*
%TO.C,RTHN_A*%
X37020000Y-5270000D02*
X39980000Y-5270000D01*
X39980000Y-6730000D01*
X37020000Y-6730000D01*
X37020000Y-5270000D01*
%TO.C,CREF2*%
X29020000Y-3770000D02*
X31980000Y-3770000D01*
X31980000Y-5230000D01*
X29020000Y-5230000D01*
X29020000Y-3770000D01*
%TO.C,U_TIA1*%
X4320000Y-12570000D02*
X5750000Y-12570000D01*
X4320000Y-15430000D02*
X4320000Y-12570000D01*
X5750000Y-12250000D02*
X9250000Y-12250000D01*
X5750000Y-12570000D02*
X5750000Y-12250000D01*
X5750000Y-15430000D02*
X4320000Y-15430000D01*
X5750000Y-15750000D02*
X5750000Y-15430000D01*
X9250000Y-12250000D02*
X9250000Y-12570000D01*
X9250000Y-12570000D02*
X10680000Y-12570000D01*
X9250000Y-15430000D02*
X9250000Y-15750000D01*
X9250000Y-15750000D02*
X5750000Y-15750000D01*
X10680000Y-12570000D02*
X10680000Y-15430000D01*
X10680000Y-15430000D02*
X9250000Y-15430000D01*
%TO.C,C_DEC_CMP1*%
X6020000Y-48770000D02*
X8980000Y-48770000D01*
X8980000Y-50230000D01*
X6020000Y-50230000D01*
X6020000Y-48770000D01*
%TO.C,RLED*%
X17370000Y-29720000D02*
X19630000Y-29720000D01*
X19630000Y-34280000D01*
X17370000Y-34280000D01*
X17370000Y-29720000D01*
%TO.C,RPD*%
X35020000Y-32770000D02*
X37980000Y-32770000D01*
X37980000Y-34230000D01*
X35020000Y-34230000D01*
X35020000Y-32770000D01*
%TO.C,C_DEC_TIA4*%
X46270000Y-21520000D02*
X47730000Y-21520000D01*
X47730000Y-24480000D01*
X46270000Y-24480000D01*
X46270000Y-21520000D01*
%TO.C,H*%
X49950000Y-66500000D02*
G75*
G02*
X43050000Y-66500000I-3450000J0D01*
G01*
X43050000Y-66500000D02*
G75*
G02*
X49950000Y-66500000I3450000J0D01*
G01*
%TO.C,COS_ON_BR*%
X45170000Y-51520000D02*
X46630000Y-51520000D01*
X46630000Y-54480000D01*
X45170000Y-54480000D01*
X45170000Y-51520000D01*
%TO.C,U_TIA3*%
X4320000Y-21570000D02*
X5750000Y-21570000D01*
X4320000Y-24430000D02*
X4320000Y-21570000D01*
X5750000Y-21250000D02*
X9250000Y-21250000D01*
X5750000Y-21570000D02*
X5750000Y-21250000D01*
X5750000Y-24430000D02*
X4320000Y-24430000D01*
X5750000Y-24750000D02*
X5750000Y-24430000D01*
X9250000Y-21250000D02*
X9250000Y-21570000D01*
X9250000Y-21570000D02*
X10680000Y-21570000D01*
X9250000Y-24430000D02*
X9250000Y-24750000D01*
X9250000Y-24750000D02*
X5750000Y-24750000D01*
X10680000Y-21570000D02*
X10680000Y-24430000D01*
X10680000Y-24430000D02*
X9250000Y-24430000D01*
%TO.C,RTHN_B*%
X33520000Y-5270000D02*
X36480000Y-5270000D01*
X36480000Y-6730000D01*
X33520000Y-6730000D01*
X33520000Y-5270000D01*
%TO.C,U_OS_ON_TL*%
X5220000Y-51820000D02*
X6100000Y-51820000D01*
X5220000Y-54180000D02*
X5220000Y-51820000D01*
X6100000Y-51750000D02*
X8900000Y-51750000D01*
X6100000Y-51820000D02*
X6100000Y-51750000D01*
X6100000Y-54180000D02*
X5220000Y-54180000D01*
X6100000Y-54250000D02*
X6100000Y-54180000D01*
X8900000Y-51750000D02*
X8900000Y-51820000D01*
X8900000Y-51820000D02*
X9780000Y-51820000D01*
X8900000Y-54180000D02*
X8900000Y-54250000D01*
X8900000Y-54250000D02*
X6100000Y-54250000D01*
X9780000Y-51820000D02*
X9780000Y-54180000D01*
X9780000Y-54180000D02*
X8900000Y-54180000D01*
%TO.C,U_REF*%
X20950000Y-3000000D02*
X21950000Y-3000000D01*
X20950000Y-4110000D02*
X20950000Y-3000000D01*
X20950000Y-4890000D02*
X21950000Y-4890000D01*
X20950000Y-6000000D02*
X20950000Y-4890000D01*
X21950000Y-2800000D02*
X24050000Y-2800000D01*
X21950000Y-3000000D02*
X21950000Y-2800000D01*
X21950000Y-4110000D02*
X20950000Y-4110000D01*
X21950000Y-4890000D02*
X21950000Y-4110000D01*
X21950000Y-6000000D02*
X20950000Y-6000000D01*
X21950000Y-6200000D02*
X21950000Y-6000000D01*
X24050000Y-2800000D02*
X24050000Y-3950000D01*
X24050000Y-3950000D02*
X25050000Y-3950000D01*
X24050000Y-5050000D02*
X24050000Y-6200000D01*
X24050000Y-6200000D02*
X21950000Y-6200000D01*
X25050000Y-3950000D02*
X25050000Y-5050000D01*
X25050000Y-5050000D02*
X24050000Y-5050000D01*
%TO.C,COS_ON_BL*%
X33670000Y-51520000D02*
X35130000Y-51520000D01*
X35130000Y-54480000D01*
X33670000Y-54480000D01*
X33670000Y-51520000D01*
%TO.C,C_DEC_CMP2*%
X17520000Y-48770000D02*
X20480000Y-48770000D01*
X20480000Y-50230000D01*
X17520000Y-50230000D01*
X17520000Y-48770000D01*
%TO.C,ROUT_ON_TL*%
X6020000Y-54470000D02*
X8980000Y-54470000D01*
X8980000Y-55930000D01*
X6020000Y-55930000D01*
X6020000Y-54470000D01*
%TO.C,C_BULK_D*%
X7800000Y-3520000D02*
X11200000Y-3520000D01*
X11200000Y-5480000D01*
X7800000Y-5480000D01*
X7800000Y-3520000D01*
%TO.C,U_TIA4*%
X39320000Y-21570000D02*
X40750000Y-21570000D01*
X39320000Y-24430000D02*
X39320000Y-21570000D01*
X40750000Y-21250000D02*
X44250000Y-21250000D01*
X40750000Y-21570000D02*
X40750000Y-21250000D01*
X40750000Y-24430000D02*
X39320000Y-24430000D01*
X40750000Y-24750000D02*
X40750000Y-24430000D01*
X44250000Y-21250000D02*
X44250000Y-21570000D01*
X44250000Y-21570000D02*
X45680000Y-21570000D01*
X44250000Y-24430000D02*
X44250000Y-24750000D01*
X44250000Y-24750000D02*
X40750000Y-24750000D01*
X45680000Y-21570000D02*
X45680000Y-24430000D01*
X45680000Y-24430000D02*
X44250000Y-24430000D01*
%TO.C,RA2*%
X17520000Y-39770000D02*
X20480000Y-39770000D01*
X20480000Y-41230000D01*
X17520000Y-41230000D01*
X17520000Y-39770000D01*
%TO.C,H*%
X17450000Y-18000000D02*
G75*
G02*
X12550000Y-18000000I-2450000J0D01*
G01*
X12550000Y-18000000D02*
G75*
G02*
X17450000Y-18000000I2450000J0D01*
G01*
%TO.C,RF3*%
X6020000Y-18770000D02*
X8980000Y-18770000D01*
X8980000Y-20230000D01*
X6020000Y-20230000D01*
X6020000Y-18770000D01*
%TO.C,J_FPGA*%
X10230000Y-61180000D02*
X23930000Y-61180000D01*
X23930000Y-67270000D01*
X10230000Y-67270000D01*
X10230000Y-61180000D01*
%TO.C,FB1*%
X12020000Y-3770000D02*
X14980000Y-3770000D01*
X14980000Y-5230000D01*
X12020000Y-5230000D01*
X12020000Y-3770000D01*
%TO.C,ROUT_OFF_BR*%
X41020000Y-59070000D02*
X43980000Y-59070000D01*
X43980000Y-60530000D01*
X41020000Y-60530000D01*
X41020000Y-59070000D01*
%TO.C,ROUT_OFF_TR*%
X17520000Y-59070000D02*
X20480000Y-59070000D01*
X20480000Y-60530000D01*
X17520000Y-60530000D01*
X17520000Y-59070000D01*
%TO.C,ROS_ON_TL*%
X3370000Y-51520000D02*
X4830000Y-51520000D01*
X4830000Y-54480000D01*
X3370000Y-54480000D01*
X3370000Y-51520000D01*
%TO.C,RF2*%
X41020000Y-9770000D02*
X43980000Y-9770000D01*
X43980000Y-11230000D01*
X41020000Y-11230000D01*
X41020000Y-9770000D01*
%TO.C,CA3*%
X29520000Y-37270000D02*
X32480000Y-37270000D01*
X32480000Y-38730000D01*
X29520000Y-38730000D01*
X29520000Y-37270000D01*
%TO.C,CF4*%
X41020000Y-16770000D02*
X43980000Y-16770000D01*
X43980000Y-18230000D01*
X41020000Y-18230000D01*
X41020000Y-16770000D01*
%TO.C,ROS_ON_BR*%
X38370000Y-51520000D02*
X39830000Y-51520000D01*
X39830000Y-54480000D01*
X38370000Y-54480000D01*
X38370000Y-51520000D01*
%TO.C,C_LED*%
X13020000Y-30300000D02*
X14980000Y-30300000D01*
X14980000Y-33700000D01*
X13020000Y-33700000D01*
X13020000Y-30300000D01*
%TO.C,COS_OFF_BR*%
X45170000Y-56020000D02*
X46630000Y-56020000D01*
X46630000Y-58980000D01*
X45170000Y-58980000D01*
X45170000Y-56020000D01*
%TO.C,CA4*%
X41020000Y-37270000D02*
X43980000Y-37270000D01*
X43980000Y-38730000D01*
X41020000Y-38730000D01*
X41020000Y-37270000D01*
%TO.C,J_DEBUG*%
X24730000Y-63730000D02*
X40970000Y-63730000D01*
X40970000Y-67270000D01*
X24730000Y-67270000D01*
X24730000Y-63730000D01*
%TO.C,RA4*%
X41020000Y-39770000D02*
X43980000Y-39770000D01*
X43980000Y-41230000D01*
X41020000Y-41230000D01*
X41020000Y-39770000D01*
%TO.C,CA2*%
X17520000Y-37270000D02*
X20480000Y-37270000D01*
X20480000Y-38730000D01*
X17520000Y-38730000D01*
X17520000Y-37270000D01*
%TO.C,ROUT_ON_BR*%
X41020000Y-54470000D02*
X43980000Y-54470000D01*
X43980000Y-55930000D01*
X41020000Y-55930000D01*
X41020000Y-54470000D01*
%TO.C,COS_ON_TR*%
X21670000Y-51520000D02*
X23130000Y-51520000D01*
X23130000Y-54480000D01*
X21670000Y-54480000D01*
X21670000Y-51520000D01*
%TO.C,U_OS_ON_BR*%
X40220000Y-51820000D02*
X41100000Y-51820000D01*
X40220000Y-54180000D02*
X40220000Y-51820000D01*
X41100000Y-51750000D02*
X43900000Y-51750000D01*
X41100000Y-51820000D02*
X41100000Y-51750000D01*
X41100000Y-54180000D02*
X40220000Y-54180000D01*
X41100000Y-54250000D02*
X41100000Y-54180000D01*
X43900000Y-51750000D02*
X43900000Y-51820000D01*
X43900000Y-51820000D02*
X44780000Y-51820000D01*
X43900000Y-54180000D02*
X43900000Y-54250000D01*
X43900000Y-54250000D02*
X41100000Y-54250000D01*
X44780000Y-51820000D02*
X44780000Y-54180000D01*
X44780000Y-54180000D02*
X43900000Y-54180000D01*
%TO.C,CA1*%
X6020000Y-37270000D02*
X8980000Y-37270000D01*
X8980000Y-38730000D01*
X6020000Y-38730000D01*
X6020000Y-37270000D01*
%TO.C,H*%
X6950000Y-3500000D02*
G75*
G02*
X50000Y-3500000I-3450000J0D01*
G01*
X50000Y-3500000D02*
G75*
G02*
X6950000Y-3500000I3450000J0D01*
G01*
%TO.C,ROUT_OFF_TL*%
X6020000Y-59070000D02*
X8980000Y-59070000D01*
X8980000Y-60530000D01*
X6020000Y-60530000D01*
X6020000Y-59070000D01*
%TO.C,COS_OFF_TL*%
X10170000Y-56020000D02*
X11630000Y-56020000D01*
X11630000Y-58980000D01*
X10170000Y-58980000D01*
X10170000Y-56020000D01*
%TO.C,U_OS_OFF_BR*%
X40220000Y-56320000D02*
X41100000Y-56320000D01*
X40220000Y-58680000D02*
X40220000Y-56320000D01*
X41100000Y-56250000D02*
X43900000Y-56250000D01*
X41100000Y-56320000D02*
X41100000Y-56250000D01*
X41100000Y-58680000D02*
X40220000Y-58680000D01*
X41100000Y-58750000D02*
X41100000Y-58680000D01*
X43900000Y-56250000D02*
X43900000Y-56320000D01*
X43900000Y-56320000D02*
X44780000Y-56320000D01*
X43900000Y-58680000D02*
X43900000Y-58750000D01*
X43900000Y-58750000D02*
X41100000Y-58750000D01*
X44780000Y-56320000D02*
X44780000Y-58680000D01*
X44780000Y-58680000D02*
X43900000Y-58680000D01*
%TO.C,RF1*%
X6020000Y-9770000D02*
X8980000Y-9770000D01*
X8980000Y-11230000D01*
X6020000Y-11230000D01*
X6020000Y-9770000D01*
%TO.C,CF1*%
X6020000Y-7770000D02*
X8980000Y-7770000D01*
X8980000Y-9230000D01*
X6020000Y-9230000D01*
X6020000Y-7770000D01*
%TO.C,C_DEC_TIA3*%
X2270000Y-21520000D02*
X3730000Y-21520000D01*
X3730000Y-24480000D01*
X2270000Y-24480000D01*
X2270000Y-21520000D01*
%TO.C,DPD1*%
X20000000Y-17500000D02*
X20000000Y-9500000D01*
X20000000Y-17500000D02*
X24500000Y-17500000D01*
X24500000Y-9500000D02*
X20000000Y-9500000D01*
X24500000Y-9500000D02*
X24500000Y-17500000D01*
%TO.C,U_OS_OFF_BL*%
X28720000Y-56320000D02*
X29600000Y-56320000D01*
X28720000Y-58680000D02*
X28720000Y-56320000D01*
X29600000Y-56250000D02*
X32400000Y-56250000D01*
X29600000Y-56320000D02*
X29600000Y-56250000D01*
X29600000Y-58680000D02*
X28720000Y-58680000D01*
X29600000Y-58750000D02*
X29600000Y-58680000D01*
X32400000Y-56250000D02*
X32400000Y-56320000D01*
X32400000Y-56320000D02*
X33280000Y-56320000D01*
X32400000Y-58680000D02*
X32400000Y-58750000D01*
X32400000Y-58750000D02*
X29600000Y-58750000D01*
X33280000Y-56320000D02*
X33280000Y-58680000D01*
X33280000Y-58680000D02*
X32400000Y-58680000D01*
%TO.C,C_DEC_CMP4*%
X41020000Y-48770000D02*
X43980000Y-48770000D01*
X43980000Y-50230000D01*
X41020000Y-50230000D01*
X41020000Y-48770000D01*
%TO.C,ROS_ON_BL*%
X26870000Y-51520000D02*
X28330000Y-51520000D01*
X28330000Y-54480000D01*
X26870000Y-54480000D01*
X26870000Y-51520000D01*
%TO.C,ROS_ON_TR*%
X14870000Y-51520000D02*
X16330000Y-51520000D01*
X16330000Y-54480000D01*
X14870000Y-54480000D01*
X14870000Y-51520000D01*
%TO.C,U_CMP3*%
X27300000Y-43040000D02*
X28800000Y-43040000D01*
X27300000Y-47960000D02*
X27300000Y-43040000D01*
X28800000Y-42800000D02*
X33200000Y-42800000D01*
X28800000Y-43040000D02*
X28800000Y-42800000D01*
X28800000Y-47960000D02*
X27300000Y-47960000D01*
X28800000Y-48200000D02*
X28800000Y-47960000D01*
X33200000Y-42800000D02*
X33200000Y-43040000D01*
X33200000Y-43040000D02*
X34700000Y-43040000D01*
X33200000Y-47960000D02*
X33200000Y-48200000D01*
X33200000Y-48200000D02*
X28800000Y-48200000D01*
X34700000Y-43040000D02*
X34700000Y-47960000D01*
X34700000Y-47960000D02*
X33200000Y-47960000D01*
%TO.C,U_OS_OFF_TR*%
X16720000Y-56320000D02*
X17600000Y-56320000D01*
X16720000Y-58680000D02*
X16720000Y-56320000D01*
X17600000Y-56250000D02*
X20400000Y-56250000D01*
X17600000Y-56320000D02*
X17600000Y-56250000D01*
X17600000Y-58680000D02*
X16720000Y-58680000D01*
X17600000Y-58750000D02*
X17600000Y-58680000D01*
X20400000Y-56250000D02*
X20400000Y-56320000D01*
X20400000Y-56320000D02*
X21280000Y-56320000D01*
X20400000Y-58680000D02*
X20400000Y-58750000D01*
X20400000Y-58750000D02*
X17600000Y-58750000D01*
X21280000Y-56320000D02*
X21280000Y-58680000D01*
X21280000Y-58680000D02*
X20400000Y-58680000D01*
%TO.C,RA1*%
X6020000Y-39770000D02*
X8980000Y-39770000D01*
X8980000Y-41230000D01*
X6020000Y-41230000D01*
X6020000Y-39770000D01*
%TO.C,H*%
X49950000Y-3500000D02*
G75*
G02*
X43050000Y-3500000I-3450000J0D01*
G01*
X43050000Y-3500000D02*
G75*
G02*
X49950000Y-3500000I3450000J0D01*
G01*
%TO.C,RG*%
X35020000Y-30270000D02*
X37980000Y-30270000D01*
X37980000Y-31730000D01*
X35020000Y-31730000D01*
X35020000Y-30270000D01*
%TO.C,U_CMP2*%
X15300000Y-43040000D02*
X16800000Y-43040000D01*
X15300000Y-47960000D02*
X15300000Y-43040000D01*
X16800000Y-42800000D02*
X21200000Y-42800000D01*
X16800000Y-43040000D02*
X16800000Y-42800000D01*
X16800000Y-47960000D02*
X15300000Y-47960000D01*
X16800000Y-48200000D02*
X16800000Y-47960000D01*
X21200000Y-42800000D02*
X21200000Y-43040000D01*
X21200000Y-43040000D02*
X22700000Y-43040000D01*
X21200000Y-47960000D02*
X21200000Y-48200000D01*
X21200000Y-48200000D02*
X16800000Y-48200000D01*
X22700000Y-43040000D02*
X22700000Y-47960000D01*
X22700000Y-47960000D02*
X21200000Y-47960000D01*
%TO.C,U_TIA2*%
X39320000Y-12570000D02*
X40750000Y-12570000D01*
X39320000Y-15430000D02*
X39320000Y-12570000D01*
X40750000Y-12250000D02*
X44250000Y-12250000D01*
X40750000Y-12570000D02*
X40750000Y-12250000D01*
X40750000Y-15430000D02*
X39320000Y-15430000D01*
X40750000Y-15750000D02*
X40750000Y-15430000D01*
X44250000Y-12250000D02*
X44250000Y-12570000D01*
X44250000Y-12570000D02*
X45680000Y-12570000D01*
X44250000Y-15430000D02*
X44250000Y-15750000D01*
X44250000Y-15750000D02*
X40750000Y-15750000D01*
X45680000Y-12570000D02*
X45680000Y-15430000D01*
X45680000Y-15430000D02*
X44250000Y-15430000D01*
%TO.C,COS_OFF_TR*%
X21670000Y-56020000D02*
X23130000Y-56020000D01*
X23130000Y-58980000D01*
X21670000Y-58980000D01*
X21670000Y-56020000D01*
%TD*%
M02*
